<svg xmlns="http://www.w3.org/2000/svg" xmlns:xlink="http://www.w3.org/1999/xlink" viewBox="0 0 300 50"><style>.st0{clip-path:url(#SVGID_2_)}.st1{display:none}.st1,.st2{fill:#0295a0}.st3{fill:#a9d603}.st4{fill:#ffbf00}.st5{fill:#FFF}.st6{fill:none;stroke:#a9d603;stroke-miterlimit:10}</style><g id="Layer_3"><defs><path id="SVGID_1_" d="M290 50H10C4.5 50 0 45.5 0 40V10C0 4.5 4.5 0 10 0h280c5.5 0 10 4.5 10 10v30c0 5.5-4.5 10-10 10z"/></defs><use xlink:href="#SVGID_1_" overflow="visible" fill="#0295a0"/><clipPath id="SVGID_2_"><use xlink:href="#SVGID_1_" overflow="visible"/></clipPath><g class="st0"><path class="st1" d="M479.8 190v-.3c0-4.1 3.4-7.5 7.5-7.5v-9.9c-4.1 0-7.5-3.4-7.5-7.5s3.4-7.5 7.5-7.5v-9.9c-4.1 0-7.5-3.3-7.5-7.4 0-4.1 3.4-7.5 7.5-7.5v-9.9c-4.1 0-7.5-3.3-7.5-7.5 0-4.1 3.4-7.5 7.5-7.5v-9.9c-4.1 0-7.5-3.3-7.5-7.5 0-1.3.4-2.6 1-3.7-21.7-4.1-38.1-23.1-38.1-46s16.4-41.8 38.1-46c-.6-1.1-1-2.3-1-3.7 0-4.1 3.4-7.5 7.5-7.5v-9.9c-4.1 0-7.5-3.4-7.5-7.5s3.4-7.5 7.5-7.5v-9.9c-4.1 0-7.5-3.3-7.5-7.5 0-4.1 3.4-7.5 7.5-7.5v-9.9c-4.1 0-7.5-3.3-7.5-7.5 0-4.1 3.4-7.5 7.5-7.5v-9.9c-4.1 0-7.5-3.3-7.5-7.5v-.3H-84.6v.3c0 4.1-3.3 7.5-7.5 7.5v9.9c4.1 0 7.5 3.4 7.5 7.5s-3.3 7.5-7.5 7.5v9.9c4.1 0 7.5 3.4 7.5 7.5s-3.3 7.5-7.5 7.5v9.9c4.1 0 7.5 3.3 7.5 7.5 0 4.1-3.3 7.4-7.5 7.4v9.9c4.1 0 7.5 3.3 7.5 7.5 0 1.2-.3 2.3-.8 3.3 22.7 3.3 40.2 22.7 40.2 46.4 0 23.6-17.5 43.1-40.2 46.4.5 1 .8 2.1.8 3.3 0 4.1-3.3 7.5-7.5 7.5v9.9c4.1 0 7.5 3.4 7.5 7.5s-3.3 7.5-7.5 7.5v9.9c4.1 0 7.5 3.3 7.5 7.5 0 4.1-3.3 7.5-7.5 7.5v9.9c4.1 0 7.5 3.3 7.5 7.5 0 4.1-3.3 7.5-7.5 7.5v9.9c4.1 0 7.5 3.3 7.5 7.5v.3h564.4z"/><path class="st1" d="M373.8-31H29.6c-1.1 0-1.9-.9-1.9-1.9 0-1.1.9-1.9 1.9-1.9h344.2c1.1 0 1.9.9 1.9 1.9 0 1-.9 1.9-1.9 1.9zM373.8 112.9H29.6c-1.1 0-1.9-.9-1.9-1.9 0-1.1.9-1.9 1.9-1.9h344.2c1.1 0 1.9.9 1.9 1.9 0 1.1-.9 1.9-1.9 1.9zM-22.7-77l5.4 16.5H.1L-14-50.2l5.4 16.5-14.1-10.2-14.1 10.2 5.4-16.5-14.1-10.3h17.4zM421.7-77l5.4 16.5h17.4l-14.1 10.3 5.4 16.5-14.1-10.2-14.1 10.2 5.4-16.5-14.1-10.3h17.4zM-29 112.5l5.4 16.6h17.4l-14 10.2 5.3 16.6-14.1-10.2-14 10.2 5.3-16.6-14-10.2h17.4zM415.4 112.5l5.4 16.6h17.4l-14.1 10.2 5.4 16.6-14.1-10.2-14 10.2 5.3-16.6-14-10.2h17.4z"/><path class="st2" d="M0 0h300v50H0z"/></g></g><g id="Layer_5"><path class="st3" d="M280.4 10.4h-7.9l9.1 15.8-9.1 15.9h7.9l9.1-15.9z"/><path class="st4" d="M26.4 16.7h-1.7l-4-11.4h1.7l3.2 9.7L29 5.4h1.6l-4.2 11.3zM32.3 5.4h1.6v11.4h-1.6V5.4zM36.7 5.4h4.1c.6 0 1.8 0 2.6.5s1.3 1.4 1.3 2.3c0 .8-.3 1.5-.8 2s-1 .6-1.3.7c1.1.3 1.6.8 1.7 2.2.2 1.3.3 2.3.7 3.6h-1.7c-.3-.8-.4-2.1-.5-3-.2-1.7-.6-2.1-2.5-2.1h-2v5.1h-1.6V5.4zm1.5 4.9h2.5c.2 0 1.1 0 1.5-.3.2-.1.8-.5.8-1.5 0-1.8-1.6-1.8-2.3-1.8h-2.5v3.6zM49.5 16.7v-10h-3.8V5.4h9.2v1.3H51v10h-1.5zM58 5.4v7c0 1.2.3 1.7.5 2 .7.9 1.8 1.1 2.6 1.1 3.1 0 3.1-2.4 3.1-3.2v-7h1.5v7c0 .6 0 1.9-.9 3-1.1 1.4-2.8 1.6-3.7 1.6-1.1 0-3-.3-4-1.8-.3-.5-.7-1.2-.7-2.9V5.4H58zM72.1 5.4h1.7l4.6 11.4h-1.7l-1.2-3h-5.3l-1.2 3h-1.6l4.7-11.4zm-1.4 7.1H75l-2.1-5.6-2.2 5.6zM80 5.4h1.6v10h5.3v1.4H80V5.4z"/><path class="st5" d="M114 5.4h1.7l4.6 11.4h-1.7l-1.2-3H112l-1.2 3h-1.6L114 5.4zm-1.5 7.1h4.3l-2.1-5.6-2.2 5.6zM121.8 5.4h3.8c1.4 0 2.3.1 3.1.9.6.6.8 1.4.8 2.2 0 .9-.3 1.6-.9 2.2-.6.6-1.4 1-3.4 1h-1.8v5h-1.6V5.4zm1.6 5h1.9c1 0 2.6-.1 2.6-1.9 0-1.8-1.5-1.8-2.3-1.8h-2.2v3.7zM131.4 5.4h4.1c.6 0 1.8 0 2.6.5s1.3 1.4 1.3 2.3c0 .8-.3 1.5-.8 2s-1 .6-1.3.7c1.1.3 1.6.8 1.7 2.2.2 1.3.3 2.3.7 3.6H138c-.3-.8-.4-2.1-.5-3-.2-1.7-.6-2.1-2.5-2.1h-2v5.1h-1.6V5.4zm1.5 4.9h2.5c.2 0 1.1 0 1.5-.3.2-.1.8-.5.8-1.5 0-1.8-1.6-1.8-2.3-1.8h-2.5v3.6zM141.9 5.4h1.6v11.4h-1.6V5.4zM146.4 5.4h1.6v10h5.3v1.4h-6.8V5.4zM162.3 7.6c-.7.6-1.8 1.2-2.5 1.6V7.6c1-.5 2-1.2 2.6-1.7h1.4v10.9h-1.5V7.6zM168.2 14.1c0 .9.5 1.6 1.7 1.6 2.4 0 2.4-2.8 2.3-4.5-.6 1.1-1.6 1.4-2.4 1.4-1.7 0-3.3-1.2-3.3-3.4 0-2.5 1.8-3.5 3.5-3.5 1.2 0 2.9.5 3.5 2.7.2.7.3 1.4.3 2.9 0 1.6 0 5.7-4 5.7-1.5 0-3.2-.6-3.3-2.8h1.7zm1.8-7.3c-1.3 0-2 1.1-2 2.3 0 1.4.9 2.2 2.1 2.2 1.2 0 2-.9 2-2.2 0-1.5-1-2.3-2.1-2.3zM178.9 12h7.9v1.1h-7.9V12zM192 15.3l2.8-2.8c.6-.6 1.2-1.2 1.7-1.9.6-.9.8-1.4.8-1.9s-.2-1.8-1.7-1.8c-1.7 0-1.8 1.5-1.8 1.9h-1.7c0-.5.1-1.6 1-2.4.8-.6 1.7-.8 2.4-.8 1.7 0 3.4.8 3.4 3.2 0 .7 0 1.2-1.2 2.7-.3.4-1.7 1.8-2 2.1l-1.9 1.8h5.2v1.2h-7v-1.3zM202.4 14.1c0 1.1 1 1.5 1.8 1.5 1.9 0 2.2-1.8 2.2-2.5 0-1.5-.8-2.3-2.1-2.3-.6 0-1.1.2-1.5.6-.3.3-.4.7-.5.9h-1.4l.3-6.5h6.1v1.3h-4.8l-.2 3.5c.3-.3 1-1 2.3-1 2.2 0 3.3 1.7 3.3 3.6 0 2.1-1.5 3.8-3.9 3.8-1.8 0-3.2-1-3.2-2.8h1.6zM211.9 15l-1.6 3.5h-1l.9-3.5h1.7zM217.8 15.3l2.8-2.8c.6-.6 1.2-1.2 1.7-1.9.6-.9.8-1.4.8-1.9s-.2-1.8-1.7-1.8c-1.7 0-1.8 1.5-1.8 1.9H218c0-.5.1-1.6 1-2.4.8-.6 1.7-.8 2.4-.8 1.7 0 3.4.8 3.4 3.2 0 .7 0 1.2-1.2 2.7-.3.4-1.7 1.8-2 2.1l-1.9 1.8h5.2v1.2H218v-1.3zM230.1 5.6c3.3 0 3.7 3.5 3.7 5.5 0 2.6-.5 4-1.5 5-.8.7-1.7.8-2.2.8-1.4 0-2.4-.8-2.9-1.8-.4-.7-.7-1.8-.7-3.7 0-1.6.1-5.8 3.6-5.8zm0 10c1.8 0 2.1-2.4 2.1-4.3 0-2.6-.5-4.4-2.1-4.4-1.9 0-2.2 2.5-2.2 4.5.1 2.4.5 4.2 2.2 4.2zM235.3 15.3l2.8-2.8c.6-.6 1.2-1.2 1.7-1.9.6-.9.8-1.4.8-1.9s-.2-1.8-1.7-1.8c-1.7 0-1.8 1.5-1.8 1.9h-1.7c0-.5.1-1.6 1-2.4.8-.6 1.7-.8 2.4-.8 1.7 0 3.4.8 3.4 3.2 0 .7 0 1.2-1.2 2.7-.3.4-1.7 1.8-2 2.1l-1.9 1.8h5.2v1.2h-6.9v-1.3zM247.5 7.6c-.7.6-1.8 1.2-2.5 1.6V7.6c1-.5 2-1.2 2.6-1.7h1.4v10.9h-1.5V7.6z"/><g><path class="st4" d="M31.1 21l8.3 23.8h-5.1l-1.7-5.1h-9.4l-1.8 5.1h-4.9L25.1 21h6zm.2 14.8L28 25.6l-3.5 10.1h6.8zM42.4 21h5.2v19.7h10.2v4H42.4V21zM65.9 21v14.5c0 2.6.2 5.9 5.2 5.9.8 0 3.3 0 4.6-2.1.5-.7.8-1.6.8-4V21h5v14.8c0 7.1-5.6 9.3-10.4 9.3-2.4 0-6.7-.5-9-4.1-1.2-1.8-1.2-3.7-1.2-5.9V21h5zM86 21h8.3l5 17.3 5.4-17.3h8.1v23.8h-5.1V24.4l-6.5 20.4H97l-6.4-20.4v20.4H86V21zM117.5 21h7.4l8.9 18.7V21h4.7v23.8h-7L122.3 25v19.7h-4.8V21zM142.7 20.9h5.1v23.9h-5.1V20.9zM160.6 21.1l3.7 17.8 4.6-17.8h5.8l4.2 17.8 3.9-17.8h4.9l-6.1 23.8h-5.7l-4.3-18.2-4.6 18.1h-5.8L155.4 21h5.2zM190.2 21h15.9v3.9h-10.8v5.7h10.1v3.9h-10.1v6.4h11.2v3.9h-16.3V21zM210.3 21h15.9v3.9h-10.8v5.7h10.1v3.9h-10.1v6.4h11.2v3.9h-16.3V21zM230.2 21h5.1v10.2l8-10.3h6l-8.7 10.7 9.5 13.1h-6.4l-8.3-12.1v12.1h-5.1V21z"/></g><path class="st6" d="M99.5 4v15"/></g></svg>