<svg xmlns="http://www.w3.org/2000/svg" viewBox="0 0 314.3 36"><style>.st0{fill:#FFF}.st1{fill:none;stroke:#FFF;stroke-miterlimit:10}</style><g id="Layer_1"><path class="st0" d="M5.1 31.1c0 .8.6 1.5 1.7 1.5s1.7-.7 1.7-1.6V1.8h2v28.6c0 1.7-.9 3.1-3.7 3.1-2.8 0-3.7-1.4-3.7-3.2V1.8h2v29.3zM22 23.1v7.1c0 1.7-.9 3.2-3.7 3.2-2.8 0-3.8-1.4-3.8-3.1V5.5c0-1.9.3-3.8 3.8-3.8S22 3.6 22 5.5v5.9h-2v-7c0-.9-.1-2-1.7-2-1.6 0-1.8 1.1-1.8 2v26.7c0 .8.7 1.6 1.8 1.6 1.2 0 1.7-.7 1.7-1.5v-8h2zM35.8 33.5c-3.6 0-3.8-1.9-3.8-3.8v-6.5h2v7.5c0 1 .3 2.1 1.8 2.1 1.6 0 1.7-1.1 1.7-2.1v-6.8c0-1-.2-1.6-.5-2.6-.4-1.5-.9-2.3-1.6-3.7l-2-3.7c-.7-1.2-.9-2-1.2-3.3-.2-1.5-.2-2.3-.2-3.7V5.4c0-1.9.3-3.8 3.7-3.8 3.6 0 3.8 1.9 3.8 3.8v5.8h-2V4.4c0-1-.2-2-1.7-2-1.6 0-1.8 1.1-1.8 2v2c0 1.3 0 2.2.3 3.6.3 1.2.5 2 1.2 3.1l1.9 3.6c.4.9 1.1 2 1.5 3.4.4 1.4.7 2 .7 3.7v6c-.1 1.8-.3 3.6-3.8 3.7zM51.1 33.2h-2V17.1h-3.5v16.1h-2V5.5c0-1.9.3-3.8 3.8-3.8S51 3.6 51 5.5v27.7zm-2-17.3V4.4c0-.9-.1-2-1.7-2-1.5 0-1.8 1.1-1.8 2v11.4h3.5zM60.9 20.8v-19h2v31.4h-2v-6l-3.6-16.9v22.9h-2V1.8h1.8l3.8 19zM74 3h-3v30.3h-2V3h-2.8V1.8H74V3zM84.8 33.2h-2V17.1h-3.5v16.1h-2V5.5c0-1.9.3-3.8 3.8-3.8s3.6 1.9 3.6 3.8v27.7zm-2-17.3V4.4c0-.9-.1-2-1.7-2-1.5 0-1.8 1.1-1.8 2v11.4h3.5zM102.6 23.1v7.1c0 1.7-.9 3.2-3.7 3.2-2.8 0-3.8-1.4-3.8-3.1V5.5c0-1.9.3-3.8 3.8-3.8s3.7 1.9 3.7 3.8v5.9h-2v-7c0-.9-.1-2-1.7-2-1.6 0-1.8 1.1-1.8 2v26.7c0 .8.7 1.6 1.8 1.6 1.2 0 1.7-.7 1.7-1.5v-8h2zM112.5 33.2V19.9c0-.9-.1-1.9-.8-2.3-.6-.4-1.1-.6-1.8-.6h-.9v16.2h-2V1.9h3.5c.5 0 2 .1 2.9.8 1 .7 1 1.7 1 2.8v8.4c0 .6-.1 1-.5 1.5-.4.6-1.6 1.1-1.6 1.2.1 0 1 .5 1.4 1 .7.7.8 1.5.8 2.3v13.4h-2zM111.7 3c-.4-.1-.9-.3-1.5-.3H109v13.5h.9c.8 0 1.7-.4 2-.8.3-.3.5-1.3.5-2.2V4.8c.1-.9-.1-1.5-.7-1.8zM120.5 31.1c0 .8.6 1.5 1.7 1.5s1.7-.7 1.7-1.6V1.8h2v28.6c0 1.7-.9 3.1-3.7 3.1-2.8 0-3.7-1.4-3.7-3.2V1.8h2v29.3zM134.6 3h-4.3V1.8h6.7l-4.7 30.1h4.9v1.3H130L134.6 3z"/><path class="st1" d="M146.2-.4v36"/><g><path class="st0" d="M160.3 2.6l4.1 11.8h-2.5l-.8-2.5h-4.7l-.9 2.5h-2.4l4.2-11.8h3zm.1 7.3l-1.6-5-1.7 5h3.3zM165.9 2.6h2.6v9.7h5v2h-7.6V2.6zM177.5 2.6v7.2c0 1.3.1 2.9 2.6 2.9.4 0 1.6 0 2.3-1 .2-.4.4-.8.4-2v-7h2.5V10c0 3.5-2.8 4.6-5.2 4.6-1.2 0-3.3-.3-4.4-2-.6-.9-.6-1.8-.6-2.9v-7h2.4zM187.4 2.6h4.1l2.5 8.6 2.7-8.6h4v11.8h-2.5V4.2L195 14.3h-2.1l-3.1-10.1v10.1h-2.4V2.6zM203 2.6h3.6l4.4 9.3V2.6h2.3v11.8h-3.5l-4.6-9.8v9.8H203V2.6zM215.4 2.5h2.5v11.8h-2.5V2.5zM226.8 2.6l1.8 8.8 2.3-8.8h2.8l2.1 8.8 1.9-8.8h2.4l-3 11.7h-2.8l-2.1-9-2.3 9H227l-2.9-11.7h2.7zM241.4 2.6h7.9v1.9h-5.4v2.8h5v1.9h-5v3.2h5.5v2h-8.1V2.6zM251.3 2.6h7.9v1.9h-5.4v2.8h5v1.9h-5v3.2h5.5v2h-8.1V2.6zM261.2 2.6h2.5v5.1l3.9-5.1h2.9l-4.3 5.3 4.7 6.5h-3.1l-4.1-6v6h-2.5V2.6zM275.9 12l2.9-2.7c.5-.5 1.1-1 1.7-1.7.6-.8.8-1.1.8-1.6 0-.9-.5-1.4-1.4-1.4-1.3 0-1.4 1.3-1.4 1.7H276c0-.5 0-1.3.7-2.1s1.9-1.2 3.2-1.2c2.5 0 3.8 1.3 3.8 3.1 0 1.2-.5 2.7-5.4 6.6 1.6 0 1.8 0 3.1-.1h2.3v1.9h-8V12zM289.1 2.8c1.6 0 2.5.9 3 1.5.6.9 1 2 1 4.1 0 2.6-.6 6.1-4 6.1-2.9 0-3.9-2.8-3.9-5.8-.1-1.5.2-5.9 3.9-5.9zm1.2 3.2c-.1-.3-.3-1.3-1.2-1.3-.7 0-1 .6-1.1 1-.4 1.2-.4 2.9-.4 3.2 0 1.9.3 3.7 1.5 3.7 1.3 0 1.5-2.2 1.5-3.8 0-.7-.1-2-.3-2.8zM294 12l2.9-2.7c.5-.5 1.1-1 1.7-1.7.6-.8.8-1.1.8-1.6 0-.9-.5-1.4-1.4-1.4-1.3 0-1.4 1.3-1.4 1.7h-2.5c0-.5 0-1.3.7-2.1S296.7 3 298 3c2.5 0 3.8 1.3 3.8 3.1 0 1.2-.5 2.7-5.4 6.6 1.6 0 1.8 0 3.1-.1h2.3v1.9h-8V12zM304.1 4.7c1.1-.5 2.1-1 3-1.7h2.1v11.4h-2.5V5.5c-.5.4-1.4.9-2.7 1.4V4.7z"/></g><g><path class="st0" d="M160.3 20.6l4.1 11.8h-2.5l-.8-2.5h-4.7l-.9 2.5h-2.4l4.2-11.8h3zm.1 7.3l-1.6-5-1.7 5h3.3zM165.8 20.6h3.6c1.7 0 3.1.1 4.1 1.3.6.7.7 1.6.7 2.2 0 1.4-.6 2.5-1.5 3.1-.9.6-2 .6-2.7.6h-1.7v4.6h-2.6V20.6zm2.5 5.3h1c.8 0 2.3 0 2.3-1.8 0-1.6-1.4-1.6-2.1-1.6h-1.3v3.4zM175.7 20.6h4.5c1.3 0 2.6 0 3.6.8.7.6 1 1.5 1 2.3 0 2.2-1.9 2.7-2.5 2.9 1.8.2 1.9 1.2 2.1 2.7.2 1.4.3 2 .4 2.3.1.5.2.7.4.8h-2.8c-.1-.7-.5-3.6-.6-4.1-.2-.7-.8-.7-1.3-.7h-2.2v4.8h-2.6V20.6zm2.5 5.2h2c.3 0 .9 0 1.3-.3.2-.1.7-.5.7-1.4 0-.8-.4-1.2-.6-1.3-.4-.3-.9-.3-1.7-.3h-1.7v3.3zM186.5 20.6h2.5v11.8h-2.5V20.6zM191.2 20.6h2.6v9.7h5v2h-7.6V20.6zM205.2 22.7c1.1-.5 2.1-1 3-1.7h2.1v11.4h-2.5v-8.8c-.5.4-1.4.9-2.7 1.4v-2.3zM215.3 29.6c.1.7.5 1.1 1.2 1.1 1.7 0 1.8-1.8 1.8-3.3-.8.7-1.5.8-2 .8-2.8 0-3.5-2.2-3.5-3.6 0-2.1 1.5-3.7 4-3.7 3.9 0 4 3.7 4 5.5 0 4.8-1.6 6.2-4.4 6.2-.6 0-3.5 0-3.5-3h2.4zm3-5.1c0-1-.5-1.7-1.5-1.7-1.2 0-1.6.9-1.6 1.8 0 .4.1 1.8 1.5 1.8 1.2-.1 1.6-1.2 1.6-1.9zM221.4 27.3h8.1v1.6h-8.1v-1.6zM229.9 30.1l2.9-2.7c.5-.5 1.1-1 1.7-1.7.6-.8.8-1.1.8-1.6 0-.9-.5-1.4-1.4-1.4-1.3 0-1.4 1.3-1.4 1.7H230c0-.5 0-1.3.7-2.1s1.9-1.2 3.2-1.2c2.5 0 3.8 1.3 3.8 3.1 0 1.2-.5 2.7-5.4 6.6 1.6 0 1.8 0 3.1-.1h2.3v1.9h-8v-2.5zM241.5 29.6c0 .3.2 1.3 1.3 1.3.9 0 1.7-.6 1.7-2.1 0-1.1-.4-2-1.5-2s-1.4.9-1.4 1.1l-2.4-.1.3-6.7h6.9V23h-4.7l-.1 2.8c.4-.3.9-.8 2.1-.8 1.8 0 3.4 1.3 3.4 3.6 0 1.9-1.1 4.1-4 4.1-1.2 0-2.4-.3-3.2-1.2-.6-.7-.6-1.4-.6-1.8h2.2z"/></g></g></svg>