<?xml version="1.0" encoding="utf-8"?>
<!-- Generator: Adobe Illustrator 27.2.0, SVG Export Plug-In . SVG Version: 6.00 Build 0)  -->
<svg version="1.1" id="Layer_1" xmlns="http://www.w3.org/2000/svg" xmlns:xlink="http://www.w3.org/1999/xlink" x="0px" y="0px"
	 viewBox="0 0 600 175" style="enable-background:new 0 0 600 175;" xml:space="preserve">
<style type="text/css">
	.st0{fill:#173E6B;}
	.st1{fill:#FDC700;}
	.st2{fill:#FFFFFF;}
</style>
<g>
	<rect x="-1.74" y="-2.35" class="st0" width="604.48" height="179.7"/>
	<path class="st0" d="M602.47-2.2V177.2H-1.48V-2.2H602.47 M602.99-2.5h-0.52H-1.48H-2v0.3V177.2v0.3h0.52h603.96H603v-0.3V-2.2
		L602.99-2.5L602.99-2.5z"/>
</g>
<g>
	<path class="st1" d="M230.02,101.25c0.33,0,0.59-0.05,0.78-0.14c0.19-0.09,0.38-0.19,0.57-0.29v1.56
		c-0.29,0.24-0.64,0.46-1.06,0.67c-0.42,0.21-0.99,0.32-1.7,0.32c-0.62,0-1.23-0.12-1.84-0.35c-0.62-0.24-1.18-0.61-1.7-1.13
		c-0.52-0.52-0.96-1.19-1.31-2.02c-0.35-0.83-0.56-1.85-0.6-3.08V85.18c0-1.04-0.14-1.88-0.42-2.51c-0.29-0.64-0.65-1.12-1.1-1.45
		s-0.93-0.56-1.45-0.67c-0.52-0.12-0.99-0.2-1.41-0.25h-2.9v18.55c0,0.66,0.09,1.14,0.29,1.45c0.19,0.31,0.38,0.48,0.57,0.53
		c0.29,0.14,0.59,0.14,0.92,0v1.84h-8.49v-1.84c0.33,0.14,0.61,0.14,0.85,0c0.24-0.04,0.46-0.23,0.67-0.53
		c0.21-0.31,0.32-0.79,0.32-1.45V55.81c0-0.66-0.11-1.16-0.32-1.49c-0.21-0.33-0.44-0.54-0.67-0.64c-0.24-0.04-0.52-0.04-0.85,0
		v-1.7h10.12c1.74,0,3.29,0.3,4.63,0.88c1.35,0.59,2.46,1.36,3.36,2.3c0.9,0.94,1.57,2.03,2.02,3.26c0.45,1.23,0.67,2.5,0.67,3.82
		v7.71c0,1.84-0.47,3.63-1.41,5.38c-0.94,1.75-2.41,3.04-4.39,3.89c2.69,1.09,4.04,3.16,4.04,6.23v11.33c0,1.23,0.08,2.28,0.25,3.15
		C228.59,100.82,229.13,101.25,230.02,101.25z M215.87,53.75v24.56h3.82c0.42,0,0.93-0.13,1.52-0.39c0.59-0.26,1.15-0.66,1.7-1.2
		c0.54-0.54,1.01-1.25,1.41-2.12c0.4-0.87,0.6-1.92,0.6-3.15V60.69c0-1.18-0.2-2.21-0.6-3.08c-0.4-0.87-0.87-1.59-1.41-2.16
		c-0.54-0.57-1.11-0.99-1.7-1.27c-0.59-0.28-1.1-0.42-1.52-0.42L215.87,53.75L215.87,53.75z"/>
	<path class="st1" d="M257.56,95.24v7.43h-19.75v-1.84c0.38,0.14,0.66,0.14,0.85,0c0.24-0.04,0.46-0.22,0.67-0.53
		c0.21-0.31,0.32-0.79,0.32-1.45V55.88c0-0.71-0.1-1.22-0.32-1.52c-0.21-0.31-0.43-0.51-0.67-0.6c-0.19-0.09-0.47-0.09-0.85,0v-1.7
		h19.75v7.43h-1.84c-0.05-1.08-0.19-2.05-0.42-2.9c-0.24-0.71-0.63-1.38-1.17-2.02c-0.54-0.64-1.29-0.96-2.23-0.96h-7.36v22.94h4.95
		c0.61,0,1.08-0.17,1.41-0.5c0.33-0.33,0.57-0.71,0.71-1.13c0.19-0.52,0.28-1.11,0.28-1.77h1.63v8.71h-1.63
		c0-0.66-0.09-1.23-0.28-1.7c-0.14-0.47-0.38-0.88-0.71-1.24s-0.8-0.53-1.41-0.53h-4.95v22.58h7.36c0.95,0,1.69-0.29,2.23-0.85
		c0.54-0.57,0.93-1.23,1.17-1.98c0.24-0.85,0.38-1.81,0.42-2.9L257.56,95.24L257.56,95.24z"/>
	<path class="st1" d="M271.94,52.06v1.7c-0.33-0.09-0.61-0.09-0.85,0c-0.24,0.09-0.45,0.3-0.64,0.6s-0.29,0.81-0.29,1.52
		c0,0.05,0,0.9,0,2.55s0,3.73,0,6.23c0,2.5,0.01,5.25,0.03,8.25c0.02,3,0.03,5.82,0.03,8.46s0,4.92,0,6.83c0,1.91,0,3.08,0,3.5
		c0,3.63,0.39,6.21,1.17,7.72c0.78,1.51,1.92,2.26,3.43,2.26h0.07h0.07c1.41,0,2.54-0.75,3.36-2.26c0.82-1.51,1.24-4.08,1.24-7.72
		v-5.52c0-1.13,0-2.34,0-3.61V55.88c0-0.71-0.08-1.22-0.25-1.52c-0.17-0.31-0.37-0.51-0.6-0.6c-0.29-0.09-0.59-0.09-0.92,0v-1.7
		h8.42v1.7c-0.28-0.09-0.57-0.09-0.85,0c-0.24,0.09-0.44,0.3-0.6,0.6s-0.25,0.81-0.25,1.52v37.73c0,1.51-0.3,2.87-0.88,4.07
		c-0.59,1.2-1.36,2.23-2.3,3.08c-0.95,0.85-1.98,1.48-3.12,1.91c-1.13,0.42-2.24,0.64-3.33,0.64c-1.13,0-2.27-0.21-3.4-0.64
		c-1.13-0.42-2.16-1.06-3.08-1.91c-0.92-0.85-1.65-1.86-2.19-3.04c-0.54-1.18-0.81-2.52-0.81-4.04c0-0.19,0-0.86,0-2.02
		c0-1.15,0-2.64,0-4.46c0-1.82,0-3.83,0-6.05c0-2.22-0.01-4.48-0.03-6.79c-0.02-2.31-0.03-4.58-0.03-6.79c0-2.22,0-4.2,0-5.95
		c0-1.74,0-3.13,0-4.14c0-1.01,0-1.54,0-1.59c0-0.71-0.1-1.22-0.32-1.52c-0.21-0.31-0.43-0.51-0.67-0.6c-0.19-0.09-0.47-0.09-0.85,0
		v-1.7L271.94,52.06L271.94,52.06z"/>
	<path class="st1" d="M309.74,52.13h6.23v1.77c-0.42-0.09-0.78-0.09-1.06,0c-0.24,0.09-0.46,0.3-0.67,0.6
		c-0.21,0.31-0.32,0.79-0.32,1.45v46.72h-5.95l-11.75-40.63v36.81c0,0.66,0.11,1.13,0.32,1.41c0.21,0.29,0.43,0.47,0.67,0.57
		c0.29,0.09,0.64,0.09,1.06,0v1.84h-6.23v-1.84c0.38,0.09,0.71,0.09,0.99,0c0.24-0.09,0.47-0.29,0.71-0.57
		c0.24-0.29,0.35-0.75,0.35-1.41v-42.9c0-0.66-0.12-1.14-0.35-1.45c-0.24-0.31-0.47-0.51-0.71-0.6c-0.29-0.09-0.62-0.09-0.99,0
		v-1.77h7.22l12.53,43.04V55.95c0-0.66-0.12-1.14-0.35-1.45c-0.24-0.31-0.47-0.51-0.71-0.6c-0.29-0.09-0.62-0.09-0.99,0
		L309.74,52.13L309.74,52.13z"/>
	<path class="st1" d="M361.12,77.47c0,3.07,0,5.73,0,8s-0.06,4.24-0.18,5.91c-0.12,1.68-0.33,3.09-0.64,4.25
		c-0.31,1.15-0.77,2.18-1.38,3.08c-0.95,1.41-2.15,2.49-3.61,3.22c-1.46,0.73-2.95,1.1-4.46,1.1c-1.46,0-2.94-0.36-4.43-1.1
		c-1.48-0.73-2.7-1.8-3.64-3.22c-0.61-0.9-1.07-1.92-1.38-3.08c-0.31-1.15-0.52-2.57-0.64-4.25c-0.12-1.67-0.18-3.64-0.18-5.91
		c0-2.26,0-4.93,0-8c0-4.11,0.02-7.52,0.07-10.23c0.04-2.72,0.26-4.97,0.64-6.76c0.19-1.51,0.66-2.84,1.41-4
		c0.75-1.16,1.67-2.09,2.76-2.8c1.74-1.08,3.54-1.63,5.38-1.63c0.9,0,1.82,0.14,2.76,0.42c0.95,0.28,1.82,0.68,2.62,1.2
		c1.08,0.71,2.02,1.64,2.79,2.8c0.78,1.16,1.24,2.49,1.38,4c0.33,1.79,0.53,4.05,0.6,6.76C361.08,69.95,361.12,73.36,361.12,77.47z
		 M356.24,93.25c0-1.98,0-4.37,0-7.15c0-2.78,0.02-5.66,0.07-8.64c-0.05-2.92-0.07-5.77-0.07-8.53s0-5.13,0-7.11
		c0-2.97-0.52-5.05-1.56-6.23c-1.04-1.18-2.31-1.77-3.82-1.77c-1.51,0-2.79,0.59-3.82,1.77c-1.04,1.18-1.56,3.26-1.56,6.23v15.65
		v15.78c0,2.97,0.46,5.08,1.38,6.33c0.92,1.25,2.28,1.88,4.07,1.88c1.79,0,3.13-0.63,4-1.88C355.8,98.34,356.24,96.23,356.24,93.25z
		"/>
	<path class="st1" d="M385.05,52.13h6.23v1.77c-0.42-0.09-0.78-0.09-1.06,0c-0.24,0.09-0.46,0.3-0.67,0.6
		c-0.21,0.31-0.32,0.79-0.32,1.45v46.72h-5.95l-11.75-40.63v36.81c0,0.66,0.11,1.13,0.32,1.41c0.21,0.29,0.43,0.47,0.67,0.57
		c0.29,0.09,0.64,0.09,1.06,0v1.84h-6.23v-1.84c0.38,0.09,0.71,0.09,0.99,0c0.24-0.09,0.47-0.29,0.71-0.57
		c0.24-0.29,0.35-0.75,0.35-1.41v-42.9c0-0.66-0.12-1.14-0.35-1.45c-0.24-0.31-0.47-0.51-0.71-0.6c-0.29-0.09-0.61-0.09-0.99,0
		v-1.77h7.22l12.53,43.04V55.95c0-0.66-0.12-1.14-0.35-1.45c-0.24-0.31-0.47-0.51-0.71-0.6c-0.29-0.09-0.61-0.09-0.99,0V52.13
		L385.05,52.13z"/>
	<path class="st1" d="M336.31,77.69c-2.32,0-4.34-1.25-5.46-3.1c1.34,0.88,2.93,1.4,4.64,1.4v-2.81c-2.21,0-4.13-1.29-5.05-3.15
		c1.21,0.82,2.67,1.3,4.23,1.3v-2.66c-2.08,0-3.87-1.32-4.57-3.16c1.07,0.73,2.36,1.16,3.75,1.16v-2.52c-1.79,0-3.31-1.15-3.89-2.75
		l-0.01-0.3c0.89,0.57,1.95,0.9,3.08,0.9v-2.37c-1.44,0-2.67-0.91-3.17-2.18l-0.02-0.73c0.7,0.39,1.51,0.62,2.37,0.62v-2.22
		c-1.47,0-2.66-1.2-2.66-2.66h-2.22c0,1.47-1.2,2.66-2.66,2.66v2.22c0.86,0,1.67-0.23,2.37-0.62l-0.02,0.73
		c-0.49,1.27-1.72,2.18-3.17,2.18V62c1.13,0,2.19-0.33,3.08-0.9l-0.01,0.29c-0.58,1.6-2.09,2.75-3.89,2.75v2.52
		c1.39,0,2.68-0.43,3.75-1.16c-0.7,1.84-2.48,3.16-4.57,3.16v2.66c1.57,0,3.02-0.48,4.23-1.3c-0.92,1.86-2.83,3.15-5.05,3.15v2.81
		c1.71,0,3.31-0.52,4.64-1.4c-1.12,1.85-3.14,3.1-5.46,3.1v2.96c2.24,0,4.3-0.79,5.91-2.12L326,98.85c0,0.66-0.11,1.14-0.32,1.45
		c-0.21,0.31-0.39,0.48-0.53,0.53c-0.29,0.14-0.62,0.14-0.99,0v1.84h8.57v-1.84c-0.38,0.14-0.68,0.14-0.92,0
		c-0.19-0.04-0.39-0.22-0.6-0.53c-0.21-0.31-0.32-0.79-0.32-1.45l-0.5-20.32c1.61,1.32,3.67,2.12,5.91,2.12v-2.96H336.31z"/>
</g>
<g>
	<path class="st1" d="M246.62,112.87l-5.33,14.23h-2.87l-4.04-10.97l-4.02,10.97h-2.82l-5.28-14.23h3.09l3.62,10.89l3.77-10.89h3.31
		l3.79,10.93l3.69-10.93L246.62,112.87L246.62,112.87z"/>
	<path class="st1" d="M267.56,124.57v2.46H253.9v-14.17h13.56v2.44h-10.85v3.41h8.7v2.15h-8.7v3.71L267.56,124.57L267.56,124.57z"/>
	<path class="st1" d="M288.74,124.57v2.46h-13.67v-14.17h13.56v2.44h-10.85v3.41h8.7v2.15h-8.7v3.71L288.74,124.57L288.74,124.57z"
		/>
	<path class="st1" d="M302.69,120.07l-3.73,3.16v3.81h-2.71v-14.17h2.71v7.2l8.76-7.18h3.43l-6.38,5.41l6.4,8.74h-3.39
		L302.69,120.07z"/>
	<path class="st1" d="M331.91,124.57v2.46h-13.67v-14.17h13.56v2.44h-10.85v3.41h8.7v2.15h-8.7v3.71L331.91,124.57L331.91,124.57z"
		/>
	<path class="st1" d="M353.82,112.87v14.17h-2.71l-9.01-10.34v10.34h-2.67v-14.17h2.71l9.01,10.32v-10.32H353.82z"/>
	<path class="st1" d="M378.16,119.58v0.72c0,4.78-2.97,6.74-7.98,6.74h-7.68v-14.17h7.68C375.19,112.87,378.16,114.93,378.16,119.58
		z M375.42,119.56c0-3.03-1.89-4.19-5.24-4.19h-4.97v9.16h4.97c3.35,0,5.24-1.07,5.24-4.21V119.56z"/>
</g>
<g>
	<g>
		<path class="st2" d="M255.06,149.25h-3.21l-0.67,3.45h-1.1l2.6-13.03h1.56l2.58,13.03h-1.1L255.06,149.25z M254.87,148.26
			l-1.42-7.41l-1.42,7.41H254.87z"/>
		<path class="st2" d="M264.28,143.99c0,3.13-1.18,4.63-3.61,4.63h-1.02v4.08h-1.08v-13.01h2.11
			C263.18,139.69,264.28,140.87,264.28,143.99z M263.18,144.01c0-2.31-0.71-3.29-2.48-3.29h-1.04v6.94h1.04
			C262.47,147.65,263.18,146.29,263.18,144.01z"/>
		<path class="st2" d="M269.74,148.03l1.65,4.67h-1.16l-1.5-4.34c-0.38,0.08-0.79,0.12-1.24,0.12h-0.61v4.21h-1.1v-13.01h2.11
			c2.5,0,3.63,1.18,3.63,4.3C271.51,146.06,270.98,147.38,269.74,148.03z M267.61,147.52c2.07,0,2.78-1.32,2.78-3.53
			c0-2.31-0.71-3.27-2.48-3.27h-1.02v6.8H267.61z"/>
		<path class="st2" d="M273.38,139.69h1.08v13.01h-1.08V139.69z"/>
		<path class="st2" d="M282.09,151.65v1.05h-4.87v-13.01h1.08v11.96L282.09,151.65L282.09,151.65z"/>
		<path class="st2" d="M288.26,139.69v13.01h-1.08v-12l-0.71,0.36l-0.24-0.88l1.07-0.47L288.26,139.69L288.26,139.69z"/>
		<path class="st2" d="M296.2,150.39h-0.93v2.31h-1.08v-2.31h-3.88l0.02-0.88l3.19-9.81h1.14l-3.21,9.72h2.74v-2.52h1.08v2.52h0.93
			L296.2,150.39L296.2,150.39z"/>
		<path class="st2" d="M297.68,147.3v-0.85h5.95v0.85H297.68z"/>
		<path class="st2" d="M307.29,139.69v13.01h-1.08v-12l-0.71,0.36l-0.24-0.88l1.07-0.47L307.29,139.69L307.29,139.69z"/>
		<path class="st2" d="M315.27,149.01c0,2.7-1.01,3.9-2.95,3.9c-1.64,0-2.76-1.08-2.7-4l1.01-0.12c-0.08,2.11,0.57,3.11,1.71,3.11
			c1.26,0,1.85-0.96,1.85-2.9c0-1.75-0.69-2.68-2.42-2.68h-1.68v-6.64h4.93v1.02h-3.84v4.71h0.93
			C314.31,145.43,315.27,146.69,315.27,149.01z"/>
		<path class="st2" d="M317.99,153.29c0,1.87-0.61,2.58-1.63,2.45l0.08-0.73c0.63,0.08,0.87-0.43,0.87-1.56c0-0.22,0-0.41-0.02-0.61
			c-0.08,0.06-0.18,0.08-0.28,0.08c-0.45,0-0.65-0.39-0.65-0.99c0-0.65,0.3-0.99,0.73-0.99
			C317.65,150.94,317.99,151.73,317.99,153.29z"/>
		<path class="st2" d="M327.86,151.67v1.02h-5.64v-0.91l2.68-5.07c0.85-1.57,1.34-3.01,1.34-4.18c0-1.24-0.45-2.07-1.56-2.07
			c-1.07,0-1.71,0.73-2.03,2.19l-0.95-0.32c0.51-1.95,1.5-2.9,3.08-2.9c1.63,0,2.58,1.08,2.58,3.02c0,1.4-0.53,2.88-1.58,4.85
			l-2.31,4.35L327.86,151.67L327.86,151.67z"/>
		<path class="st2" d="M329.42,148.72v-5.09c0-2.84,1.22-4.2,3.27-4.2c2.03,0,3.25,1.36,3.25,4.2v5.09c0,2.86-1.22,4.24-3.25,4.24
			C330.64,152.95,329.42,151.57,329.42,148.72z M334.82,148.78v-5.16c0-2.03-0.71-3.17-2.13-3.17c-1.42,0-2.15,1.14-2.15,3.17v5.16
			c0,1.99,0.73,3.15,2.15,3.15S334.82,150.77,334.82,148.78z"/>
		<path class="st2" d="M343.41,151.67v1.02h-5.64v-0.91l2.68-5.07c0.85-1.57,1.34-3.01,1.34-4.18c0-1.24-0.45-2.07-1.56-2.07
			c-1.07,0-1.71,0.73-2.03,2.19l-0.95-0.32c0.51-1.95,1.5-2.9,3.07-2.9c1.64,0,2.58,1.08,2.58,3.02c0,1.4-0.53,2.88-1.58,4.85
			l-2.31,4.35L343.41,151.67L343.41,151.67z"/>
		<path class="st2" d="M350.34,149.01c0,2.7-1.07,3.9-3.01,3.9c-1.6,0-2.7-1-2.78-3.71l1.01-0.12c0.06,1.89,0.69,2.82,1.81,2.82
			c1.26,0,1.89-1.05,1.89-2.94c0-1.54-0.83-2.52-2.13-2.52h-0.75v-0.95h0.75c1.02,0,1.87-0.93,1.87-2.92c0-1.28-0.47-2.11-1.56-2.11
			c-1.02,0-1.66,0.73-1.97,2.19l-0.95-0.28c0.47-1.99,1.48-2.94,3-2.94c1.64,0,2.58,1.08,2.58,3.01c0,1.87-0.73,3.13-1.81,3.45
			C349.49,146.15,350.34,147.32,350.34,149.01z"/>
	</g>
</g>
<g>
	<path class="st2" d="M325.72,24.42l-3.99,11.05h2.26l0.83-2.38h4.37l0.79,2.38h2.39l-3.84-11.05H325.72z M325.43,31.3l1.64-4.71
		l1.53,4.71H325.43z"/>
	<rect x="333.07" y="24.42" class="st2" width="2.26" height="11.05"/>
	<path class="st2" d="M343.91,32.84v-5.09h-2.33v3.9c0,1.32,0,2.4-1.45,2.4c-1.21,0-1.21-1.02-1.21-1.7v-4.6h-2.29v4.8
		c0,0.38,0,1.45,0.5,2.08c0.43,0.57,1.28,1.04,2.33,1.04c1.47,0,2.05-0.88,2.28-1.22l0.08,1.02h2.2c-0.03-0.21-0.04-0.35-0.06-0.57
		C343.95,34.7,343.94,34.51,343.91,32.84z"/>
	<path class="st2" d="M354.96,27.6c-0.79,0-1.83,0.2-2.47,1.44c-0.15-0.37-0.66-1.45-2.43-1.45c-1.55,0-2.14,0.82-2.39,1.16
		l-0.07-0.99h-2.19c0.05,0.49,0.08,0.96,0.08,1.45v6.27h2.28v-4.54c0-0.52,0-1.74,1.42-1.74c1.25,0,1.27,1.1,1.27,1.7v4.59h2.28
		V31.6c0-1.15,0.03-2.42,1.39-2.42c1.18,0,1.3,0.92,1.3,1.74v4.54h2.28v-4.36c0-0.67,0.03-1.6-0.38-2.28
		C357.15,28.53,356.52,27.6,354.96,27.6z"/>
	<path class="st2" d="M363.98,27.54c-1.68,0-2.29,0.99-2.51,1.35l-0.06-1.16h-2.17c0.04,0.54,0.04,1.38,0.04,1.41v6.34h2.28v-4.53
		c0-0.6,0.14-0.98,0.27-1.18c0.24-0.37,0.69-0.6,1.18-0.6c0.58,0,0.93,0.32,1.1,0.66c0.12,0.24,0.12,0.52,0.12,0.84v4.8h2.31V31.3
		c0-1.44-0.05-1.83-0.21-2.31C366.13,28.45,365.49,27.54,363.98,27.54z"/>
	<rect x="367.91" y="24.43" class="st2" width="2.42" height="1.97"/>
	<rect x="367.98" y="27.74" class="st2" width="2.26" height="7.73"/>
	<rect x="315.42" y="18.72" class="st2" width="0.28" height="23.83"/>
	<path class="st2" d="M233.31,37.87c0,0.48-0.34,0.92-1,0.92c-0.69,0-1.03-0.42-1.03-0.9V20.5h-1.18v16.89
		c0,1.03,0.56,1.89,2.21,1.89c1.66,0,2.19-0.81,2.19-1.82V20.5h-1.18L233.31,37.87L233.31,37.87z"/>
	<path class="st2" d="M239.16,20.39c-2.11,0-2.27,1.12-2.27,2.26v14.8c0,1.01,0.61,1.82,2.27,1.82c1.66,0,2.19-0.85,2.19-1.89v-4.24
		h-1.18v4.74c0,0.48-0.32,0.88-1,0.9c-0.66,0-1.08-0.44-1.08-0.92V22.03c0-0.57,0.16-1.21,1.08-1.21c0.95,0.02,1,0.66,1,1.21v4.11
		h1.18v-3.51C241.35,21.51,241.22,20.39,239.16,20.39z"/>
	<path class="st2" d="M249.5,20.39c-2.06,0-2.21,1.12-2.21,2.24v0.9c0,0.79,0,1.27,0.16,2.04c0.16,0.79,0.29,1.25,0.69,1.98
		l1.16,2.22c0.45,0.83,0.74,1.32,0.98,2.22c0.16,0.59,0.29,0.95,0.29,1.56v4.06c0,0.55-0.05,1.21-1.03,1.23
		c-0.9,0-1.08-0.64-1.08-1.23v-4.47h-1.16v3.87c0,1.14,0.16,2.26,2.27,2.26c2.06-0.02,2.19-1.12,2.19-2.24V33.5
		c0-0.97-0.16-1.34-0.42-2.17c-0.24-0.79-0.66-1.49-0.9-2l-1.11-2.11c-0.37-0.7-0.53-1.14-0.69-1.87c-0.16-0.81-0.18-1.32-0.18-2.11
		c0-0.04,0-0.07,0-0.11v-1.1c0-0.55,0.1-1.19,1.08-1.21c0.9,0,1.03,0.64,1.03,1.21v4.07h1.18v-3.45
		C251.74,21.53,251.61,20.39,249.5,20.39z"/>
	<path class="st2" d="M256.46,20.39c-2.11,0-2.27,1.12-2.27,2.26v16.5h1.18v-9.58h2.08v9.58h1.16V22.63
		C258.62,21.51,258.51,20.39,256.46,20.39z M257.46,28.82h-2.08v-6.79c0-0.57,0.16-1.21,1.05-1.21c0.98,0.02,1.03,0.66,1.03,1.21
		V28.82z"/>
	<polygon class="st2" points="264.44,31.76 262.23,20.47 261.18,20.47 261.18,39.15 262.34,39.15 262.34,25.57 264.44,35.59 
		264.44,39.15 265.61,39.15 265.61,20.47 264.44,20.47 	"/>
	<polygon class="st2" points="267.58,21.18 269.27,21.18 269.27,39.15 270.45,39.15 270.45,21.18 272.19,21.18 272.19,20.5 
		267.58,20.5 	"/>
	<path class="st2" d="M276.47,20.39c-2.11,0-2.27,1.12-2.27,2.26v16.5h1.18v-9.58h2.08v9.58h1.16V22.63
		C278.63,21.51,278.52,20.39,276.47,20.39z M277.47,28.82h-2.08v-6.79c0-0.57,0.16-1.21,1.05-1.21c0.97,0.02,1.03,0.66,1.03,1.21
		L277.47,28.82L277.47,28.82z"/>
	<path class="st2" d="M287.01,20.39c-2.11,0-2.27,1.12-2.27,2.26v14.8c0,1.01,0.61,1.82,2.27,1.82c1.66,0,2.19-0.85,2.19-1.89v-4.24
		h-1.18v4.74c0,0.48-0.32,0.88-1,0.9c-0.66,0-1.08-0.44-1.08-0.92V22.03c0-0.57,0.16-1.21,1.08-1.21c0.95,0.02,1,0.66,1,1.21v4.11
		h1.18v-3.51C289.2,21.51,289.07,20.39,287.01,20.39z"/>
	<path class="st2" d="M295.68,20.98c-0.55-0.42-1.42-0.46-1.74-0.46c-0.08,0-0.13,0-0.13,0h-1.98v18.63h1.18v-9.6h0.53
		c0.45,0,0.71,0.07,1.08,0.33c0.37,0.24,0.45,0.81,0.45,1.36v7.91h1.18v-7.62c0-0.11,0-0.22,0-0.33c0-0.51-0.03-0.95-0.45-1.38
		c-0.24-0.28-0.76-0.57-0.82-0.59c0.05-0.02,0.71-0.35,0.98-0.7c0.24-0.31,0.29-0.55,0.29-0.9v-4.83c0-0.05,0-0.11,0-0.15
		C296.26,21.97,296.26,21.4,295.68,20.98z M295.07,27.24c0,0.51-0.11,1.1-0.29,1.3c-0.21,0.26-0.71,0.48-1.21,0.48h-0.55v-8h0.71
		c0.34,0,0.66,0.09,0.87,0.18c0.39,0.18,0.48,0.53,0.48,1.05L295.07,27.24L295.07,27.24z"/>
	<path class="st2" d="M301.88,37.87c0,0.48-0.34,0.92-1,0.92c-0.69,0-1.03-0.42-1.03-0.9V20.5h-1.18v16.89
		c0,1.03,0.55,1.89,2.21,1.89c1.66,0,2.19-0.81,2.19-1.82V20.5h-1.18L301.88,37.87L301.88,37.87z"/>
	<polygon class="st2" points="309.68,20.47 305.67,20.47 305.67,21.18 308.23,21.18 305.46,39.15 309.84,39.15 309.84,38.38 
		306.91,38.38 	"/>
</g>
</svg>
