<?xml version="1.0" encoding="utf-8"?>
<!-- Generator: Adobe Illustrator 27.2.0, SVG Export Plug-In . SVG Version: 6.00 Build 0)  -->
<svg version="1.1" id="Layer_1" xmlns="http://www.w3.org/2000/svg" xmlns:xlink="http://www.w3.org/1999/xlink" x="0px" y="0px"
	 viewBox="0 0 1152 600" style="enable-background:new 0 0 1152 600;" xml:space="preserve">
<style type="text/css">
	.st0{fill:#173E6B;}
	.st1{fill:#FDC700;}
	.st2{fill:#FFFFFF;}
</style>
<g>
	<rect x="-3.16" y="-3.86" class="st0" width="1158.25" height="605.68"/>
	<path class="st0" d="M1154.58-3.36v604.68H-2.66V-3.36H1154.58 M1155.58-4.36h-1H-2.66h-1v1v604.68v1h1h1157.25h1v-1V-3.36V-4.36
		L1155.58-4.36z"/>
</g>
<g>
	<path class="st1" d="M389.04,337.11c0.88,0,1.57-0.13,2.08-0.38c0.5-0.25,1.01-0.5,1.51-0.76v4.15c-0.76,0.63-1.7,1.23-2.83,1.79
		c-1.13,0.57-2.64,0.85-4.53,0.85c-1.64,0-3.27-0.32-4.91-0.94c-1.64-0.63-3.15-1.63-4.53-3.02c-1.39-1.38-2.55-3.18-3.49-5.38
		c-0.94-2.2-1.48-4.94-1.6-8.21v-30.96c0-2.77-0.38-5-1.13-6.7c-0.76-1.7-1.73-2.99-2.93-3.87c-1.2-0.88-2.49-1.48-3.87-1.79
		c-1.39-0.31-2.64-0.53-3.77-0.66h-7.74v49.46c0,1.76,0.25,3.05,0.76,3.87c0.5,0.82,1.01,1.29,1.51,1.42c0.76,0.38,1.57,0.38,2.45,0
		v4.91h-22.65v-4.91c0.88,0.38,1.63,0.38,2.27,0c0.63-0.12,1.23-0.6,1.79-1.42c0.56-0.82,0.85-2.11,0.85-3.87V215.92
		c0-1.76-0.28-3.08-0.85-3.96c-0.57-0.88-1.17-1.45-1.79-1.7c-0.63-0.12-1.39-0.12-2.27,0v-4.53h27c4.65,0,8.78,0.79,12.36,2.36
		c3.59,1.58,6.57,3.62,8.97,6.14c2.39,2.52,4.18,5.41,5.38,8.68c1.19,3.27,1.79,6.67,1.79,10.19v20.57c0,4.91-1.26,9.69-3.77,14.35
		c-2.52,4.66-6.42,8.12-11.7,10.38c7.17,2.9,10.76,8.43,10.76,16.61v30.2c0,3.27,0.22,6.07,0.66,8.4
		C385.23,335.95,386.65,337.11,389.04,337.11z M351.29,210.45v65.5h10.19c1.13,0,2.48-0.34,4.06-1.04c1.57-0.69,3.08-1.76,4.53-3.21
		c1.45-1.45,2.7-3.33,3.77-5.66c1.07-2.33,1.61-5.13,1.61-8.4v-28.69c0-3.14-0.54-5.88-1.61-8.21c-1.07-2.33-2.33-4.25-3.77-5.76
		c-1.45-1.51-2.96-2.64-4.53-3.4c-1.58-0.76-2.93-1.13-4.06-1.13H351.29z"/>
	<path class="st1" d="M462.47,321.07v19.82H409.8v-4.91c1.01,0.38,1.76,0.38,2.27,0c0.63-0.12,1.23-0.6,1.79-1.42
		c0.57-0.82,0.85-2.11,0.85-3.87V216.11c0-1.89-0.28-3.24-0.85-4.06c-0.57-0.82-1.16-1.35-1.79-1.61c-0.5-0.25-1.26-0.25-2.27,0
		v-4.53h52.67v19.82h-4.91c-0.13-2.89-0.5-5.47-1.13-7.74c-0.63-1.89-1.67-3.68-3.12-5.38c-1.45-1.7-3.43-2.55-5.95-2.55h-19.63
		v61.16h13.21c1.63,0,2.89-0.44,3.77-1.32c0.88-0.88,1.51-1.89,1.89-3.02c0.5-1.38,0.75-2.96,0.75-4.72h4.34v23.22h-4.34
		c0-1.76-0.25-3.27-0.75-4.53c-0.38-1.26-1.01-2.36-1.89-3.3c-0.88-0.94-2.14-1.42-3.77-1.42h-13.21v60.22h19.63
		c2.52,0,4.5-0.76,5.95-2.27c1.45-1.51,2.48-3.27,3.12-5.29c0.63-2.26,1.01-4.84,1.13-7.74H462.47z"/>
	<path class="st1" d="M500.83,205.92v4.53c-0.88-0.25-1.64-0.25-2.26,0c-0.63,0.25-1.2,0.79-1.7,1.61c-0.5,0.82-0.76,2.17-0.76,4.06
		c0,0.13,0,2.39,0,6.8c0,4.41,0,9.94,0,16.61c0,6.67,0.03,14,0.09,21.99c0.06,7.99,0.09,15.51,0.09,22.56c0,7.05,0,13.12,0,18.22
		c0,5.1,0,8.21,0,9.34c0,9.69,1.04,16.55,3.11,20.58c2.08,4.03,5.13,6.04,9.16,6.04h0.19h0.19c3.77,0,6.76-2.01,8.97-6.04
		c2.2-4.03,3.3-10.88,3.3-20.58v-14.72c0-3.02,0-6.23,0-9.63v-71.16c0-1.89-0.22-3.24-0.66-4.06c-0.44-0.82-0.98-1.35-1.61-1.61
		c-0.76-0.25-1.57-0.25-2.45,0v-4.53h22.46v4.53c-0.75-0.25-1.51-0.25-2.26,0c-0.63,0.25-1.17,0.79-1.61,1.61
		c-0.44,0.82-0.66,2.17-0.66,4.06v100.61c0,4.03-0.79,7.65-2.36,10.85c-1.58,3.21-3.62,5.95-6.14,8.21
		c-2.52,2.26-5.29,3.96-8.31,5.1c-3.02,1.13-5.98,1.7-8.87,1.7c-3.02,0-6.04-0.57-9.06-1.7c-3.02-1.13-5.76-2.83-8.21-5.1
		c-2.45-2.27-4.41-4.97-5.85-8.12c-1.45-3.14-2.17-6.73-2.17-10.76c0-0.5,0-2.29,0-5.38c0-3.08,0-7.05,0-11.89
		c0-4.84,0-10.22,0-16.14c0-5.91-0.03-11.95-0.09-18.12c-0.06-6.16-0.09-12.2-0.09-18.12c0-5.91,0-11.2,0-15.86
		c0-4.65,0-8.34,0-11.04c0-2.7,0-4.12,0-4.25c0-1.89-0.28-3.24-0.85-4.06c-0.56-0.82-1.16-1.35-1.79-1.61
		c-0.5-0.25-1.26-0.25-2.27,0v-4.53H500.83z"/>
	<path class="st1" d="M601.63,206.11h16.61v4.72c-1.13-0.25-2.08-0.25-2.83,0c-0.63,0.25-1.23,0.79-1.79,1.61
		c-0.57,0.82-0.85,2.11-0.85,3.87v124.59h-15.86l-31.34-108.35v98.16c0,1.76,0.28,3.02,0.85,3.77c0.57,0.76,1.16,1.26,1.79,1.51
		c0.76,0.25,1.7,0.25,2.83,0v4.91h-16.61v-4.91c1.01,0.25,1.89,0.25,2.64,0c0.63-0.25,1.26-0.76,1.89-1.51
		c0.63-0.76,0.94-2.01,0.94-3.77V216.3c0-1.76-0.32-3.05-0.94-3.87c-0.63-0.82-1.26-1.35-1.89-1.61c-0.76-0.25-1.64-0.25-2.64,0
		v-4.72h19.26l33.41,114.77V216.3c0-1.76-0.32-3.05-0.94-3.87c-0.63-0.82-1.26-1.35-1.89-1.61c-0.76-0.25-1.64-0.25-2.64,0V206.11z"
		/>
	<path class="st1" d="M738.64,273.69c0,8.18,0,15.29,0,21.33s-0.16,11.3-0.47,15.76c-0.31,4.47-0.88,8.24-1.7,11.33
		c-0.82,3.08-2.05,5.82-3.68,8.21c-2.52,3.77-5.73,6.64-9.63,8.59c-3.9,1.95-7.87,2.93-11.89,2.93c-3.9,0-7.83-0.97-11.8-2.93
		c-3.96-1.95-7.2-4.81-9.72-8.59c-1.64-2.39-2.86-5.13-3.68-8.21c-0.82-3.08-1.39-6.86-1.7-11.33c-0.32-4.46-0.47-9.72-0.47-15.76
		s0-13.15,0-21.33c0-10.95,0.06-20.04,0.19-27.28c0.12-7.24,0.69-13.24,1.7-18.03c0.5-4.03,1.76-7.58,3.77-10.67
		c2.01-3.08,4.46-5.57,7.36-7.46c4.65-2.89,9.44-4.34,14.35-4.34c2.39,0,4.84,0.38,7.36,1.13c2.52,0.75,4.84,1.82,6.98,3.21
		c2.89,1.89,5.38,4.37,7.45,7.46c2.08,3.08,3.3,6.64,3.68,10.67c0.88,4.78,1.41,10.79,1.6,18.03
		C738.54,253.65,738.64,262.74,738.64,273.69z M725.62,315.78c0-5.29,0-11.64,0-19.06c0-7.42,0.06-15.1,0.19-23.03
		c-0.13-7.8-0.19-15.38-0.19-22.75s0-13.69,0-18.97c0-7.93-1.39-13.46-4.15-16.61c-2.77-3.14-6.17-4.72-10.19-4.72
		c-4.03,0-7.43,1.57-10.19,4.72c-2.77,3.15-4.15,8.68-4.15,16.61v41.72v42.09c0,7.93,1.23,13.56,3.68,16.89
		c2.45,3.34,6.07,5,10.85,5c4.78,0,8.34-1.67,10.67-5C724.45,329.34,725.62,323.71,725.62,315.78z"/>
	<path class="st1" d="M802.44,206.11h16.61v4.72c-1.13-0.25-2.08-0.25-2.83,0c-0.63,0.25-1.23,0.79-1.79,1.61
		c-0.57,0.82-0.85,2.11-0.85,3.87v124.59h-15.86l-31.34-108.35v98.16c0,1.76,0.28,3.02,0.85,3.77c0.57,0.76,1.16,1.26,1.79,1.51
		c0.76,0.25,1.7,0.25,2.83,0v4.91h-16.61v-4.91c1.01,0.25,1.89,0.25,2.64,0c0.63-0.25,1.26-0.76,1.89-1.51
		c0.63-0.76,0.94-2.01,0.94-3.77V216.3c0-1.76-0.32-3.05-0.94-3.87c-0.63-0.82-1.26-1.35-1.89-1.61c-0.76-0.25-1.64-0.25-2.64,0
		v-4.72h19.26l33.41,114.77V216.3c0-1.76-0.32-3.05-0.94-3.87c-0.63-0.82-1.26-1.35-1.89-1.61c-0.76-0.25-1.64-0.25-2.64,0V206.11z"
		/>
	<path class="st1" d="M672.48,274.28c-6.18,0-11.58-3.32-14.56-8.27c3.56,2.35,7.81,3.73,12.38,3.73v-7.5
		c-5.9,0-11.01-3.43-13.46-8.4c3.22,2.19,7.11,3.47,11.28,3.47v-7.1c-5.56,0-10.31-3.51-12.18-8.42c2.85,1.95,6.3,3.09,10,3.09
		v-6.71c-4.78,0-8.83-3.07-10.37-7.33l-0.02-0.79c2.38,1.51,5.19,2.39,8.21,2.39v-6.31c-3.85,0-7.13-2.42-8.45-5.81l-0.05-1.95
		c1.87,1.04,4.03,1.65,6.32,1.65v-5.92c-3.92,0-7.1-3.19-7.1-7.1h-5.92c0,3.92-3.19,7.1-7.1,7.1v5.92c2.29,0,4.45-0.6,6.32-1.65
		l-0.05,1.95c-1.32,3.39-4.6,5.82-8.45,5.82v6.31c3.02,0,5.83-0.89,8.21-2.39l-0.02,0.78c-1.54,4.26-5.58,7.33-10.37,7.33v6.71
		c3.71,0,7.15-1.14,10-3.09c-1.87,4.91-6.62,8.42-12.18,8.42v7.1c4.18,0,8.06-1.28,11.28-3.47c-2.45,4.97-7.56,8.4-13.46,8.4v7.5
		c4.57,0,8.83-1.38,12.38-3.73c-2.98,4.94-8.38,8.27-14.56,8.27v7.89c5.98,0,11.48-2.12,15.77-5.65l-1.34,54.18
		c0,1.76-0.28,3.05-0.85,3.87c-0.57,0.82-1.04,1.29-1.42,1.42c-0.76,0.38-1.64,0.38-2.64,0v4.91h22.84v-4.91
		c-1.01,0.38-1.82,0.38-2.45,0c-0.5-0.12-1.04-0.6-1.61-1.42c-0.57-0.82-0.85-2.11-0.85-3.87l-1.34-54.18
		c4.3,3.53,9.79,5.65,15.77,5.65V274.28z"/>
</g>
<g>
	<path class="st1" d="M433.3,368.08l-14.21,37.95h-7.64l-10.78-29.25l-10.72,29.25h-7.52l-14.09-37.95h8.25l9.66,29.03l10.05-29.03
		h8.82l10.11,29.14l9.83-29.14H433.3z"/>
	<path class="st1" d="M489.15,399.3v6.57h-36.44v-37.79h36.16v6.51h-28.92v9.09h23.19v5.73h-23.19v9.88H489.15z"/>
	<path class="st1" d="M545.62,399.3v6.57h-36.44v-37.79h36.16v6.51h-28.92v9.09h23.19v5.73h-23.19v9.88H545.62z"/>
	<path class="st1" d="M582.83,387.28l-9.94,8.42v10.16h-7.24v-37.79h7.24v19.2l23.36-19.15h9.15l-17.01,14.43l17.07,23.3h-9.04
		L582.83,387.28z"/>
	<path class="st1" d="M660.74,399.3v6.57H624.3v-37.79h36.16v6.51h-28.92v9.09h23.19v5.73h-23.19v9.88H660.74z"/>
	<path class="st1" d="M719.18,368.08v37.79h-7.24L687.9,378.3v27.57h-7.13v-37.79h7.24l24.03,27.51v-27.51H719.18z"/>
	<path class="st1" d="M784.07,385.99v1.91c0,12.75-7.92,17.97-21.28,17.97h-20.49v-37.79h20.49
		C776.15,368.08,784.07,373.58,784.07,385.99z M776.77,385.94c0-8.09-5.05-11.17-13.98-11.17h-13.25v24.42h13.25
		c8.93,0,13.98-2.86,13.98-11.23V385.94z"/>
</g>
<g>
	<g>
		<path class="st2" d="M455.81,465.1h-8.57l-1.79,9.2h-2.94l6.94-34.74h4.15l6.88,34.74h-2.94L455.81,465.1z M455.29,462.47
			l-3.78-19.76l-3.78,19.76H455.29z"/>
		<path class="st2" d="M480.4,451.07c0,8.35-3.15,12.35-9.62,12.35h-2.73v10.88h-2.89v-34.68h5.62
			C477.46,439.62,480.4,442.77,480.4,451.07z M477.46,451.13c0-6.15-1.89-8.78-6.62-8.78h-2.78v18.5h2.78
			C475.57,460.85,477.46,457.22,477.46,451.13z"/>
		<path class="st2" d="M494.96,461.84l4.41,12.46h-3.1l-3.99-11.56c-1,0.21-2.1,0.32-3.31,0.32h-1.63v11.24h-2.94v-34.68h5.62
			c6.67,0,9.67,3.15,9.67,11.46C499.68,456.59,498.27,460.11,494.96,461.84z M489.28,460.48c5.52,0,7.41-3.52,7.41-9.41
			c0-6.15-1.89-8.72-6.62-8.72h-2.73v18.13H489.28z"/>
		<path class="st2" d="M504.67,439.62h2.89v34.68h-2.89V439.62z"/>
		<path class="st2" d="M527.9,471.51v2.79h-12.98v-34.68h2.89v31.9H527.9z"/>
		<path class="st2" d="M544.34,439.62v34.68h-2.89v-32l-1.89,0.95l-0.63-2.36l2.84-1.26H544.34z"/>
		<path class="st2" d="M565.51,468.15h-2.47v6.15h-2.89v-6.15H549.8l0.05-2.36l8.51-26.17h3.05l-8.57,25.91h7.31v-6.73h2.89v6.73
			h2.47V468.15z"/>
		<path class="st2" d="M569.45,459.9v-2.26h15.87v2.26H569.45z"/>
		<path class="st2" d="M595.09,439.62v34.68h-2.89v-32l-1.89,0.95l-0.63-2.36l2.84-1.26H595.09z"/>
		<path class="st2" d="M616.37,464.47c0,7.2-2.68,10.41-7.88,10.41c-4.36,0-7.36-2.89-7.2-10.67l2.68-0.32
			c-0.21,5.62,1.52,8.3,4.57,8.3c3.36,0,4.94-2.57,4.94-7.73c0-4.68-1.84-7.15-6.46-7.15h-4.47v-17.71h13.14v2.73h-10.25v12.56h2.47
			C613.8,454.91,616.37,458.27,616.37,464.47z"/>
		<path class="st2" d="M623.62,475.88c0,4.99-1.63,6.88-4.36,6.52l0.21-1.94c1.68,0.21,2.31-1.16,2.31-4.15c0-0.58,0-1.1-0.05-1.63
			c-0.21,0.16-0.47,0.21-0.74,0.21c-1.21,0-1.73-1.05-1.73-2.63c0-1.73,0.79-2.63,1.94-2.63
			C622.72,469.62,623.62,471.72,623.62,475.88z"/>
		<path class="st2" d="M649.94,471.57v2.73h-15.03v-2.42l7.15-13.51c2.26-4.2,3.57-8.04,3.57-11.14c0-3.31-1.21-5.52-4.15-5.52
			c-2.84,0-4.57,1.94-5.41,5.83l-2.52-0.84c1.37-5.2,3.99-7.72,8.2-7.72c4.36,0,6.88,2.89,6.88,8.04c0,3.73-1.42,7.67-4.2,12.93
			l-6.15,11.61H649.94z"/>
		<path class="st2" d="M654.09,463.68v-13.56c0-7.57,3.26-11.19,8.72-11.19c5.41,0,8.67,3.63,8.67,11.19v13.56
			c0,7.62-3.26,11.3-8.67,11.3C657.35,474.98,654.09,471.3,654.09,463.68z M668.49,463.84v-13.77c0-5.41-1.89-8.46-5.68-8.46
			c-3.78,0-5.73,3.05-5.73,8.46v13.77c0,5.31,1.94,8.41,5.73,8.41C666.6,472.25,668.49,469.15,668.49,463.84z"/>
		<path class="st2" d="M691.4,471.57v2.73h-15.03v-2.42l7.15-13.51c2.26-4.2,3.57-8.04,3.57-11.14c0-3.31-1.21-5.52-4.15-5.52
			c-2.84,0-4.57,1.94-5.41,5.83l-2.52-0.84c1.37-5.2,3.99-7.72,8.2-7.72c4.36,0,6.88,2.89,6.88,8.04c0,3.73-1.42,7.67-4.2,12.93
			l-6.15,11.61H691.4z"/>
		<path class="st2" d="M709.89,464.47c0,7.2-2.84,10.41-8.04,10.41c-4.26,0-7.2-2.68-7.41-9.88l2.68-0.32
			c0.16,5.04,1.84,7.52,4.83,7.52c3.36,0,5.04-2.79,5.04-7.83c0-4.1-2.21-6.73-5.68-6.73h-2v-2.52h2c2.73,0,4.99-2.47,4.99-7.78
			c0-3.41-1.26-5.62-4.15-5.62c-2.73,0-4.42,1.94-5.25,5.83l-2.52-0.74c1.26-5.31,3.94-7.83,7.99-7.83c4.36,0,6.88,2.89,6.88,8.04
			c0,4.99-1.94,8.36-4.83,9.2C707.63,456.85,709.89,459.95,709.89,464.47z"/>
	</g>
</g>
<g>
	<path class="st2" d="M644.24,132.22l-10.64,29.47h6.03l2.2-6.36h11.66l2.12,6.36h6.36l-10.23-29.47H644.24z M643.46,150.56
		l4.36-12.55l4.08,12.55H643.46z"/>
	<rect x="663.84" y="132.22" class="st2" width="6.03" height="29.47"/>
	<path class="st2" d="M692.74,154.68v-13.57h-6.2v10.39c0,3.51,0,6.4-3.87,6.4c-3.22,0-3.22-2.73-3.22-4.52v-12.27h-6.11v12.8
		c0,1.02,0,3.87,1.34,5.54c1.14,1.51,3.42,2.77,6.2,2.77c3.91,0,5.46-2.36,6.07-3.26l0.2,2.73h5.87c-0.08-0.57-0.12-0.94-0.16-1.51
		C692.86,159.65,692.82,159.12,692.74,154.68z"/>
	<path class="st2" d="M722.21,140.7c-2.12,0-4.89,0.53-6.6,3.83c-0.41-0.98-1.75-3.87-6.48-3.87c-4.12,0-5.71,2.2-6.36,3.1
		l-0.2-2.65h-5.83c0.12,1.3,0.2,2.57,0.2,3.87v16.71h6.07v-12.11c0-1.39,0-4.65,3.79-4.65c3.34,0,3.38,2.93,3.38,4.52v12.23h6.07
		v-10.31c0-3.06,0.08-6.44,3.71-6.44c3.14,0,3.46,2.45,3.46,4.65v12.11h6.07v-11.62c0-1.79,0.08-4.28-1.02-6.07
		C728.04,143.19,726.36,140.7,722.21,140.7z"/>
	<path class="st2" d="M746.25,140.54c-4.48,0-6.11,2.65-6.69,3.59l-0.16-3.1h-5.79c0.12,1.43,0.12,3.67,0.12,3.75v16.92h6.07v-12.07
		c0-1.59,0.37-2.61,0.73-3.14c0.65-0.98,1.83-1.59,3.14-1.59c1.55,0,2.49,0.86,2.93,1.75c0.33,0.65,0.33,1.39,0.33,2.24v12.8h6.15
		v-11.13c0-3.83-0.12-4.89-0.57-6.15C752,142.98,750.29,140.54,746.25,140.54z"/>
	<rect x="756.73" y="132.26" class="st2" width="6.44" height="5.26"/>
	<rect x="756.93" y="141.07" class="st2" width="6.03" height="20.62"/>
	<rect x="616.78" y="117.03" class="st2" width="0.74" height="63.55"/>
	<path class="st2" d="M397.82,168.1c0,1.29-0.91,2.46-2.67,2.46c-1.83,0-2.74-1.11-2.74-2.4v-46.39h-3.16v45.05
		c0,2.75,1.48,5.04,5.9,5.04c4.43,0,5.83-2.17,5.83-4.86v-45.22h-3.16V168.1z"/>
	<path class="st2" d="M413.42,121.47c-5.62,0-6.05,2.99-6.05,6.03v39.48c0,2.69,1.62,4.86,6.05,4.86c4.43,0,5.83-2.28,5.83-5.04
		V155.5h-3.16v12.65c0,1.29-0.84,2.34-2.67,2.4c-1.76,0-2.88-1.17-2.88-2.46v-42.23c0-1.52,0.42-3.22,2.88-3.22
		c2.53,0.06,2.67,1.76,2.67,3.22v10.95h3.16v-9.37C419.26,124.46,418.91,121.47,413.42,121.47z"/>
	<path class="st2" d="M440.98,121.47c-5.48,0-5.9,2.99-5.9,5.98v2.4c0,2.11,0,3.4,0.42,5.45c0.42,2.11,0.77,3.34,1.83,5.27
		l3.09,5.92c1.19,2.22,1.97,3.51,2.6,5.92c0.42,1.58,0.77,2.52,0.77,4.16v10.84c0,1.46-0.14,3.22-2.74,3.28
		c-2.39,0-2.88-1.7-2.88-3.28V155.5h-3.09v10.31c0,3.05,0.42,6.03,6.05,6.03c5.48-0.06,5.83-2.99,5.83-5.97v-9.43
		c0-2.58-0.42-3.57-1.12-5.8c-0.63-2.11-1.76-3.98-2.39-5.33l-2.95-5.62c-0.98-1.87-1.41-3.05-1.83-4.98
		c-0.42-2.17-0.49-3.51-0.49-5.62c0-0.12,0-0.18,0-0.29v-2.93c0-1.47,0.28-3.16,2.88-3.22c2.39,0,2.74,1.7,2.74,3.22v10.84h3.16
		v-9.2C446.95,124.52,446.6,121.47,440.98,121.47z"/>
	<path class="st2" d="M459.53,121.47c-5.62,0-6.05,2.99-6.05,6.03v43.99h3.16v-25.54h5.55v25.54h3.09v-44.05
		C465.3,124.46,465.02,121.47,459.53,121.47z M462.2,143.96h-5.55v-18.1c0-1.52,0.42-3.22,2.81-3.22c2.6,0.06,2.74,1.76,2.74,3.22
		V143.96z"/>
	<polygon class="st2" points="480.83,151.81 474.93,121.7 472.12,121.7 472.12,171.5 475.21,171.5 475.21,135.29 480.83,162.01 
		480.83,171.5 483.93,171.5 483.93,121.7 480.83,121.7 	"/>
	<polygon class="st2" points="489.2,123.58 493.7,123.58 493.7,171.5 496.86,171.5 496.86,123.58 501.5,123.58 501.5,121.76 
		489.2,121.76 	"/>
	<path class="st2" d="M512.89,121.47c-5.62,0-6.05,2.99-6.05,6.03v43.99H510v-25.54h5.55v25.54h3.09v-44.05
		C518.65,124.46,518.37,121.47,512.89,121.47z M515.56,143.96H510v-18.1c0-1.52,0.42-3.22,2.81-3.22c2.6,0.06,2.74,1.76,2.74,3.22
		V143.96z"/>
	<path class="st2" d="M541,121.47c-5.63,0-6.05,2.99-6.05,6.03v39.48c0,2.69,1.62,4.86,6.05,4.86c4.43,0,5.83-2.28,5.83-5.04V155.5
		h-3.16v12.65c0,1.29-0.84,2.34-2.67,2.4c-1.76,0-2.88-1.17-2.88-2.46v-42.23c0-1.52,0.42-3.22,2.88-3.22
		c2.53,0.06,2.67,1.76,2.67,3.22v10.95h3.16v-9.37C546.84,124.46,546.49,121.47,541,121.47z"/>
	<path class="st2" d="M564.13,123.05c-1.48-1.11-3.8-1.23-4.64-1.23c-0.21,0-0.35,0-0.35,0h-5.27v49.67h3.16v-25.6h1.41
		c1.19,0,1.9,0.18,2.88,0.88c0.98,0.64,1.2,2.17,1.2,3.63v21.09h3.16v-20.33c0-0.29,0-0.59,0-0.88c0-1.35-0.07-2.52-1.2-3.69
		c-0.63-0.76-2.04-1.52-2.18-1.58c0.14-0.06,1.9-0.94,2.6-1.87c0.63-0.82,0.77-1.46,0.77-2.4v-12.89c0-0.12,0-0.29,0-0.41
		C565.68,125.69,565.68,124.16,564.13,123.05z M562.51,139.75c0,1.35-0.28,2.93-0.77,3.46c-0.56,0.7-1.9,1.29-3.23,1.29h-1.48
		v-21.32h1.9c0.91,0,1.76,0.23,2.32,0.47c1.05,0.47,1.27,1.41,1.27,2.81V139.75z"/>
	<path class="st2" d="M580.65,168.1c0,1.29-0.91,2.46-2.67,2.46c-1.83,0-2.74-1.11-2.74-2.4v-46.39h-3.16v45.05
		c0,2.75,1.48,5.04,5.9,5.04c4.43,0,5.83-2.17,5.83-4.86v-45.22h-3.16V168.1z"/>
	<polygon class="st2" points="601.46,121.7 590.77,121.7 590.77,123.58 597.59,123.58 590.21,171.5 601.88,171.5 601.88,169.45 
		594.07,169.45 	"/>
</g>
</svg>
