<svg id="Layer_1" xmlns="http://www.w3.org/2000/svg" xmlns:xlink="http://www.w3.org/1999/xlink" viewBox="0 0 5000 3000"><style>.st0{fill:url(#SVGID_1_)}.st1{fill:#ff7900}.st2{fill:url(#SVGID_2_)}.st3{fill:#004834}.st4{clip-path:url(#SVGID_4_);fill:url(#SVGID_5_)}.st5{fill:#d3cc9c}.st6{clip-path:url(#SVGID_7_);fill:url(#SVGID_8_)}.st7{clip-path:url(#SVGID_10_);fill:url(#SVGID_11_)}.st8{clip-path:url(#SVGID_13_);fill:#ccc6c0}.st9{opacity:.4}.st10{stroke:#262626}.st10,.st11{fill:none;stroke-miterlimit:10}.st11{stroke:#232323;stroke-width:2}.st12{stroke:#494948;stroke-width:.75}.st12,.st13{fill:none;stroke-miterlimit:10}.st13{stroke:#484949}</style><g id="background"><radialGradient id="SVGID_1_" cx="3350.351" cy="-2098.683" r="3020.581" fx="2955.476" fy="-2098.683" gradientTransform="matrix(0 1 2.596 0 7892.422 -635.536)" gradientUnits="userSpaceOnUse"><stop offset="0" stop-color="#ff772a"/><stop offset="1" stop-color="#1083c9"/></radialGradient><path class="st0" d="M0 0h5000v3000H0V0z"/></g><g id="sun__x26__clouds"><circle class="st1" cx="2550.3" cy="1975" r="156.4"/><g id="Layer_9"><radialGradient id="SVGID_2_" cx="3453.988" cy="-1282.701" r="854.808" gradientTransform="matrix(.0016 1 2.0008 -.0032 5112.63 -1830.227)" gradientUnits="userSpaceOnUse"><stop offset="0" stop-color="#ff772a"/><stop offset="1" stop-color="#6496af"/></radialGradient><path class="st2" d="M1.1 1912.9h5000.2v1083.3H1.1V1912.9z"/></g></g><g id="ground"><path class="st3" d="M1709.4 1974.9c-15.9 0-30.5 5.1-41.7 13.4-7.2-9.4-19.5-15.6-33.5-15.6-8.7 0-16.7 2.4-23.3 6.4-9.4-16.7-29.1-28.2-51.9-28.2-31.9 0-57.7 22.4-57.7 50.1 0 .9 0 1.9.1 2.8-4.5-1.8-9.6-2.8-15-2.8-1.7 0-3.3.1-4.9.3 1-2.8 1.6-5.7 1.6-8.7 0-16.2-15.8-29.3-35.2-29.3-14.8 0-27.4 7.6-32.6 18.3-6.8-.8-13.9-1.2-21.2-1.2-20.4 0-39.3 3.3-54.8 9-10.2-10.1-24.9-16.5-41.2-16.5-10.7 0-20.8 2.8-29.3 7.5-4.4-1-8.9-1.5-13.6-1.5-17.2 0-32.6 7.1-42.8 18.1-11.4-14-29.8-23.1-50.5-23.1-26.6 0-49.2 14.9-58.3 35.9-9.8-8.6-23.2-14-38-14-14.7 0-28 5.2-37.8 13.8-8.8-5.6-19.6-8.8-31.1-8.8-10.1 0-19.5 2.5-27.7 6.8-14.9-19.3-39.7-32-67.8-32-31.1 0-58.2 15.6-72.3 38.5-10.3-5.9-22.5-9.3-35.6-9.3-23.3 0-43.8 10.9-55.6 27.3-9.6-4.9-20.6-7.6-32.4-7.6-5.1 0-10 .5-14.7 1.5-12.2-12.9-30.3-21.2-50.6-21.2-30.2 0-55.6 18.2-63.6 43-6.3-1.8-13.1-2.8-20.1-2.8-16.2 0-31.1 5.3-42.6 14-8.8-11.4-23.5-18.8-40.1-18.8-10.5 0-20.2 3-28.1 8.1-13.9-21.9-40-36.7-70-36.7-34.1 0-63.2 19-75 46-7.3-3.6-15.7-5.7-24.6-5.7-9 0-17.5 2.1-24.9 5.8-11.6-8.5-26.4-13.6-42.5-13.6-12.5 0-24.2 3.1-34.2 8.4-12.3-13.5-30.1-21.9-49.7-21.9-25.3 0-47.4 13.9-58.9 34.6-2.8-.4-5.7-.6-8.6-.6-37.3 0-67.5 30.2-67.5 67.5s30.2 67.5 67.5 67.5c25.3 0 47.4-13.9 58.9-34.6 2.8.4 5.7.6 8.6.6 15.4 0 29.7-5.2 41-13.9 11.7 8.7 26.6 13.9 42.9 13.9 21.5 0 40.6-9.1 52.9-23.2 4.6 1.2 9.4 1.9 14.5 1.9 14.5 0 27.7-5.5 37-14.2 14.8 16.4 37.3 26.9 62.6 26.9 30 0 56.1-14.8 70-36.7 8 5.1 17.7 8.1 28.1 8.1 7.1 0 13.9-1.4 20-3.9 9 23.4 33.6 40.2 62.6 40.2 30.2 0 55.6-18.2 63.6-43 6.3 1.8 13.1 2.8 20.1 2.8 5.1 0 10-.5 14.7-1.5 12.2 12.9 30.3 21.2 50.6 21.2 23.3 0 43.8-10.9 55.6-27.3 9.6 4.9 20.6 7.6 32.4 7.6 20.2 0 38.3-8.2 50.4-21 14.8 13 35.1 21 57.4 21 28.1 0 52.9-12.7 67.8-32 8.1 4.3 17.6 6.8 27.7 6.8 14.7 0 28-5.2 37.8-13.8 8.8 5.6 19.6 8.8 31.1 8.8 21.3 0 39.8-11.1 48.7-27.2 11.5 12.1 28.6 19.8 47.6 19.8 21.5 0 40.5-9.8 51.7-24.7 10.2 10.4 25 16.9 41.6 16.9 10.7 0 20.8-2.8 29.3-7.5 4.4 1 8.9 1.5 13.6 1.5 10.3 0 20-2.6 28.3-7 17.4 9 41.3 14.6 67.7 14.6 33.5 0 63-9 80.2-22.5 3.8 1.2 7.9 1.8 12.2 1.8 16.2 0 29.8-9.1 33.9-21.5 10.2 8 23.8 12.9 38.6 12.9 18.6 0 35.2-7.7 45.7-19.6 7.4 6.8 17.8 11.1 29.5 11.1 4.3 0 8.5-.6 12.4-1.7 5.7 25.6 31.6 44.9 62.8 44.9 35.3 0 63.9-24.8 63.9-55.5.2-30.9-28.4-55.7-63.7-55.7z"/><g id="eastfield"><defs><path id="SVGID_3_" d="M0 0h5000v3000H0z"/></defs><clipPath id="SVGID_4_"><use xlink:href="#SVGID_3_" overflow="visible"/></clipPath><linearGradient id="SVGID_5_" gradientUnits="userSpaceOnUse" x1="2698.2" y1="472.554" x2="2698.2" y2="1355.16" gradientTransform="matrix(1 0 0 -1 0 3000)"><stop offset="0" stop-color="#a7b287"/><stop offset="1" stop-color="#707541"/></linearGradient><ellipse class="st4" cx="2698.2" cy="2956.3" rx="5442" ry="946.1"/></g><path id="volley_ball" class="st5" d="M2443.4 2467s663.3-89.3 899.2-89c0 0 536.1-54.9 1034.9 113.5l-351.7 151.2-1613.5-110.4 31.1-65.3z"/><g id="foreground"><defs><path id="SVGID_6_" d="M0 0h5000v3000H0z"/></defs><clipPath id="SVGID_7_"><use xlink:href="#SVGID_6_" overflow="visible"/></clipPath><linearGradient id="SVGID_8_" gradientUnits="userSpaceOnUse" x1="4293.183" y1="-722.157" x2="3916.396" y2="385.349" gradientTransform="matrix(1 0 0 -1 0 3000)"><stop offset="0" stop-color="#929766"/><stop offset="1" stop-color="#7a894c"/></linearGradient><path class="st6" d="M4097.9 2536.5s538.5-114 902.1-84v693.6H3168l-263.9-159.7 419.9-257.9 773.9-192z"/><g><defs><path id="SVGID_9_" d="M0 0h5000v3000H0z"/></defs><clipPath id="SVGID_10_"><use xlink:href="#SVGID_9_" overflow="visible"/></clipPath><linearGradient id="SVGID_11_" gradientUnits="userSpaceOnUse" x1="1911.3" y1="-760.966" x2="2074.098" y2="739.839" gradientTransform="matrix(1 0 0 -1 0 3000)"><stop offset="0" stop-color="#929766"/><stop offset="1" stop-color="#7a894c"/></linearGradient><path class="st7" d="M0 2447.5s1746.3-49 4097.9 89l-1085.8 228-731.9 381.7H0v-698.7z"/></g><g><defs><path id="SVGID_12_" d="M0 0h5000v3000H0z"/></defs><clipPath id="SVGID_13_"><use xlink:href="#SVGID_12_" overflow="visible"/></clipPath><path class="st8" d="M4097.9 2536.5S2292.3 2682 1830.4 3146.2H3168s108-399.7 929.9-609.7z"/></g></g><g class="st9"><path class="st10" d="M3310.5 2434.2l-170.8-2.2v-19.1l170.8-1.6v22.9z"/><path class="st11" d="M3314.2 2410.9v57.3m-177.6-55.7v54"/></g><g class="st9"><path class="st10" d="M3525.4 2434.8l-179.5-2.3v-20l179.5-1.7v24z"/><path class="st11" d="M3529.2 2410.3v60.2m-186.5-58.5v56.8"/></g><path class="st12" d="M3244.1 2102.8v-52.2H3078v52.2m184.8 0s-7.7-45.4-11.6-48.6l-7-3.5"/><path class="st12" d="M3078 2050.6s6.3 3.5 7.7 4.7c0 0 10.9 38.9 11.6 44.4"/><path class="st13" d="M2045.5 2247.8v-54.1h-168.6v54.1"/><path class="st13" d="M1857.8 2253.2l8.3-51.2s5-6.3 13.3-8.2m146.9 59.4l7.8-50.3s3.6-7.7 11.4-9.1"/></g></svg>