<svg xmlns="http://www.w3.org/2000/svg" viewBox="0 0 5000 3000"><style>.st0{fill:url(#SVGID_1_)}.st1{fill:url(#SVGID_2_)}.st2{fill:url(#SVGID_3_)}.st3{fill:url(#SVGID_4_)}.st4{fill:url(#SVGID_5_)}.st5{fill:#ddc4a3}.st6{fill:#575148}.st7{fill:#896e49}.st8{fill:#a8865a}.st9{fill:#FFF}.st10{fill:#d5bead}.st11{fill:#020303}.st12{fill:#050302}.st13{fill:#9c837e}.st14{fill:#2b2a29}.st15{fill:#c18f9e}.st16{opacity:.65}.st17{fill:#1b1a0a}.st18{fill:#e0ba64}.st19{fill:#fdfdf8}.st20{opacity:.75}.st21{opacity:.5}.st22{opacity:.25}.st23{opacity:.35;fill:url(#SVGID_6_)}.st24{fill:#a39891}.st25{fill:none;stroke:#3d2e13;stroke-width:2;stroke-linecap:round;stroke-linejoin:round;stroke-miterlimit:10}.st26{fill:#fcaa06}.st27{fill:#c08d2d}.st28{fill:url(#SVGID_7_)}.st29{fill:#503e20}</style><g id="animal_shadows"><linearGradient id="SVGID_1_" gradientUnits="userSpaceOnUse" x1="4181.532" y1="2875.128" x2="4257.727" y2="2927.225"><stop offset="0" stop-color="#396916" stop-opacity=".75"/><stop offset=".123" stop-color="#3b6c1f" stop-opacity=".657"/><stop offset=".323" stop-color="#427337" stop-opacity=".508"/><stop offset=".575" stop-color="#4d7e5e" stop-opacity=".319"/><stop offset=".865" stop-color="#5c8e94" stop-opacity=".101"/><stop offset="1" stop-color="#6496af" stop-opacity="0"/></linearGradient><path class="st0" d="M4189.3 2841.4h8.1l103.5 136.7h-34z"/><linearGradient id="SVGID_2_" gradientUnits="userSpaceOnUse" x1="4259.6" y1="2870.752" x2="4339.231" y2="2925.198"><stop offset="0" stop-color="#396916" stop-opacity=".75"/><stop offset=".123" stop-color="#3b6c1f" stop-opacity=".657"/><stop offset=".323" stop-color="#427337" stop-opacity=".508"/><stop offset=".575" stop-color="#4d7e5e" stop-opacity=".319"/><stop offset=".865" stop-color="#5c8e94" stop-opacity=".101"/><stop offset="1" stop-color="#6496af" stop-opacity="0"/></linearGradient><path class="st1" d="M4263.7 2841.4l94 134.1h28.6l-114.5-134.1z"/><linearGradient id="SVGID_3_" gradientUnits="userSpaceOnUse" x1="4382.141" y1="2856.314" x2="4456.049" y2="2906.847"><stop offset="0" stop-color="#396916" stop-opacity=".75"/><stop offset=".123" stop-color="#3b6c1f" stop-opacity=".657"/><stop offset=".323" stop-color="#427337" stop-opacity=".508"/><stop offset=".575" stop-color="#4d7e5e" stop-opacity=".319"/><stop offset=".865" stop-color="#5c8e94" stop-opacity=".101"/><stop offset="1" stop-color="#6496af" stop-opacity="0"/></linearGradient><path class="st2" d="M4377.5 2841.4l101.4 101.9h27.8l-116-101.9z"/><linearGradient id="SVGID_4_" gradientUnits="userSpaceOnUse" x1="4467.597" y1="2853.69" x2="4548.093" y2="2908.728"><stop offset="0" stop-color="#396916" stop-opacity=".75"/><stop offset=".123" stop-color="#3b6c1f" stop-opacity=".657"/><stop offset=".323" stop-color="#427337" stop-opacity=".508"/><stop offset=".575" stop-color="#4d7e5e" stop-opacity=".319"/><stop offset=".865" stop-color="#5c8e94" stop-opacity=".101"/><stop offset="1" stop-color="#6496af" stop-opacity="0"/></linearGradient><path class="st3" d="M4463.7 2835.7l110.8 113.3h28.4l-129.1-113.3z"/><linearGradient id="SVGID_5_" gradientUnits="userSpaceOnUse" x1="3831.64" y1="2945.569" x2="3836.131" y2="2994.583"><stop offset="0" stop-color="#396916" stop-opacity=".75"/><stop offset=".123" stop-color="#3b6c1f" stop-opacity=".657"/><stop offset=".323" stop-color="#427337" stop-opacity=".508"/><stop offset=".575" stop-color="#4d7e5e" stop-opacity=".319"/><stop offset=".865" stop-color="#5c8e94" stop-opacity=".101"/><stop offset="1" stop-color="#6496af" stop-opacity="0"/></linearGradient><path class="st4" d="M3791.5 2954.4l40.3 38.4h45.1l-57.9-38.9-11.3-8.6z"/></g><g id="animals"><path d="M4174.5 2405.7c-14.4-17.1-34.1-25.9-57.5-28.6 0 0-1.2 25.8 14 35.8 14.9 9.9 36.4 3.7 36.4 3.7l7.1-10.9z"/><path class="st5" d="M4116.9 2377.7c22.5 5.9 40.7 16.9 53.3 34.5l-2.9 4.4s-21.4 6.1-36.4-3.7c-13.8-9.2-14-31.4-14-35.2z"/><path d="M4234.3 2405.7c14.4-17.1 34.1-25.9 57.5-28.6 0 0 1.1 25.8-14 35.8-14.9 9.9-36.4 3.7-36.4 3.7l-7.1-10.9z"/><path class="st5" d="M4291.8 2377.7c-22.5 5.9-40.7 16.9-53.3 34.5l2.9 4.4s21.4 6.1 36.4-3.7c13.9-9.2 14.1-31.4 14-35.2z"/><path class="st6" d="M4296.5 2340.8c20-14.6 45.1-30.7 54.1-83.8 2.4 43.8-24.9 81.1-57.4 100.3-13.4 7.9-52.5 22.6-57.4 30.6-2 3.3-5.3 18.9-5.3 18.9l-13.3-3.6s3.1-16.5 6.2-20.7c11.7-15.9 49.6-24.6 73.1-41.7z"/><path class="st6" d="M4295.2 2229.5c27.9 22.5 39.9 54.7 22.5 102.3l-11.7 6.7c13.3-43.7 16.2-78.1-10.8-109z"/><path class="st6" d="M4277.1 2258.4c26.5 14.3 41.5 35.9 30.4 83.3l-19.8 8.5c23.4-32.4 12-74.8-10.6-91.8zM4261.9 2306c14.5 8.9 23.7 29.5 8.8 57.6l-17.4 2.1c20.2-16.6 20-45.2 8.6-59.7zM4208.1 2405.3c22.9-25.4 28-60.7 14.5-82.6 19.2 22.8 20.1 47.8-1.8 87.6l-12.7-5zM4112.3 2340.8c-20-14.6-45.1-30.7-54.1-83.8-2.4 43.8 24.9 81.1 57.4 100.3 13.4 7.9 52.5 22.6 57.4 30.6 2 3.3 5.3 18.9 5.3 18.9l13.3-3.6s-3.1-16.5-6.2-20.7c-11.8-15.9-49.6-24.6-73.1-41.7z"/><path class="st6" d="M4113.6 2229.5c-27.9 22.5-39.9 54.7-22.5 102.3l11.7 6.7c-13.3-43.7-16.2-78.1 10.8-109z"/><path class="st6" d="M4131.7 2258.4c-26.5 14.3-41.5 35.9-30.4 83.3l19.8 8.5c-23.4-32.4-12-74.8 10.6-91.8zM4146.9 2306c-14.5 8.9-23.7 29.5-8.8 57.6l17.4 2.1c-20.2-16.6-20.1-45.2-8.6-59.7zM4200.7 2405.3c-23-25.4-28-60.7-14.5-82.6-19.2 22.8-20.1 47.8 1.8 87.6l12.7-5z"/><path class="st7" d="M4247.6 2612.5c.3 4.4.2 8.8-.6 13.3-2.3 12.7-18.9 24.5-18.9 24.5l-30.6 191h-8.1l9.9-192.8s-17.7-5.7-22.2-25.3c-1.1-4.6-1.5-7.8-1.5-10.8h72z"/><path d="M4199.4 2828.6l-2 12.8h-8.1l.6-12.8z"/><path class="st7" d="M4316.8 2613.1s-8.6 51.7 23.4 90.7c13 15.9 50.2 48.6 50.2 48.6-1.5 27-6.9 56.5-12.9 88.9h10.2l24-100.3s-18.9-24.6-20.4-37.2c-2.5-21.6 20.9-54.2 2.4-112.9l-76.9 22.2z"/><path d="M4390.7 2828.6l-3 12.7h-10.2c.8-4.3 1.6-8.5 2.3-12.7h10.9z"/><path class="st8" d="M4150.4 2561.8c.9-5 2.6-14.2 3.6-18.9 4.9-22.6 21.7-90.1 21.7-90.1h57.1l15.9 57.2c2.5 9.1 8 17.6 16.1 23.8 8.1 6.2 17.7 9.2 27.2 9.2h85.7c19.3 0 38.6 7.4 53.3 22.1 14.7 14.7 22.1 34 22.1 53.3l-3.3 27.5s-13.4 39-37.5 37.5c-46.3-3-119.7-8-152.3-11.9-28.8-3.5-65.2-14.7-87.3-36.8-22-22.2-27.5-44.4-22.3-72.9z"/><g><path class="st8" d="M4162.6 2460.6c0 8.3 3.2 16.6 9.5 22.9 6.3 6.3 14.6 9.5 22.9 9.5h18.6c8.3 0 16.6-3.2 22.9-9.5 6.3-6.3 9.5-14.6 9.5-22.9v-31c0-8.4-3.2-16.7-9.6-23.1-6.4-6.4-14.7-9.6-23.1-9.6h-18.4c-8.3 0-16.6 3.2-22.9 9.5-6.3 6.3-9.5 14.6-9.5 22.9v31.3z"/></g><g><path class="st5" d="M4175.7 2423.4c5.7-.3 12 3.9 13.4 8.1h30.3c4.9-8 9.9-8.4 13.8-8.3 10.4.2 12.9 8.3 12.9 8.3v29.1c0 8.3-3.2 16.6-9.5 22.9-6.3 6.3-14.6 9.5-22.9 9.5h-18.6c-8.3 0-16.6-3.2-22.9-9.5-6.3-6.3-9.5-14.6-9.5-22.9v-29.1c-.1 0 2-7.5 13-8.1z"/></g><g><path class="st8" d="M4185.1 2484.6c0 4.6 1.7 9.2 5 12.7s7.7 5.3 12 5.3h4.5c4.3 0 8.7-1.8 12-5.3 3.3-3.5 5-8.1 5-12.7l-4-54.5h-30.5l-4 54.5z"/></g><g><path class="st5" d="M4190.2 2472.7c3.7-3.7 9.3-5.6 14.1-5.8 4.9.2 10.2 1.5 13.9 5.3 3.9 3.9 5.1 7.5 5.3 12.5.2 4.6-1.7 9.2-5 12.7s-7.7 5.3-12 5.3h-4.5c-4.3 0-8.7-1.8-12-5.3-3.3-3.5-5.2-8.1-5-12.7.3-4 1.3-8.1 5.2-12z"/></g><g><path d="M4190.9 2481c0 4.8 6.1 11.5 13.5 11.5 7.5 0 13.5-6.7 13.5-11.5s-6.1-3.9-13.5-3.9c-7.5 0-13.5-.9-13.5 3.9z"/></g><g><path class="st8" d="M4241.1 2655.8l22.5 185.6h8.1l-1.8-183.8.6-.5c9.3-7.6 16-18.5 18.3-31.2 2.3-12.8-.3-25.3-6.4-35.6l-33-56.4-28.6 66.4c-4 9.2-4.3 19.7-1.9 30.3 4.5 19.5 22.2 25.2 22.2 25.2z"/></g><g><path d="M4271.6 2828.6l.2 12.8h-8.1l-1.6-12.8z"/></g><g><path class="st8" d="M4370.9 2613.1s-8.6 51.7 23.4 90.7c13 15.9 64.6 48.6 64.6 48.6 6.9 27.9 7.2 58.6 8.7 88.9h10.2l2.4-100.3s-37.3-36.6-38.8-49.3c-2.5-21.6 24.9-42.2 6.4-100.9l-76.9 22.3z"/></g><g><path d="M4478.1 2828.6l-.3 12.7h-10.2c-.2-4.2-.4-8.5-.6-12.7h11.1z"/></g><g><path d="M4196.1 2496.8c3.2 0 6.1-1.1 8.4-2.3 5.9 2.3 10.7 2.6 14.3.8.7-.4 1.1-1.3.7-2-.4-.7-1.3-1.1-2-.7-3 1.4-7.2 1-12.6-1.2l-.7-.3-.6.4c-3.1 1.7-7.8 3.4-12.4 1.1-.7-.4-1.6-.1-2 .7-.4.7-.1 1.6.7 2 2.1 1.1 4.2 1.5 6.2 1.5z"/></g><g><path d="M4168.5 2443.2c0 3.4 2.8 6.2 6.2 6.2 3.4 0 6.2-2.8 6.2-6.2 0-3.4-2.8-6.2-6.2-6.2-3.5 0-6.2 2.8-6.2 6.2zM4228 2443.2c0 3.4 2.8 6.2 6.2 6.2 3.4 0 6.2-2.8 6.2-6.2 0-3.4-2.8-6.2-6.2-6.2-3.5 0-6.2 2.8-6.2 6.2z"/><path class="st9" d="M4233.9 2443.7c0 1 .8 1.8 1.8 1.8s1.8-.8 1.8-1.8-.8-1.8-1.8-1.8c-.9-.1-1.8.8-1.8 1.8z"/><g><path class="st9" d="M4174.1 2443.7c0 1 .8 1.8 1.8 1.8s1.8-.8 1.8-1.8-.8-1.8-1.8-1.8c-1-.1-1.8.8-1.8 1.8z"/></g></g><g><path class="st8" d="M4386.8 2544c39-.5 86.5 25.6 81.4 59.2-2 13-16.7-23.7-28.1-25.7-10.9-2-21.4-8.6-34.8-10.5l-18.5-23z"/></g><g><path class="st10" d="M3881.9 2835.4s3.4-.2 4.3-1c0 0 3.6 5.4 12.6-2.6 0 0 3.4-5.6 3.2-8.8 0 0 9.3.1 8.6-10.2 0 0-1.6-4.9-5.4-4l-4.5-.1-4-2.5 5.7 1.6s7.2-3.8 8.2-5.6c0 0 1.9-2 2-4.4 0 0 16.9-3.4 20.3-3.3 0 0 8.9-.6 9.8-1.1 0 0 6.9.8 7.2-.5 0 0 .9-.4 2.2-.9 0 0 3.1.1 3.9-4.5l-5-.6-1-.7-.5-2.9h7.7s.6-2.4-1.6-3.4l-1.8.7 1.3-2.3-1.4-2.3 2.1-.7.8-3.3-4.5-.6s-4.7-1-5.5-2.8c0 0 8.3-.1 10.1 1.7l-.3-6.9-3 .6 1.7-2.5-8.9-8.8s7.8-4 3.7-10l-4.1.6-2.2-1.8 5.2-2.4-2.2-4.2s-3.3-13.2-6.1-14.7l-7.1 6.4 5.9-6.4h-3.2l-.3-2.4 2.9-2s1.5-2.2-8.4-13.5l-2.9.7s3.9-.1-4-9.1c0 0-3.2-5.7-6.5-6.7h-.8s-9.9-14-13.2-12.5l-3.1 6.2s-.5-5.2 0-6.3l-1.1-.8s-.8 1.7-.9 4.4c0 0-1.4-3.3-4.4-4.4 0 0-6.3-6.5-12.3-7.2l-.7 1.1s-6.3-5.9-10.4-6.8l-1.4 1.1v-1.8s-10.9-.2-14.1 2.5c0 0-6.4-5-17.4 1.4 0 0-7.9-3.1-10.6-.5 0 0-12.6-6.4-18.9 9.2 0 0-10-1.6-13.5 8.6 0 0-10.8 2.1-13 6l2.1 3.8-3.4-.8s-7.2 12.5-9.5 13.9v3.1l-1.8-.2s-4.4 5.4-5 13.1c0 0-7.1 7.6-7.3 10.7 0 0 .7 5.5 3.9 5.3l4 .1s-7.3 5.3-8.7 2.1c0 0-2.8 6.1.6 8.5l-1.6.1s-4 4.6-1.8 7.7l3.5.8.9 3s-5.5-.1-5.7-1.6c0 0-.8 5.6 1.9 8.3v1.9s-2-.1-2.5 4.6l1.1 2.4-2-.5s-1.3 2-1.3 3.8c0 0 2.1 1.4 3.4 1.3l12.4-12.4 12-22.3 57.7.6 26.3 43.1 4.4 32.1 17.2 15.5z"/><path class="st10" d="M3927.5 2702.9c-.2.1-.3.1-.3.1l.3-.1z"/><path d="M3912.7 2797.8c-.1 2.4-2 4.4-2 4.4-1 1.8-8.2 5.6-8.2 5.6l-5.7-1.6 4 2.5 4.5.1c3.8-.9 5.4 4 5.4 4 .7 10.3-8.6 10.2-8.6 10.2.2 3.2-3.2 8.8-3.2 8.8-9.1 8-12.6 2.6-12.6 2.6-.9.8-4.3 1-4.3 1l-17.7-15.4-2.1-15.1 18.1 9.4 14-15.6 15.4-.7 3-.2z"/><path class="st11" d="M3885.8 2878.2c8.8-7.4-7.2-53.2-7.2-53.2 7.6-21-12.4-31.1-12.4-31.1 21.5-66.1-58.7-62.8-58.7-62.8-39.2-2.8-53.8 43.4-53.8 43.4-10.8 9.5-16.7 28.2-16.7 28.2-8.3 5-11.9 18.1-11.9 18.1-9.6 14.5 0 23.4 0 23.4l1 4.3c-.3 6.7 2.2 16 2.2 16-1 14.1 9.8 23.4 9.8 23.4 3.6 10.5 30.6 24.1 30.6 24.1l2.1-1.2c1.5 5.5 6.9-.3 6.9-.3 2.8.3 12.2 7.4 12.2 7.4l1.9-.7 6.1-7.6c2.4 5 2.5 32.6 2.5 34.5l-1 5.2s-2.8 2.4-5.2 3.9c0 0-2.6.3-2.8 1.3v1.3l3.7-.8 3.7-2-4.1 3.7-2 1-.3 1.5 3.4-.7 1.8-2-1.1 2.6.8 1.3 1.6-1.1 4.6-7.1 1.1-3.1 2.8-.7s.4-2.6-1.1-2.4l-.7-4.1c-.6-5.4 1.7-31.5 1.7-31.5 4.6 4.6-.4 28.1-.8 30.1l-.2 1.4-.3 2.1 1.5 1.4 1.4 2.8.7 3.1 1.6 3.7 1 4.1 1.8 1.5v-2.6l-2.8-5.9 3.8 5.5 2.2 1.5.5-1.3-1.5-1.5-3.1-5.1 1.9 1.6 1.9 2.4h2v-1.3l-2.1-2.8-4.6-4.2-1-8c-.2-7.7 7.7-27.2 7.7-27.2 32.7 4 44.6-24.3 44.6-24.3 4.3 2.8 11 16.5 11 16.5.9 2.1.2 12.2.2 12.2 1.2 7.6 5.5 5.2 5.5 5.2 1.2-7.4-6.4-29.6-6.4-29.6l-.2-3.8c2.9 2.6 7.7 15.8 7.7 15.8-1 2.1-.7 11.7-.7 11.7l4.1 5.9c.5-2.9.2-4.1.2-4.1l2.2 4.1c3.9-17.7-1.3-43.1-1.3-43.1z"/><path class="st12" d="M3949.9 2768.5s.8-2.2 0-2.7-3.2-3.5-4-7l-1.7-4.6v-1.3s-1.4-9.3-3.4-11.4l-1.2-.4s-1.1-6.6-3.2-7.8c0 0-.5-2.3-2.9-5.2h-1.7l1.5-1.8s-3.9-10.4-9.1-14.5l-.3-2.2-10.7-11.7v-3.9l-11.3-10.2-4.1-3.2-2.5 3.9s-6.3-2.9-13.9-8.3c0 0-9.5-6.2-14.8-8.5 0 0-2.5-.9-4.5 0l-.8 5.9s-8.7-5.2-13.9-5.8l-.7-.5s-9.4-.2-11.9 3c0 0-8.3-6.1-19.1 6.9v-2.9s.3-4.3 1.7-5.2c0 0-7.6 4.8-10.2 7.7l-.4 2.2s-4.5-3-16.4 12.7l-1-2.2-5.3 2.8-9.5 15.5-2.6 2.8-7 13.9.8 1.4-2.7 4-2.9 6.1 5.4.6-5.4 3.1s-3.6 7.8-3.7 8.8l2.6 3 121.3 63 14-15.6 15.4-.7s35-5.9 37.5-4.8l2.5-.5 2.4-2.1-.2-3.4-1.5-.9s.1-2.6-.6-2.9l2.7.1v-1.1l-1.8-2-1.1-.3s1.6-7.5-.2-9.3l-2.8-2.4 3.2-.1z"/><path class="st13" d="M3880.3 2814.3s6.9-5.4 7.9-10.3h2.4s2.9-2.8 2.4-7.1h2.6s4.4-7.1 1.4-15.1c0 0 6-1.7-.6-18.8 0 0-2.6-24.3-12.8-19.4 0 0 0-1.1 5.1-1.7 0 0-2.9-13.1-13.6-14.5 0 0-7-10.9-15.4-11.9 0 0-9.5-12.5-17.6-8.6l-7.5 3.2s-15.3-13-21.5 7c0 0-11.1-3.7-11.5 13.9l23.5 25.3 32.8 52.4 22.4 5.6z"/><path class="st14" d="M3753.5 2814l41.3-54.2s19.1-12.4 25.3 8.5c0 0 6.7-5.4 12.9 3.1l4.1-4.9s28.6 13.7 9.8 44.4c0 0 5.9 3.6 9-3.9 0 0 7.2-2.6 4.9-6.2l5.4-7s22.5 32.8-27.1 44.9l-6.1 8.8-14-1.5s-31.7 68.1-58.1 28.4v-60.7s1.8 34.1-9 35.1c0 0-10.8-1.8-10.3-17.8l11.9-17z"/><path id="head_1_" class="st15" d="M3755.5 2799.6s-1.5-18.2-1.5-19.2c.1-1-1.5-7.9 1.5-17.7 0 0-1.1-4.3 0-7.1 0 0-.4-3.1 4-8.8 0 0 3.7-3.6 8.4-3.8 0 0 1.5-2.3 1.6 0 0 0 6.4-4 13.4 3.4 0 0 9 8.3.9 25 0 0-4.2 7.7-4.7 11.6 0 0 1.5 2.9-1 3.4 0 0-.3 1.2.5 1.3 0 0 1.5-.4 1.5 1.5 0 0-.3 1.8-1.7 1 0 0 .4 2.5-1.2 3.4 0 0 1.9 2.8-.9 4.4 0 0-.6 4.2-.3 4.3 0 0 3.6 8.1-.9 8.9 0 0-6.1 2.1-9.3-6.2 0 0-2.9.6-3.4-.3 0 0-2 7.6-5.6 4.7 0 0-.4 2.5-1.2 2.9 0 0-5 1-2.3-8.1 0 0 .5-2.2 3.4-2.8 0 0 .7-3.7 2.2-5.2l-.3-1 1.5-1.6s2-8.4 1.3-12.3c0 0-1.6-2.1 1.2-3.4 0 0 0-1.1.7-1.7 0 0-.9-.7-.9-1.9 0 0-4.2 1.8-3.7 10.2 0 0-.1 10.2-1.3 12.2.1 0-.5 4.5-1.9 2.9z"/><path d="M3767.8 2759s.2-5.5 4.2-5.2c0 0 2.3 5.1-4.2 5.2z"/></g><g class="st16"><path class="st17" d="M2766.6 430.2s-5.6-3.6-8.4-4.1l-9.8-4.8s-3-1.3-13.3-14.7l-19.3-25.4-13-17.6-5.6-7.9s-3.7-6.9-6.6-9c0 0-13.1-13.5-14.1-19 0 0-.2 2.1.4 3 0 0 0 .9-.7-.1l-5.4-6.5-3.3-4.1-2.7-4.1-3.3-5.4s-3.5-7.8-4.1-10.4c0 0-4.1-15.6-2.2-22.9 0 0-4.5 7.9-.8 19 0 0 3.6 10.8 5.3 14 0 0-6.1-7.3-10.1-17.9 0 0-2.9-7.8-3.5-11.8 0 0-.7-5.4-1.1-6.3 0 0-2.2 4.5.8 15.3 0 0 4.1 11.4 8 15.9l2.4 3.6v.7l-1.3-1.1s-7.8-8.9-9.7-12.8c0 0-5.8-10.1-7-14.3 0 0-1.1-3.5-1.8-3.9 0 0-.9 10 6.3 20.3 0 0 7.1 9.7 8.9 11.3l.2.7-2.1-1.6s-11.8-11.3-13-13.4c0 0-6.7-8.9-7.1-9.3 0 0 1.6 8.6 6.6 13.5 0 0 6.9 8.5 10.4 11l.4 1-1-.3s-15.7-10.1-16.9-10.4c0 0 2.1 3.9 9.4 10.7l-.5.9s2 4.7 4.5 6.1l-.8 1.4s2.6 4.4 3.8 4.9c0 0-1.1 1-.6 1.6l3.1 3.7s-.9.9-.3 1.9l2.9 3.9.2 1.7s1.8 3.5 2.4 3.9c0 0-1.1.8-.4 2.3l2.2 2.7-.8.8.1 1.9 2.4 2.2.3 2.3 1.6 1.4v2.2l2.5 2s-1.3 1-.4 2.1c0 0 1.2 1.6 2.4-.9l.7.5v1.1s-1.6 1.7-.4 3.2c0 0 .7.6 1.3.8 0 0 .1 2 .6 2.1l1.3.9s-.3 2 .4 2.7l1.2.7s.2 2 .6 2.4l1.3.8s.1 1.6.7 1.9l1.1.8s-.4 1.1.2 2.1l1.2.7s-.2 1.5.5 2l.7.5s.1 1.7.5 2.3l.7.4s.2 1.7.8 2l.9.6.5 1.7.8.3.4 1.9.9.4.6 1.6.8.7.7 1.6 1.1.5.6 1.9 1.2.4.8 1.6.9.3 1.1 2.3 1.3.1 1 2.3 1.3.4.5 2.4 1.8.8.2 2 1.5.5.6 2 1.3.4.5 2 1.7.4.9 1.7 1.3.1.6 1.4 2.1.2.7 1.4 2.3-.7-.8 2.1 4.4 2.3.2.8-1.8 2.8 4.7 3.5s-1.4 1.7-1 2.9c0 0 2.2 2.6 5.5 2.6 0 0-1.6 1.5-1.3 3l-1.1 1-.2 1.3s-4.5 4.4-4.8 5.6c0 0-14.7-3.6-17.7-3.4 0 0-1.9-.1-2.3.4l.5.7-.6.6s.2 1 1 1.1c0 0-1.6 1.3-1.7 1.4-.1.2 1.4 1.4 1.4 1.4s-1.2.8-1.4 1.8l.8.5-1.3 1.2s1.6 1.7 3.8 1.1l1.6.5s-3.2 1.2-2.9 2.9c0 0 1.1 1.3 2.4 1.3 0 0-2.9 2.2-2.6 3.5l1.4.7 2.7-.5s-2 2.4-1.9 3.5l2.9 1.9 7.9 4.3s9.3-2.6 10.2-3.9c0 0 1 1.8 3 .2 0 0 1.9 1 3.4-1 0 0 2.1.8 3.1-.5 0 0 1.8.8 3.4-2.2 0 0 5.1.7 11.8-3.8l14.3-7 .5.6 1.4-.2.1.5 1.6-.1.1.7 1.9-.4-.2.8 2.2-.2.1.7h2l.1.7 2.4-.1v.8h1.9v.7l2-.1.5.8 1.6-.2v.4s2.1-.2 2.3.5c0 0 1.7-.8 1.9.2l2.2.1h1.9s1.7.5 2.4.1c0 0-.1.5 2.4.3l.3.2h2.3l.4.4 2.5.1v.6l2.8-.2.5.7h2.6l.5.5h2.9l.9.5 2.7-.3.8.7 3.3-.2.8.7s3.2.2 3.8-.4l1.2 1s3.1 0 3.5-.4c0 0 3.2 2.2 5.6-.2 0 0 3.1 1.2 5 .5 0 0 3.5 1.9 5.5.3 0 0 3.8 2.5 6 1.1 0 0 5.2 2.1 6.6.1l1.9 1.3s4.6 1.4 5.8-.3c0 0 8.7 3.9 9.6 4.1 0 0-3.3-4.8-4.4-5.3 0 0-.2-.8.1-1.2 0 0 7.6 3.2 11.2 2.1 0 0-6.5-2.4-7-2.8l-.2-.5s14 3.3 22.9-6.9c0 0 3.2-3.5 3.5-5.6 0 0-2.6.2-5.1 2.9 0 0-8.5 8.1-17.4 8 0 0-6.9-.1-11.5-2.4 0 0 .8-.5.8-1.3 0 0-9.3-1-12.8-2.9 0 0-8.5-2.9-10-3.4l-6.4-1.4-9.3-2.6s1.2-3.2-1.9-4.6l-12.6-9.5-10.7-9.1-5.2-5.1-.9-1.3s-1.9-1.7-2-2.4l-1.6-.8s-3.8-2.7-6.4-2.3l-5.4-.7-3.6.4v3.5l-1 .1.1 2.4-1.1 1.6s1.1 1.9.5 3.3l.3 1.1c-.6-.7-1.2 2 .2 3.7z"/><path class="st18" d="M2818.5 449.7l-1-.3s1.2-3.2-1.9-4.6l-12.6-9.5-10.7-9.1-5.2-5.1-.9-1.3s-.3-.2-.6-.6h-.3l-5.5-.6s-5.2-2.9-3.6 2.9l-3.9 2s-.4 2.3-1.6.6c0 0-.9-1.5-1.5-.4 0 0-.2 4.6 4.7 4.4 0 0 9.6 5.3 10 5.8 0 0 9.8 6.5 12.5 7.3 0 0 10.4 5.9 14.1 6.1l4.1 1.5s1 1.2 1.7 1.2v.9l2.2-1.2z"/><path class="st19" d="M2774.9 445.4s-7.2-7.3-14.9-8.1l-8.6-1.1s-4.1-3.2-10.4 0c0 0-13.8-1.1-18.1 10v2.9h-5.2l-5.2 1.6-3.6 4-1.6 5.7s3-2 2.9 1.3l-.7 2.5s6.4-.7 10.9.9l5.2-3.8s13.1-5.6 15.5-9.5c0 0 1 2.5-1.3 5 0 0 8.1.7 10-9.1 0 0 7-6.6 10.9-2.7l14.2.4z"/></g><g class="st16"><path class="st17" d="M2172 305.6s-3.7-2.3-5.5-2.7l-6.4-3.1s-2-.9-8.7-9.6l-12.6-16.5-8.4-11.5-3.7-5.1s-2.4-4.5-4.3-5.9c0 0-8.5-8.8-9.2-12.4 0 0-.1 1.4.2 2 0 0 0 .6-.4-.1l-3.5-4.3-2.1-2.7-1.7-2.7-2.2-3.5s-2.3-5.1-2.7-6.7c0 0-2.6-10.1-1.4-14.9 0 0-3 5.2-.5 12.4 0 0 2.3 7 3.4 9.1 0 0-4-4.8-6.6-11.7 0 0-1.9-5-2.3-7.7 0 0-.4-3.5-.7-4.1 0 0-1.4 2.9.5 10 0 0 2.7 7.4 5.2 10.3l1.6 2.4v.4l-.8-.7s-5.1-5.8-6.3-8.3c0 0-3.8-6.6-4.6-9.3 0 0-.7-2.3-1.2-2.6 0 0-.6 6.5 4.1 13.2 0 0 4.6 6.3 5.8 7.3l.2.4-1.4-1s-7.7-7.4-8.4-8.7c0 0-4.4-5.8-4.6-6 0 0 1 5.6 4.3 8.8 0 0 4.5 5.6 6.8 7.1l.2.7-.6-.2s-10.2-6.6-11-6.8c0 0 1.4 2.5 6.1 7l-.3.6s1.3 3 3 4l-.5.9s1.7 2.9 2.4 3.2c0 0-.7.7-.4 1l2 2.4s-.6.6-.2 1.2l1.9 2.5.1 1.1s1.2 2.3 1.6 2.5c0 0-.7.5-.3 1.5l1.4 1.8-.5.5.1 1.2 1.6 1.4.2 1.5 1 .9v1.4l1.6 1.3s-.8.6-.3 1.4c0 0 .8 1 1.6-.6l.5.3v.7s-1 1.1-.3 2.1c0 0 .5.4.9.5 0 0 0 1.3.4 1.4l.8.6s-.2 1.3.2 1.7l.8.5s.1 1.3.4 1.6l.8.5s.1 1 .5 1.2l.7.5s-.2.7.2 1.4l.8.5s-.1 1 .3 1.3l.5.3s.1 1.1.3 1.5l.5.3s.2 1.1.5 1.3l.6.4.3 1.1.5.2.3 1.2.6.3.4 1 .5.4.4 1 .7.3.4 1.2.8.3.5 1 .6.2.7 1.5.8.1.7 1.5.8.3.3 1.6 1.2.5.2 1.3 1 .3.4 1.3.8.3.3 1.3 1.1.3.6 1.1.9.1.4.9 1.4.1.5.9 1.5-.4-.5 1.4 2.8 1.5.2.5-1.2 1.8 3 2.3s-.9 1.1-.6 1.9c0 0 1.4 1.7 3.6 1.7 0 0-1 1-.8 2l-.7.6-.2.8s-2.9 2.8-3.1 3.7c0 0-9.6-2.4-11.5-2.2 0 0-1.2 0-1.5.3l.3.4-.4.4s.1.6.6.7c0 0-1 .8-1.1.9s.9.9.9.9-.8.5-.9 1.2l.6.3-.9.8s1 1.1 2.5.7l1 .3s-2.1.8-1.9 1.9c0 0 .7.8 1.6.8 0 0-1.9 1.4-1.7 2.3l.9.5 1.7-.3s-1.3 1.6-1.2 2.3l1.9 1.2 5.2 2.8s6.1-1.7 6.6-2.6c0 0 .7 1.2 2 .1 0 0 1.2.7 2.2-.7 0 0 1.4.5 2-.3 0 0 1.2.5 2.2-1.4 0 0 3.3.4 7.7-2.4l9.3-4.6.3.4.9-.2.1.3 1-.1v.4l1.2-.2-.1.5 1.4-.2v.5h1.3v.5h1.6v.5h1.2v.4h1.3l.3.5 1-.2v.3s1.4-.1 1.5.3c0 0 1.1-.5 1.2.1H2181s1.1.3 1.6.1c0 0 0 .3 1.6.2l.2.2h1.5l.2.3h1.6v.4l1.8-.1.3.4h1.7l.3.3h1.9l.6.3 1.8-.2.5.5 2.1-.2.5.4s2.1.1 2.4-.2l.8.7s2 0 2.3-.2c0 0 2.1 1.4 3.7-.1 0 0 2 .8 3.2.3 0 0 2.3 1.2 3.6.2 0 0 2.5 1.6 3.9.7 0 0 3.4 1.4 4.3 0l1.2.8s3 .9 3.8-.2c0 0 5.6 2.6 6.2 2.7 0 0-2.2-3.1-2.9-3.5 0 0-.2-.5.1-.8 0 0 4.9 2.1 7.3 1.4 0 0-4.2-1.6-4.6-1.8l-.2-.3s9.1 2.1 14.9-4.5c0 0 2.1-2.3 2.3-3.7 0 0-1.7.2-3.3 1.9 0 0-5.5 5.3-11.3 5.2 0 0-4.5-.1-7.5-1.6 0 0 .5-.3.5-.9 0 0-6-.7-8.4-1.9 0 0-5.6-1.9-6.5-2.2l-4.2-.9-6.1-1.7s.8-2.1-1.2-3l-8.2-6.2-7-5.9-3.4-3.3-.6-.9s-1.2-1.1-1.3-1.6l-1-.5s-2.5-1.7-4.2-1.5l-3.5-.4-2.3.3v2.3h-.7l.1 1.6-.7 1s.7 1.2.3 2.1l.2.7c.3.4-.1 2.1.8 3.2z"/><path class="st18" d="M2205.8 318.3l-.7-.2s.8-2.1-1.2-3l-8.2-6.2-7-5.9-3.4-3.3-.6-.9-.4-.4h-.2l-3.6-.4s-3.4-1.9-2.3 1.9l-2.5 1.3s-.3 1.5-1 .4c0 0-.6-1-1-.2 0 0-.1 3 3 2.9 0 0 6.2 3.4 6.5 3.8 0 0 6.4 4.3 8.2 4.7 0 0 6.8 3.8 9.2 4l2.7 1s.6.8 1.1.8v.6l1.4-.9z"/><path class="st19" d="M2177.4 315.5s-4.7-4.8-9.7-5.2l-5.6-.7s-2.7-2.1-6.8 0c0 0-9-.7-11.8 6.5v1.9h-3.4l-3.4 1-2.3 2.6-1 3.7s2-1.3 1.9.8l-.5 1.6s4.2-.5 7.1.6l3.4-2.4s8.5-3.6 10.1-6.2c0 0 .6 1.6-.9 3.3 0 0 5.2.5 6.5-5.9 0 0 4.5-4.3 7.1-1.7l9.3.1z"/></g><g class="st16"><path class="st17" d="M2465.3 366s-4.2-2.7-6.3-3.1l-7.4-3.6s-2.3-1-10-11l-14.5-19.1-9.7-13.2-4.2-5.9s-2.8-5.2-5-6.8c0 0-9.8-10.1-10.6-14.2 0 0-.2 1.6.3 2.3 0 0 0 .7-.5-.1l-4.1-4.9-2.5-3.1-2-3.1-2.5-4.1s-2.6-5.8-3.1-7.8c0 0-3-11.7-1.7-17.2 0 0-3.4 6-.6 14.2 0 0 2.7 8.1 3.9 10.5 0 0-4.6-5.5-7.6-13.4 0 0-2.2-5.8-2.6-8.9 0 0-.5-4.1-.9-4.7 0 0-1.7 3.4.6 11.5 0 0 3.1 8.6 6 11.9l1.8 2.7v.5l-.9-.8s-5.9-6.7-7.3-9.6c0 0-4.4-7.6-5.3-10.7 0 0-.9-2.6-1.3-3 0 0-.7 7.5 4.7 15.2 0 0 5.3 7.3 6.7 8.5l.2.5-1.6-1.2s-8.8-8.5-9.7-10c0 0-5.1-6.7-5.3-6.9 0 0 1.2 6.4 5 10.1 0 0 5.1 6.4 7.8 8.2l.3.8-.7-.2s-11.8-7.6-12.7-7.8c0 0 1.6 2.9 7.1 8.1l-.4.7s1.5 3.5 3.4 4.6l-.6 1.1s1.9 3.3 2.8 3.7c0 0-.8.8-.4 1.2l2.3 2.8s-.7.7-.2 1.4l2.2 2.9.1 1.3s1.3 2.6 1.8 2.9c0 0-.9.6-.3 1.7l1.7 2.1-.6.6.1 1.4 1.8 1.7.2 1.7 1.2 1.1v1.7l1.9 1.5s-.9.7-.3 1.6c0 0 .9 1.2 1.8-.7l.5.4v.9s-1.2 1.3-.3 2.4c0 0 .5.4 1 .6 0 0 0 1.5.4 1.6l.9.7s-.2 1.5.3 2l.9.5s.1 1.5.4 1.8l.9.6s.1 1.2.5 1.4l.9.6s-.3.8.2 1.6l.9.5s-.1 1.1.4 1.5l.5.4s.1 1.3.4 1.7l.5.3s.2 1.3.6 1.5l.7.4.4 1.3.6.2.3 1.4.7.3.4 1.2.6.5.5 1.2.8.4.4 1.4.9.3.6 1.2.7.2.9 1.7.9.1.8 1.7.9.3.4 1.8 1.3.6.2 1.5 1.1.4.4 1.5.9.3.4 1.5 1.3.3.7 1.3 1 .1.4 1.1 1.6.1.5 1.1 1.7-.5-.6 1.6 3.3 1.7.2.6-1.3 2.1 3.5 2.6s-1 1.3-.7 2.1c0 0 1.7 2 4.1 1.9 0 0-1.2 1.1-.9 2.3l-.9.7-.2.9s-3.4 3.3-3.6 4.2c0 0-11.1-2.7-13.3-2.6 0 0-1.4 0-1.7.3l.4.5-.4.4s.1.7.7.9c0 0-1.2.9-1.3 1.1s1 1 1 1-.9.6-1 1.3l.6.4-1 .9s1.2 1.3 2.9.8l1.2.4s-2.4.9-2.2 2.1c0 0 .9.9 1.8.9 0 0-2.1 1.7-2 2.6l1.1.5 2-.4s-1.5 1.8-1.4 2.6l2.1 1.4 6 3.2s7-1.9 7.7-3c0 0 .8 1.3 2.3.1 0 0 1.4.8 2.6-.8 0 0 1.6.6 2.3-.4 0 0 1.3.6 2.6-1.7 0 0 3.8.5 8.9-2.8l10.7-5.3.4.4 1-.2.1.4 1.2-.1v.5l1.4-.3-.1.6 1.7-.2v.5h1.5v.5h1.8v.6h1.4v.5h1.5l.4.6 1.2-.2v.3s1.6-.1 1.7.4c0 0 1.3-.6 1.4.1H2475.7s1.3.4 1.8.1c0 0 0 .4 1.8.2l.2.2h1.7l.3.3h1.9v.4l2.1-.1.4.5h1.9l.4.4h2.1l.7.4 2.1-.2.6.5 2.5-.2.6.5s2.4.1 2.8-.3l.9.8s2.3 0 2.6-.3c0 0 2.4 1.7 4.2-.1 0 0 2.3.9 3.7.4 0 0 2.6 1.4 4.1.2 0 0 2.9 1.9 4.5.9 0 0 3.9 1.6 5 0l1.4.9s3.4 1 4.3-.2c0 0 6.5 3 7.2 3.1 0 0-2.5-3.6-3.3-4 0 0-.2-.6.1-.9 0 0 5.7 2.4 8.4 1.6 0 0-4.9-1.8-5.3-2.1l-.2-.4s10.5 2.5 17.1-5.2c0 0 2.4-2.6 2.6-4.2 0 0-1.9.2-3.9 2.1 0 0-6.4 6.1-13.1 6 0 0-5.1-.1-8.6-1.8 0 0 .6-.4.6-1 0 0-6.9-.8-9.6-2.2 0 0-6.4-2.2-7.5-2.6l-4.8-1-7-1.9s.9-2.4-1.4-3.4l-9.4-7.1-8-6.8-3.9-3.9-.7-1s-1.4-1.3-1.5-1.8l-1.2-.6s-2.9-2-4.8-1.7l-4-.5-2.7.3v2.6h-.8l.1 1.8-.9 1.2s.8 1.4.4 2.5l.2.9c.3.4-.1 2.4.9 3.7z"/><path class="st18" d="M2504.2 380.6l-.8-.2s.9-2.4-1.4-3.4l-9.4-7.1-8-6.8-3.9-3.9-.7-1s-.2-.2-.5-.4h-.2l-4.1-.5s-3.9-2.1-2.7 2.1l-2.9 1.5s-.3 1.7-1.2.5c0 0-.7-1.1-1.1-.3 0 0-.1 3.4 3.5 3.3 0 0 7.2 4 7.5 4.4 0 0 7.3 4.9 9.4 5.4 0 0 7.8 4.4 10.6 4.6l3.1 1.1s.7.9 1.3.9v.7l1.5-.9z"/><path class="st19" d="M2471.5 377.4s-5.4-5.5-11.1-6l-6.4-.8s-3.1-2.4-7.8 0c0 0-10.3-.8-13.6 7.5v2.1h-3.9l-3.9 1.2-2.7 3-1.2 4.3s2.3-1.5 2.1.9l-.5 1.9s4.8-.5 8.2.7l3.9-2.8s9.8-4.2 11.6-7.1c0 0 .7 1.9-1 3.8 0 0 6 .5 7.5-6.8 0 0 5.2-5 8.2-2l10.6.1z"/></g><g class="st20"><path class="st17" d="M2750.5 546.7s-2.1-1.3-3.2-1.5l-3.7-1.8s-1.1-.5-5-5.5l-7.3-9.5-4.9-6.6-2.1-3s-1.4-2.6-2.5-3.4c0 0-4.9-5.1-5.3-7.1 0 0-.1.8.1 1.1 0 0 0 .3-.2 0l-2-2.5-1.2-1.5-1-1.5-1.2-2s-1.3-2.9-1.6-3.9c0 0-1.5-5.8-.8-8.6 0 0-1.7 3-.3 7.1 0 0 1.3 4.1 2 5.2 0 0-2.3-2.8-3.8-6.7 0 0-1.1-2.9-1.3-4.4 0 0-.2-2-.4-2.4 0 0-.8 1.7.3 5.8 0 0 1.5 4.3 3 6l.9 1.4v.2l-.5-.4s-2.9-3.3-3.6-4.8c0 0-2.2-3.8-2.6-5.4 0 0-.4-1.3-.7-1.5 0 0-.3 3.8 2.4 7.6 0 0 2.7 3.6 3.3 4.2l.1.2-.8-.6s-4.4-4.3-4.9-5c0 0-2.5-3.3-2.7-3.5 0 0 .6 3.2 2.5 5.1 0 0 2.6 3.2 3.9 4.1l.1.4-.4-.1s-5.9-3.8-6.3-3.9c0 0 .8 1.5 3.5 4l-.2.3s.8 1.7 1.7 2.3l-.3.5s1 1.7 1.4 1.8c0 0-.4.4-.2.6l1.2 1.4s-.3.3-.1.7l1.1 1.5.1.6s.7 1.3.9 1.5c0 0-.4.3-.2.9l.8 1-.3.3v.7l.9.8.1.9.6.5v.8l.9.7s-.5.4-.2.8c0 0 .4.6.9-.3l.3.2v.4s-.6.6-.2 1.2c0 0 .3.2.5.3 0 0 0 .7.2.8l.5.3s-.1.7.1 1l.4.3s.1.7.2.9l.5.3s0 .6.3.7l.4.3s-.1.4.1.8l.4.3s-.1.6.2.7l.3.2s0 .6.2.9l.3.2s.1.6.3.7l.3.2.2.6.3.1.2.7.3.2.2.6.3.2.2.6.4.2.2.7.4.2.3.6.3.1.4.9h.5l.4.9.5.2.2.9.7.3.1.7.6.2.2.7.5.2.2.8.7.2.3.6h.5l.2.5.8.1.3.5.9-.2-.3.8 1.6.9.1.3-.7 1.1 1.7 1.3s-.5.6-.4 1.1c0 0 .8 1 2.1 1 0 0-.6.6-.5 1.1l-.4.4-.1.5s-1.7 1.6-1.8 2.1c0 0-5.5-1.4-6.6-1.3 0 0-.7 0-.9.2l.2.2-.2.2s.1.4.4.4l-.6.5c0 .1.5.5.5.5s-.5.3-.5.7l.3.2-.5.4s.6.6 1.4.4l.6.2s-1.2.4-1.1 1.1c0 0 .4.5.9.5 0 0-1.1.8-1 1.3l.5.3 1-.2s-.8.9-.7 1.3l1.1.7 3 1.6s3.5-1 3.8-1.5c0 0 .4.7 1.1.1 0 0 .7.4 1.3-.4 0 0 .8.3 1.2-.2 0 0 .7.3 1.3-.8 0 0 1.9.2 4.4-1.4l5.4-2.6.2.2.5-.1v.2h.6v.2l.7-.1-.1.3.8-.1v.3h.8v.3h.9v.3h.7v.2h.7l.2.3.6-.1v.2s.8-.1.9.2c0 0 .6-.3.7.1h1.5s.6.2.9 0c0 0 0 .2.9.1l.1.1h.9l.1.2h.9v.2l1.1-.1.2.2h1l.2.2h1.1l.3.2 1-.1.3.3 1.2-.1.3.2s1.2.1 1.4-.1l.4.4s1.2 0 1.3-.1c0 0 1.2.8 2.1-.1 0 0 1.2.4 1.9.2 0 0 1.3.7 2.1.1 0 0 1.4.9 2.2.4 0 0 1.9.8 2.5 0l.7.5s1.7.5 2.2-.1c0 0 3.2 1.5 3.6 1.5 0 0-1.3-1.8-1.7-2 0 0-.1-.3 0-.4 0 0 2.8 1.2 4.2.8 0 0-2.4-.9-2.6-1.1l-.1-.2s5.3 1.2 8.6-2.6c0 0 1.2-1.3 1.3-2.1 0 0-1 .1-1.9 1.1 0 0-3.2 3-6.5 3 0 0-2.6 0-4.3-.9 0 0 .3-.2.3-.5 0 0-3.5-.4-4.8-1.1 0 0-3.2-1.1-3.7-1.3l-2.4-.5-3.5-1s.4-1.2-.7-1.7l-4.7-3.6-4-3.4-1.9-1.9-.3-.5s-.7-.6-.8-.9l-.6-.3s-1.4-1-2.4-.9l-2-.2-1.3.2v1.3h-.4v.9l-.4.6s.4.7.2 1.2l.1.4c.4-.1.1.9.6 1.5z"/><path class="st18" d="M2770 554l-.4-.1s.4-1.2-.7-1.7l-4.7-3.6-4-3.4-1.9-1.9-.3-.5-.2-.2h-.1l-2-.2s-1.9-1.1-1.3 1.1l-1.4.7s-.2.9-.6.2c0 0-.3-.6-.6-.1 0 0-.1 1.7 1.7 1.6 0 0 3.6 2 3.8 2.2 0 0 3.7 2.5 4.7 2.7 0 0 3.9 2.2 5.3 2.3l1.5.6s.4.4.6.4v.3l.6-.4z"/><path class="st19" d="M2753.7 552.4s-2.7-2.8-5.6-3l-3.2-.4s-1.5-1.2-3.9 0c0 0-5.2-.4-6.8 3.8v1.1h-1.9l-1.9.6-1.3 1.5-.6 2.1s1.1-.7 1.1.5l-.3.9s2.4-.3 4.1.3l1.9-1.4s4.9-2.1 5.8-3.6c0 0 .4.9-.5 1.9 0 0 3 .3 3.8-3.4 0 0 2.6-2.5 4.1-1l5.2.1z"/></g><g class="st21"><path class="st17" d="M2675.2 612.3s-1.6-1-2.4-1.2l-2.8-1.4s-.9-.4-3.8-4.1l-5.4-7.2-3.7-5-1.6-2.2s-1-1.9-1.9-2.5c0 0-3.7-3.8-4-5.3 0 0-.1.6.1.9 0 0 0 .3-.2 0l-1.5-1.8-.9-1.2-.7-1.2-.9-1.5s-1-2.2-1.2-2.9c0 0-1.1-4.4-.6-6.4 0 0-1.3 2.2-.2 5.3 0 0 1 3 1.5 3.9 0 0-1.7-2.1-2.9-5 0 0-.8-2.2-1-3.3 0 0-.2-1.5-.3-1.8 0 0-.6 1.3.2 4.3 0 0 1.2 3.2 2.2 4.5l.7 1v.2l-.4-.3s-2.2-2.5-2.7-3.6c0 0-1.6-2.8-2-4 0 0-.3-1-.5-1.1 0 0-.3 2.8 1.8 5.7 0 0 2 2.7 2.5 3.2l.1.2-.6-.5s-3.3-3.2-3.6-3.8c0 0-1.9-2.5-2-2.6 0 0 .4 2.4 1.9 3.8 0 0 1.9 2.4 2.9 3.1l.1.3-.3-.1s-4.4-2.8-4.8-2.9c0 0 .6 1.1 2.7 3l-.2.3s.6 1.3 1.3 1.7l-.2.4s.7 1.2 1.1 1.4c0 0-.3.3-.2.5l.9 1s-.3.3-.1.5l.8 1.1.1.5s.5 1 .7 1.1c0 0-.3.2-.1.6l.6.8-.2.2v.5l.7.6.1.6.4.4v.6l.7.6s-.4.3-.1.6c0 0 .3.4.7-.3l.2.1v.3s-.5.5-.1.9c0 0 .2.2.4.2 0 0 0 .6.2.6l.4.3s-.1.6.1.8l.3.2s.1.6.2.7l.4.2s0 .5.2.5l.3.2s-.1.3.1.6l.3.2s-.1.4.1.6l.2.2s0 .5.2.7l.2.1s.1.5.2.6l.3.2.2.5.2.1.1.5.3.1.2.4.2.2.2.4.3.1.2.5.3.1.2.5.3.1.3.7h.4l.3.6.4.1.2.7.5.2.1.6.4.1.2.6.4.1.1.6.5.1.3.5h.4l.2.4.6.1.2.4.6-.2-.2.6 1.2.6.1.2-.5.8 1.3 1s-.4.5-.3.8c0 0 .6.7 1.5.7 0 0-.5.4-.4.9l-.3.3-.1.4s-1.3 1.2-1.3 1.6c0 0-4.1-1-5-1 0 0-.5 0-.7.1l.1.2-.2.2s.1.3.3.3c0 0-.4.4-.5.4 0 .1.4.4.4.4s-.3.2-.4.5l.2.1-.4.3s.5.5 1.1.3l.4.1s-.9.3-.8.8c0 0 .3.4.7.4 0 0-.8.6-.7 1l.4.2.8-.1s-.6.7-.5 1l.8.5 2.2 1.2s2.6-.7 2.9-1.1c0 0 .3.5.9.1 0 0 .5.3 1-.3 0 0 .6.2.9-.2 0 0 .5.2 1-.6 0 0 1.4.2 3.3-1.1l4-2 .1.2.4-.1v.2h.5v.2l.5-.1-.1.2.6-.1v.2h.6v.2h.7v.2h.5v.2h.6l.1.2.4-.1v.1s.6-.1.6.2c0 0 .5-.2.5.1h1.1s.5.2.7 0c0 0 0 .1.7.1l.1.1h.7l.1.1h.7v.2l.8-.1.2.2h.7l.2.1h.8l.3.2.8-.1.2.2.9-.1.2.2s.9.1 1.1-.1l.3.3s.9 0 1-.1c0 0 .9.6 1.6-.1 0 0 .9.3 1.4.1 0 0 1 .5 1.5.1 0 0 1.1.7 1.7.3 0 0 1.5.6 1.9 0l.5.4s1.3.4 1.6-.1c0 0 2.4 1.1 2.7 1.2 0 0-.9-1.3-1.2-1.5 0 0-.1-.2 0-.3 0 0 2.1.9 3.2.6 0 0-1.8-.7-2-.8l-.1-.1s3.9.9 6.4-1.9c0 0 .9-1 1-1.6 0 0-.7.1-1.4.8 0 0-2.4 2.3-4.9 2.2 0 0-1.9 0-3.2-.7 0 0 .2-.2.2-.4 0 0-2.6-.3-3.6-.8 0 0-2.4-.8-2.8-1l-1.8-.4-2.6-.7s.3-.9-.5-1.3l-3.5-2.7-3-2.6-1.5-1.4-.3-.4s-.5-.5-.6-.7l-.4-.2s-1.1-.8-1.8-.6l-1.5-.2-1 .1v1h-.3v.7l-.3.4s.3.5.2.9l.1.3c-.5.1-.7.8-.3 1.3z"/><path class="st18" d="M2689.8 617.8l-.3-.1s.3-.9-.5-1.3l-3.5-2.7-3-2.6-1.5-1.4-.3-.4-.2-.2h-.1l-1.5-.2s-1.5-.8-1 .8l-1.1.6s-.1.7-.5.2c0 0-.3-.4-.4-.1 0 0-.1 1.3 1.3 1.2 0 0 2.7 1.5 2.8 1.6 0 0 2.7 1.8 3.5 2 0 0 2.9 1.7 4 1.7l1.2.4s.3.3.5.3v.3l.6-.1z"/><path class="st19" d="M2677.5 616.6s-2-2.1-4.2-2.3l-2.4-.3s-1.2-.9-2.9 0c0 0-3.9-.3-5.1 2.8v.8h-1.5l-1.5.4-1 1.1-.5 1.6s.9-.6.8.4l-.2.7s1.8-.2 3.1.3l1.5-1.1s3.7-1.6 4.4-2.7c0 0 .3.7-.4 1.4 0 0 2.3.2 2.8-2.6 0 0 2-1.9 3.1-.8l4 .3z"/></g><g class="st22"><path class="st17" d="M2607 674.7s-1.2-.8-1.8-.9l-2.1-1s-.6-.3-2.8-3.1l-4.1-5.4-2.7-3.7-1.2-1.7s-.8-1.5-1.4-1.9c0 0-2.8-2.9-3-4 0 0 0 .5.1.6 0 0 0 .2-.1 0l-1.1-1.4-.7-.9-.6-.9-.7-1.1s-.7-1.6-.9-2.2c0 0-.9-3.3-.5-4.8 0 0-1 1.7-.2 4 0 0 .8 2.3 1.1 2.9 0 0-1.3-1.5-2.1-3.8 0 0-.6-1.6-.7-2.5 0 0-.1-1.1-.2-1.3 0 0-.5.9.2 3.2 0 0 .9 2.4 1.7 3.3l.5.8v.1l-.3-.2s-1.6-1.9-2-2.7c0 0-1.2-2.1-1.5-3 0 0-.2-.7-.4-.8 0 0-.2 2.1 1.3 4.3 0 0 1.5 2.1 1.9 2.4l.1.1-.5-.3s-2.5-2.4-2.7-2.8c0 0-1.4-1.9-1.5-2 0 0 .3 1.8 1.4 2.8 0 0 1.4 1.8 2.2 2.3l.1.2-.2-.1s-3.3-2.1-3.6-2.2c0 0 .5.8 2 2.3l-.1.2s.4 1 1 1.3l-.2.3s.5.9.8 1c0 0-.2.2-.1.3l.7.8s-.2.2-.1.4l.6.8v.4s.4.7.5.8c0 0-.2.2-.1.5l.5.6-.2.2v.4l.5.5.1.5.3.3v.5l.5.4s-.3.2-.1.5c0 0 .3.3.5-.2l.2.1v.2s-.3.4-.1.7c0 0 .2.1.3.2 0 0 0 .4.1.5l.3.2s-.1.4.1.6l.3.2s0 .4.1.5l.3.2s0 .3.2.4l.2.2s-.1.2.1.5l.3.2s0 .3.1.4l.2.1s0 .4.1.5l.2.1s.1.4.2.4l.2.1.1.4.2.1.1.4.2.1.1.3.2.1.1.3.2.1.1.4.3.1.2.3.2.1.2.5h.3l.2.5.3.1.1.5.4.2.1.4.3.1.1.4.3.1.1.4.4.1.2.4h.3l.1.3h.5l.2.3.5-.1-.2.4.9.5.1.2-.4.6 1 .7s-.3.4-.2.6c0 0 .5.6 1.2.5 0 0-.3.3-.3.6l-.2.2-.1.3s-.9.9-1 1.2c0 0-3.1-.8-3.7-.7 0 0-.4 0-.5.1l.1.1-.1.1s0 .2.2.2c0 0-.3.3-.4.3l.3.3s-.3.2-.3.4l.2.1-.3.3s.3.4.8.2l.3.1s-.7.3-.6.6c0 0 .2.3.5.3 0 0-.6.5-.6.7l.3.2.6-.1s-.4.5-.4.7l.6.4 1.7.9s2-.5 2.2-.8c0 0 .2.4.6 0 0 0 .4.2.7-.2 0 0 .4.2.7-.1 0 0 .4.2.7-.5 0 0 1.1.1 2.5-.8l3-1.5.1.1.3-.1v.1h.3v.1l.4-.1v.2l.5-.1v.2h.4v.2h.5v.2h.4v.1h.4l.1.2.3-.1v.1s.4 0 .5.1c0 0 .4-.2.4 0h.9s.4.1.5 0c0 0 0 .1.5.1l.1.1h.5l.1.1h.5v.1h.6l.1.1h.5l.1.1h.6l.2.1.6-.1.2.2.7-.1.2.1s.7 0 .8-.1l.3.2s.7 0 .7-.1c0 0 .7.5 1.2 0 0 0 .7.3 1 .1 0 0 .7.4 1.2.1 0 0 .8.5 1.3.2 0 0 1.1.5 1.4 0l.4.3s1 .3 1.2-.1c0 0 1.8.8 2 .9 0 0-.7-1-.9-1.1 0 0-.1-.2 0-.3 0 0 1.6.7 2.4.4 0 0-1.4-.5-1.5-.6l-.1-.1s3 .7 4.8-1.5c0 0 .7-.7.7-1.2 0 0-.5.1-1.1.6 0 0-1.8 1.7-3.7 1.7 0 0-1.4 0-2.4-.5 0 0 .2-.1.2-.3 0 0-2-.2-2.7-.6l-2.1-.7-1.4-.3-2-.5s.3-.7-.4-1l-2.7-2-2.3-1.9-1.1-1.1-.2-.3s-.4-.4-.4-.5l-.3-.2s-.8-.6-1.4-.5l-1.1-.1-.8.1v.7h-.2v.5l-.2.3s.2.4.1.7l.1.2c-.4.3-.5.8-.3 1.2z"/><path class="st18" d="M2618 678.8l-.2-.1s.3-.7-.4-1l-2.7-2-2.3-1.9-1.1-1.1-.2-.3s-.1 0-.1-.1h-.1l-1.2-.1s-1.1-.6-.8.6l-.8.4s-.1.5-.3.1c0 0-.2-.3-.3-.1 0 0 0 1 1 .9 0 0 2 1.1 2.1 1.2 0 0 2.1 1.4 2.6 1.5 0 0 2.2 1.2 3 1.3l.9.3s.2.2.4.2v.2h.5z"/><path class="st19" d="M2608.8 677.9s-1.5-1.5-3.1-1.7l-1.8-.2s-.9-.7-2.2 0c0 0-2.9-.2-3.8 2.1v.6h-1.1l-1.1.3-.8.8-.3 1.2s.6-.4.6.3l-.2.5s1.4-.2 2.3.2l1.1-.8s2.8-1.2 3.3-2c0 0 .2.5-.3 1.1 0 0 1.7.2 2.1-1.9 0 0 1.5-1.4 2.3-.6l3 .1z"/></g></g><g id="banana_slug_shadow"><linearGradient id="SVGID_6_" gradientUnits="userSpaceOnUse" x1="4864.901" y1="2752.99" x2="4880.809" y2="2752.99" gradientTransform="rotate(8.583 4857.63 2750.694)"><stop offset="0" stop-color="#3e423a" stop-opacity=".75"/><stop offset=".15" stop-color="#414843" stop-opacity=".637"/><stop offset=".393" stop-color="#495a5b" stop-opacity=".455"/><stop offset=".697" stop-color="#557582" stop-opacity=".227"/><stop offset="1" stop-color="#6496af" stop-opacity="0"/></linearGradient><path class="st23" d="M4873.1 2696.7l18.3-1-18.4 122-17.3-3.7 17.4-117.3"/><path id="bottom_bg" class="st24" d="M4867.9 2690.4s1.8-1.9 2-2.8c0 0 .9-1.7-1.1-1.1l-.9.8s-1.5-.1-1.7 2.1l-1 .6s-1.2-.6-2.8.2c0 0-3.8-3.9-4-4.1 0 0-.1-2.1-2.2-1.1 0 0-1 1.5.4 2.1l2.5 4.7.2 2.6 2.4 32.4-7.5 51.3-3.3 27.8-1.1 7.9s2.1 4.3 5.2 0c0 0 1.6-2 2.4-8.2 0 0 .6-5 1.7-6.5 1.1-1.4 1.3-5 1.4-7.5 0 0 1.5-4.6 1.2-7 0 0 .9-3.6.9-5.5 0 0 .9-5.2 1.5-6.1 0 0-.3-1.5.5-3.5 0 0 .1-4.2-.2-5 0 0 .7-5.9 2-8.5 0 0 1.4-11.4 2.2-13.6l1-7.3s.4-7.6 2.5-12c0 0 .9-3.7.3-5.7 0 0-.7-2.9 1.7-8.6 0 0 .8-14.5-4.6-17 0 0 .3-.2-.2-.6 0 0 .1-.6-1.3-.6"/><path class="st25" d="M4849.5 2813.1c.6.1.4 1 .4 1 2.4.4 3.2-1.4 3.2-1.4.1-2.2.7-2.6.7-2.6l.5-2.1c0-2.3 2-8.5 2-8.5 1.9-3.9 1.6-7.8 1.6-7.8 1.4-4.1 2.6-16 2.6-16 2.2-5.4 1.1-6.2 1.1-6.2v-5.2l.7-4.4c1.6-4.6 3.1-18.8 3.1-18.8.7-8.4-3.6-9.6-3.6-9.6 7.2-10.2 6.7-31.9 6.7-31.9-.4-5-4.6-4.1-4.6-4.1-.7-.3-2-.4-2-.4l-.8.1-.5-.7-.7-1.7-1.2-1.6-9.2 121.9z"/><path class="st26" d="M4849.9 2814s-8.7.6-8.7-12.6c0 0-4.1-13.2-1-25.9 0 0-.3-4.4 1.2-10.5 0 0 .5-8.6 3.3-15.5 0 0-2-5.1 2.1-15.2 0 0 .1-3.1 1.8-7.8 0 0 .1-11.8 5.9-18.8l1-4s1.2-8.9 1.7-10c0 0-.9-1.8 1.2-3l1.3 1.9.7 1.7.5.7.8-.1s1.3.1 2 .4c0 0 4.2-.8 4.6 4.1 0 0 .5 21.6-6.7 31.9 0 0 4.3 1.2 3.6 9.6 0 0-1.5 14.1-3.1 18.8l-.7 4.4v5.2s1 .7-1.1 6.2c0 0-1.2 12-2.6 16 0 0 .3 3.9-1.6 7.8 0 0-2 6.2-2 8.5l-.5 2.1s-.7.4-.7 2.6c.2.1-.5 1.9-3 1.5z"/><path class="st27" d="M4844.7 2749.7s1.4 1 2.2.3c0 0 4-2.4 5.2-2.8 0 0 4.2-3.1 5.5-5.2 0 0 2.6-4.2 3.6-9.6 0 0-.3-.7-1.3-.2 0 0 3.2-1.6 4.9-7.6 0 0 5.3-20 2.9-27.1 0 0-1-2.1-2.5-2.2 0 0 2.6.1 3.3 3.4 0 0 .5 4.1-.3 10.5 0 0-.8 6.3-1 7.2 0 0-1.3 7.3-2.1 8.2 0 0-1.4 4.4-3.5 7 0 0-1.7 8.5-3.8 10.5 0 0-2.4 3.2-5.5 5.2 0 0-3.8 1.9-4.7 2.5-.2.2-1.7 1.4-2.9-.1z"/><linearGradient id="SVGID_7_" gradientUnits="userSpaceOnUse" x1="3894.41" y1="4179.862" x2="4015.71" y2="4179.862" gradientTransform="rotate(-82.2 3590.1 2948.558)"><stop offset=".001" stop-color="#e0940b"/><stop offset="1" stop-color="#948b7f"/></linearGradient><path class="st28" d="M4848.2 2813.8s13.8-56.6 7.7-69.6l1.2-1.4 1.3-1.6.6-1.4 1.1-2.8.6-2.1.3-1 .3-1.6.2-1.2.8-.8 1-1.8.7-1.3.7-1.7.4-1.2.8-2.9 1-4.9.5-2.8.5-3 .4-3.3.3-3.7v-3.3l-.2-1.5-.3-1.3-.5-.9-.8-.8-.5-.3-.2-.1 2.6-1.3.4.5.3 1 .5 1.9.3 1.4.3 1.7v5.2l-.1 2.5-.4 3-.3 2-.2 1.1-.1.9-.2 3.3-.2 2-.3 1.7-.6 2.3-.6 1.9-.9 3.2-.2 2.2-.4 4.1-.2 1.3v.4l.1.7s-.8 6.4-1.1 8c-.3 1.5-1.6 11.7-2.3 12.9 0 0-.9 3.9-.8 5.5v4s.6 1.3-.3 4l-.9 2.5s-.2 2.9-.4 3.3c0 0-.5 5-.9 6.7 0 0-.7 5.1-1.3 6.1v1s-.1 4-1.2 6l-.7 1.8s-1.7 6.3-1.6 7.5c0 .5-.3 1.4-.6 2.1 0 0-.9 1.8-.7 2.7 0 0-.8 2.4-4.9 1.2z"/><path class="st29" d="M4865.7 2737.8s.8-6.1.6-7.7c0 0 2.5-6.9 2.5-8.8 0 0 .2-5 .6-6.7 0 0 2.2-14.3-.7-20.3 0 0 2.7-.9 2.8-1.1 0 0-2.1 1.1-2.4 1.2 0 0 1.5 5.3 1.5 7.1 0 0 .2 5.9-.1 7.9 0 0-.7 4.6-1 5.4 0 0-.2 6.2-.5 7 0 0-.7 3.2-1.4 4.8 0 0-.3 1.4-.4 1.9 0 0-.7 1.7-.6 3.3 0 0-.9 6.1-.9 8.2v-2.2z"/></g></svg>