<svg xmlns="http://www.w3.org/2000/svg" xmlns:xlink="http://www.w3.org/1999/xlink" viewBox="0 0 600 100"><style>.st0{clip-path:url(#SVGID_2_)}.st1{fill:url(#SVGID_3_)}.st2{fill:#003c6c}.st3{fill:#FFF}.st4{fill:#fdc700}.st5,.st6{fill:none;stroke:#fdc700;stroke-width:2;stroke-linecap:round;stroke-linejoin:round}.st6{stroke-dasharray:.9813,4.9067}</style><g id="Background"><defs><path id="SVGID_1_" d="M588 100H12c-6.6 0-12-5.4-12-12V12C0 5.4 5.4 0 12 0h576c6.6 0 12 5.4 12 12v76c0 6.6-5.4 12-12 12z"/></defs><clipPath id="SVGID_2_"><use xlink:href="#SVGID_1_" overflow="visible"/></clipPath><g class="st0"><radialGradient id="SVGID_3_" cx="295.442" cy="166.185" r="185.327" fx="271.215" fy="166.185" gradientTransform="matrix(0 2 -5.1919 0 1153.702 -308.516)" gradientUnits="userSpaceOnUse"><stop offset="0" stop-color="#ff772a"/><stop offset="1" stop-color="#1083c9"/></radialGradient><path class="st1" d="M-9.1-50h613.6v367.3H-9.1z"/><path class="st2" d="M603.5-49v365.3H-8.1V-49h611.6m2-2H-10.1v369.3h615.6V-51z"/></g><g><path class="st2" d="M588 2c5.5 0 10 4.5 10 10v76c0 5.5-4.5 10-10 10H12C6.5 98 2 93.5 2 88V12C2 6.5 6.5 2 12 2h576m0-2H12C5.4 0 0 5.4 0 12v76c0 6.6 5.4 12 12 12h576c6.6 0 12-5.4 12-12V12c0-6.6-5.4-12-12-12z"/></g></g><g id="Headline"><path class="st3" d="M37.9 25v15.2c0 2.7.2 6.1 5.4 6.1.9 0 3.5 0 4.8-2.2.5-.8.8-1.7.8-4.2V25h5.2v15.6c0 7.4-5.9 9.8-10.9 9.8-2.5 0-7-.6-9.4-4.3-1.2-1.9-1.3-3.8-1.3-6.1V25h5.4zM73.4 33.1c-.1-.9-.4-4.4-4-4.4-4 0-5.6 4.1-5.6 9.3 0 1.5 0 8.6 5.2 8.6 2.2 0 4.4-1.4 4.5-4.7H79c-.1 1.5-.2 3.8-2.2 5.9-2.2 2.3-5 2.8-7.3 2.8-8.6 0-11.4-6.4-11.4-12.5 0-7.9 4.4-13.2 11.4-13.2 5.5 0 9.3 3.3 9.3 8.3h-5.4zM96.2 41.9c0 1.2-.1 4.7 4.5 4.7 2.9 0 4.7-1.4 4.7-3.5 0-2.2-1.6-2.6-4.7-3.3-5.9-1.5-9.2-3.2-9.2-7.6 0-4.1 2.9-7.7 9.9-7.7 2.6 0 5.7.6 7.5 2.9 1.4 1.8 1.4 3.8 1.4 4.6h-5.1c-.1-.9-.3-3.8-4-3.8-2.5 0-4.1 1.3-4.1 3.4 0 2.3 1.8 2.7 5.4 3.6 4.3 1 8.6 2.2 8.6 7.1 0 4.5-3.7 8.1-10.6 8.1-9.6 0-9.6-6.1-9.7-8.6h5.4zM128.1 25l8.7 25h-5.4l-1.8-5.4h-9.9l-1.9 5.4h-5.1l9-25h6.4zm.1 15.5l-3.5-10.6-3.7 10.6h7.2zM140 25h7.7l9.4 19.6V25h5v25h-7.4L145 29.2v20.7h-5V25zM172.2 29.1h-7.4V25H185v4.1h-7.4v20.8h-5.4V29.1zM197.7 25l8.7 25H201l-1.8-5.4h-9.9l-1.9 5.4h-5.1l9-25h6.4zm.1 15.5l-3.5-10.6-3.7 10.6h7.2zM233.1 33.1c-.1-.9-.4-4.4-4-4.4-4 0-5.6 4.1-5.6 9.3 0 1.5 0 8.6 5.2 8.6 2.2 0 4.4-1.4 4.5-4.7h5.6c-.1 1.5-.2 3.8-2.2 5.9-2.2 2.3-5 2.8-7.3 2.8-8.6 0-11.4-6.4-11.4-12.5 0-7.9 4.4-13.2 11.4-13.2 5.5 0 9.3 3.3 9.3 8.3h-5.5zM241.8 25h9.6c2.8 0 5.6 0 7.6 1.7 1.6 1.3 2.2 3.2 2.2 4.8 0 4.7-4 5.8-5.2 6.1 3.8.3 4 2.5 4.5 5.7.4 2.9.6 4.1.8 4.8.3 1.1.5 1.4.8 1.8h-5.9c-.2-1.4-1-7.7-1.3-8.7-.5-1.4-1.8-1.4-2.7-1.4h-4.7v10.1H242V25zm5.2 10.9h4.3c.6 0 1.9 0 2.7-.7.4-.3 1.4-1.1 1.4-2.9 0-1.7-.8-2.5-1.3-2.8-.8-.6-1.8-.6-3.5-.6H247v7zM270.5 25v15.2c0 2.7.2 6.1 5.4 6.1.9 0 3.5 0 4.8-2.2.5-.8.8-1.7.8-4.2V25h5.2v15.6c0 7.4-5.9 9.8-10.9 9.8-2.5 0-7-.6-9.4-4.3-1.2-1.9-1.3-3.8-1.3-6.1V25h5.4zM290.5 45.4l13-16.3-12.3.1v-4.1h18.1v4.7l-13 16.2 13.3-.2v4.1h-19.1v-4.5z"/><path class="st4" d="M342.6 25l8.7 25h-5.4l-1.8-5.4h-9.9l-1.9 5.4h-5.1l9-25h6.4zm.2 15.5l-3.5-10.6-3.7 10.6h7.2zM354.4 25h5.5v20.7h10.7v4.2h-16.2V25zM379 25v15.2c0 2.7.2 6.1 5.4 6.1.9 0 3.5 0 4.8-2.2.5-.8.8-1.7.8-4.2V25h5.2v15.6c0 7.4-5.9 9.8-10.9 9.8-2.5 0-7-.6-9.4-4.3-1.2-1.9-1.3-3.8-1.3-6.1V25h5.4zM400.1 25h8.7l5.3 18.2 5.7-18.2h8.5v25H423V28.5l-6.8 21.4h-4.4l-6.7-21.4v21.4h-5V25zM433.1 25h7.7l9.4 19.6V25h5v25h-7.4l-9.7-20.7V50h-5V25zM459.6 24.9h5.3v25h-5.3v-25zM478.4 25.1l3.9 18.7 4.9-18.7h6l4.4 18.7 4-18.7h5.1L500.4 50h-5.9L490 30.9 485 50h-6l-6.1-24.9h5.5zM509.4 25h16.7v4h-11.4v6h10.6v4h-10.6v6.7h11.7v4.1h-17.1V25zM530.5 25h16.7v4h-11.4v6h10.6v4h-10.6v6.7h11.7v4.1h-17.1V25zM551.4 25h5.3v10.7l8.4-10.8h6.2l-9.1 11.2 9.9 13.8h-6.7l-8.7-12.7v12.7h-5.3V25z"/><g><path class="st3" d="M159.5 61.1h5.7l10.3 20.1h-5.3l-2.3-4.5h-11.6l-2.1 4.5h-4.8l10.1-20.1zm6.6 12.3l-4.2-8.7-4.2 8.7h8.4zM178.4 61.1h9.8c6.3 0 9 2.2 9 6.5 0 2.3-1.2 6.1-8.2 6.1h-6v7.5h-4.5V61.1zm4.5 9.3h5.3c2.4 0 4.3-.7 4.3-2.9 0-2.7-2.5-3.1-5.1-3.1h-4.5v6zM201.1 61.1h12.1c4.4 0 7.7 1.4 7.7 5.4 0 3.5-2.4 5-5.5 5.2v.1c4.6.2 5 2.3 5.2 6 .1 1.7.3 2.7.6 3.5h-4.8c-.3-.6-.4-2-.4-3.2-.2-4-1.1-4.8-5.5-4.8h-4.8v7.9h-4.5V61.1zm4.5 9h5.8c2.6 0 4.8-.6 4.8-3s-2.2-2.8-4.6-2.8h-6v5.8zM226 61.1h4.5v20.1H226V61.1zM235.8 61.1h4.5v16.8h11v3.3h-15.6V61.1zM266.2 64.9c2.6-.8 4.1-1.6 5.7-3h4.1v19.3h-4.2V65.8c-1.2 1.1-3.4 2.1-5.6 2.8v-3.7zM288.8 75.9c.3 2 1.7 2.9 4 2.9 4.4 0 5-3.3 5-6v-.7c-1.6 1.6-3.6 2.1-5.9 2.1-4 0-7.7-1.8-7.7-6.1 0-4.1 3.2-6.7 8.7-6.7 6.8 0 9.2 3.5 9.2 10.4 0 7.5-3.6 9.9-9.6 9.9-4.8 0-7.9-2.3-7.9-5.3v-.6h4.2zm-.3-7.9c0 1.7 1.5 3.3 4.2 3.3 2.5 0 4.5-1.3 4.5-3.4 0-2.2-1.8-3.5-4.4-3.5-3.1 0-4.3 1.8-4.3 3.6zM312.5 72.2v3.1h-7.7v-3.1h7.7zM315.2 77.5l3.7-2.2c6.6-3.9 8.9-5.9 8.9-8 0-1.6-1.6-2.8-3.8-2.8-2.5 0-3.9 1.2-3.9 3v.3h-4.4c0-4.1 2.5-6.4 8.5-6.4s7.9 3.1 7.9 5.7c0 2.8-1.9 5.6-8.7 9.3l-3 1.6v.1h12.1v3.1h-17.4v-3.7zM350.8 61.9v11.9h3.6v3.1h-3.6v4.3h-4.2v-4.3H335v-4.3l10.4-10.7h5.4zm-4.3 11.9v-8.1l-7.7 8.1h7.7zM363.5 77.3l-3.6 6.2h-3.3l2.4-6.2h4.5zM377 77.5l3.7-2.2c6.6-3.9 8.9-5.9 8.9-8 0-1.6-1.6-2.8-3.8-2.8-2.5 0-3.9 1.2-3.9 3v.3h-4.4c0-4.1 2.5-6.4 8.5-6.4s7.9 3.1 7.9 5.7c0 2.8-1.9 5.6-8.7 9.3l-3 1.6v.1h12.1v3.1H377v-3.7zM406.5 81.7c-6.1 0-9-4.1-9-10.2 0-4.9 1.8-10.2 9.3-10.2 5.5 0 8.8 3.8 8.8 10.2-.1 6.1-3 10.2-9.1 10.2zm.2-3c3.7 0 4.5-3.9 4.5-7.1 0-5.1-1.6-7.3-4.5-7.3-2.6 0-4.8 1.4-4.8 7.2-.1 4.3 1.2 7.2 4.8 7.2zM418.2 77.5l3.7-2.2c6.6-3.9 8.9-5.9 8.9-8 0-1.6-1.6-2.8-3.8-2.8-2.5 0-3.9 1.2-3.9 3v.3h-4.4c0-4.1 2.5-6.4 8.5-6.4s7.9 3.1 7.9 5.7c0 2.8-1.9 5.6-8.7 9.3l-3 1.6v.1h12.1v3.1h-17.4v-3.7zM438.8 77.5l3.7-2.2c6.6-3.9 8.9-5.9 8.9-8 0-1.6-1.6-2.8-3.8-2.8-2.5 0-3.9 1.2-3.9 3v.3h-4.4c0-4.1 2.5-6.4 8.5-6.4s7.9 3.1 7.9 5.7c0 2.8-1.9 5.6-8.7 9.3l-3 1.6v.1h12.1v3.1h-17.4v-3.7z"/></g><g><path class="st5" d="M468.5 72.2h.5"/><path class="st6" d="M473.9 72.2h97.7"/><path class="st5" d="M574 72.2h.5"/></g><g><path class="st5" d="M33 72.2h.5"/><path class="st6" d="M38.4 72.2h97.7"/><path class="st5" d="M138.5 72.2h.5"/></g></g></svg>