<svg xmlns="http://www.w3.org/2000/svg" xmlns:xlink="http://www.w3.org/1999/xlink" viewBox="0 0 1280 623"><style>.st0{fill:#183e6b}.st1{opacity:.25}.st2{clip-path:url(#SVGID_2_)}.st3{fill:#0e0e0e;stroke:url(#SVGID_3_);stroke-width:.5;stroke-miterlimit:10}.st4{stroke:url(#SVGID_4_)}.st4,.st5{fill:#0e0e0e;stroke-width:.5;stroke-miterlimit:10}.st5{stroke:url(#SVGID_5_)}.st6{stroke:url(#SVGID_6_)}.st6,.st7{fill:#0e0e0e;stroke-width:.5;stroke-miterlimit:10}.st7{stroke:url(#SVGID_7_)}.st8{stroke:url(#SVGID_8_)}.st8,.st9{fill:#0e0e0e;stroke-width:.5;stroke-miterlimit:10}.st9{stroke:url(#SVGID_9_)}.st10{stroke:url(#SVGID_10_)}.st10,.st11{fill:#0e0e0e;stroke-width:.5;stroke-miterlimit:10}.st11{stroke:url(#SVGID_11_)}.st12{stroke:url(#SVGID_12_)}.st12,.st13{fill:#0e0e0e;stroke-width:.5;stroke-miterlimit:10}.st13{stroke:url(#SVGID_13_)}.st14{stroke:url(#SVGID_14_)}.st14,.st15{fill:#0e0e0e;stroke-width:.5;stroke-miterlimit:10}.st15{stroke:url(#SVGID_15_)}.st16{stroke:url(#SVGID_16_)}.st16,.st17{fill:#0e0e0e;stroke-width:.5;stroke-miterlimit:10}.st17{stroke:url(#SVGID_17_)}.st18{stroke:url(#SVGID_18_)}.st18,.st19{fill:#0e0e0e;stroke-width:.5;stroke-miterlimit:10}.st19{stroke:url(#SVGID_19_)}.st20{stroke:url(#SVGID_20_)}.st20,.st21{fill:#0e0e0e;stroke-width:.5;stroke-miterlimit:10}.st21{stroke:url(#SVGID_21_)}.st22{stroke:url(#SVGID_22_)}.st22,.st23{fill:#0e0e0e;stroke-width:.5;stroke-miterlimit:10}.st23{stroke:url(#SVGID_23_)}.st24{stroke:url(#SVGID_24_)}.st24,.st25{fill:#0e0e0e;stroke-width:.5;stroke-miterlimit:10}.st25{stroke:url(#SVGID_25_)}.st26{stroke:url(#SVGID_26_)}.st26,.st27{fill:#0e0e0e;stroke-width:.5;stroke-miterlimit:10}.st27{stroke:url(#SVGID_27_)}.st28{stroke:url(#SVGID_28_)}.st28,.st29{fill:#0e0e0e;stroke-width:.5;stroke-miterlimit:10}.st29{stroke:url(#SVGID_29_)}.st30{stroke:url(#SVGID_30_)}.st30,.st31{fill:#0e0e0e;stroke-width:.5;stroke-miterlimit:10}.st31{stroke:url(#SVGID_31_)}.st32{stroke:url(#SVGID_32_)}.st32,.st33{fill:#0e0e0e;stroke-width:.5;stroke-miterlimit:10}.st33{stroke:url(#SVGID_33_)}.st34{stroke:url(#SVGID_34_)}.st34,.st35{fill:#0e0e0e;stroke-width:.5;stroke-miterlimit:10}.st35{stroke:url(#SVGID_35_)}.st36{stroke:url(#SVGID_36_)}.st36,.st37{fill:#0e0e0e;stroke-width:.5;stroke-miterlimit:10}.st37{stroke:url(#SVGID_37_)}.st38{stroke:url(#SVGID_38_)}.st38,.st39{fill:#0e0e0e;stroke-width:.5;stroke-miterlimit:10}.st39{stroke:url(#SVGID_39_)}.st40{stroke:url(#SVGID_40_)}.st40,.st41{fill:#0e0e0e;stroke-width:.5;stroke-miterlimit:10}.st41{stroke:url(#SVGID_41_)}.st42{stroke:url(#SVGID_42_)}.st42,.st43{fill:#0e0e0e;stroke-width:.5;stroke-miterlimit:10}.st43{stroke:url(#SVGID_43_)}.st44{stroke:url(#SVGID_44_)}.st44,.st45{fill:#0e0e0e;stroke-width:.5;stroke-miterlimit:10}.st45{stroke:url(#SVGID_45_)}.st46{stroke:url(#SVGID_46_)}.st46,.st47{fill:#0e0e0e;stroke-width:.5;stroke-miterlimit:10}.st47{stroke:url(#SVGID_47_)}</style><path class="st0" d="M0 0h1280v623H0z" id="background"/><g class="st1" id="Layer_2"><defs><path id="SVGID_1_" class="st1" d="M.2 0h1280v623H.2z"/></defs><clipPath id="SVGID_2_"><use xlink:href="#SVGID_1_" overflow="visible"/></clipPath><g class="st2"><linearGradient id="SVGID_3_" gradientUnits="userSpaceOnUse" x1="-39.878" y1="311.5" x2="1336.649" y2="311.5"><stop offset="0" stop-color="#016bae"/><stop offset=".497" stop-color="#fdc70c"/><stop offset="1" stop-color="#db206d"/></linearGradient><path class="st3" d="M547.6 483.6h-3.1c-15.7-.3-30.9-2.5-45.2-6.6-15-4.4-28.8-10.8-41.2-19.3-16-10.9-30.6-25.6-44.7-45-12.5-17.3-23.5-36.6-34.1-55.3-14.2-25.1-28.8-51-47.6-72.7-52.4-60.6-139.5-87.3-216.9-66.3-77.2 20.9-139 87.8-153.7 166.6l-.6-.1c3.6-19.3 10.2-38.3 19.5-56.3 9.1-17.6 20.6-34.1 34.3-48.9 13.7-14.8 29.1-27.6 46-38.1 17.3-10.7 35.6-18.7 54.6-23.9 19-5.1 38.9-7.5 59.2-6.9 19.8.5 39.7 3.8 58.9 9.7 19.3 5.9 37.5 14.3 54.2 24.9 17.1 10.9 32.3 24 45.2 38.9 18.8 21.8 33.5 47.7 47.7 72.8 21.1 37.3 42.9 75.9 78.5 100.1 47.1 32.1 114.5 34.6 175.8 6.5 47.4-21.8 90-58.5 138-119.2 13.2-16.7 26.1-34.1 38.5-50.9 23.5-31.8 47.8-64.7 75.3-93.9 17.9-19 35.7-33.7 53.1-43.7 21.6-12.4 43.1-17.9 63.8-16.3 15.8 1.2 31.6 6.6 48.6 16.3 15.1 8.6 29.5 19.9 43.5 30.7 10.1 7.8 20.5 15.9 31 23 60.4 40.4 140.9 51.7 210.1 29.7l.2.6c-34.3 10.9-71.9 13.9-108.7 8.7-36.8-5.2-72.1-18.5-102-38.5-10.6-7-21-15.1-31.1-23-27.9-21.7-56.8-44.1-91.7-46.9-37.1-2.9-76.2 17.2-116.3 59.8-27.5 29.2-51.8 62.1-75.2 93.9-12.4 16.8-25.3 34.3-38.5 50.9-21.9 27.6-42.3 49.9-62.5 68.1-24.9 22.5-49.7 39.3-75.8 51.2-14.1 6.4-28.9 11.4-44 14.7-14.5 3.1-29 4.7-43.1 4.7z"/><linearGradient id="SVGID_4_" gradientUnits="userSpaceOnUse" x1="-41.614" y1="311.427" x2="1340.631" y2="311.427"><stop offset="0" stop-color="#016bae"/><stop offset=".497" stop-color="#fdc70c"/><stop offset="1" stop-color="#db206d"/></linearGradient><path class="st4" d="M538.2 480.4h-4.3c-32.5-.7-62.3-10-86.1-26.8-15.7-11-29.9-25.7-43.5-45-12.1-17.2-22.7-36.4-32.9-55-13.8-25.1-28-51.1-46.5-72.9-51.1-60.1-136.7-87-212.9-66.9-76.3 20.1-137.6 85.6-152.5 163l-.6-.1c3.7-19 10.2-37.6 19.5-55.4 9.1-17.3 20.5-33.4 34.1-47.9 13.5-14.5 28.9-27 45.5-37.2 17.1-10.4 35.2-18.2 53.9-23.1 18.7-4.9 38.3-7.1 58.3-6.4 19.5.7 39 4 57.9 10 18.9 5.9 36.8 14.3 53.2 25 16.8 10.9 31.6 23.9 44.2 38.6 18.5 21.9 32.8 47.9 46.6 73 20.4 37.1 41.4 75.4 76.3 99.8 46 32.5 115.1 35.5 175.9 7.7 60.3-27.6 105.8-78.3 138.7-119.4 12-15 23.8-30.7 35.2-45.8 25.1-33.3 51-67.7 80.8-97.3 18.4-18.2 36.9-32.2 55.2-41.5 22.2-11.3 44.1-15.9 65.3-13.6 15.8 1.7 31.8 7.3 48.9 17.2 15.2 8.8 29.8 20.1 44 31.1 10.5 8.1 21.4 16.5 32.4 23.8 62.8 41.7 143.4 53.5 215.6 31.8l.2.6c-35.3 10.6-73.9 13.3-111.5 7.8-37.7-5.5-73.8-19.3-104.6-39.7-11-7.3-21.9-15.7-32.4-23.8-28.3-21.8-57.5-44.4-92.5-48.2-38.7-4.2-79 14.3-120 54.9-29.8 29.6-55.7 64-80.8 97.2-11.4 15.1-23.2 30.8-35.2 45.8-22.5 28.2-42.5 49.8-62.9 68.2-25.1 22.6-49.9 39.4-76.1 51.4-14.1 6.5-29 11.4-44.2 14.6-14.3 2.9-28.4 4.5-42.2 4.5z"/><linearGradient id="SVGID_5_" gradientUnits="userSpaceOnUse" x1="-43.349" y1="311.353" x2="1344.613" y2="311.353"><stop offset="0" stop-color="#016bae"/><stop offset=".497" stop-color="#fdc70c"/><stop offset="1" stop-color="#db206d"/></linearGradient><path class="st5" d="M528.9 477.1c-1.9 0-3.7 0-5.6-.1-32.6-1-62.3-10.5-86-27.7-15.3-11.1-29.1-25.8-42.3-45-11.7-17.1-21.9-36.2-31.8-54.7-13.4-25.2-27.3-51.2-45.5-73.1C268 217 184 189.9 108.8 209.1c-75.3 19.2-136 83.2-151.2 159.4l-.6-.1c3.7-18.7 10.3-37 19.5-54.4 9-17 20.4-32.8 33.8-46.9 13.4-14.2 28.6-26.3 45.1-36.3 16.9-10.1 34.8-17.7 53.2-22.4 18.5-4.7 37.8-6.7 57.4-5.8 19.2.8 38.3 4.3 56.9 10.2 18.6 6 36.1 14.4 52.1 25 16.4 10.8 30.9 23.7 43.2 38.3 18.3 22 32.1 48 45.6 73.2 19.6 36.8 39.9 74.9 73.9 99.5 45.9 33.3 115 36.7 176.1 8.9 59.9-27.3 105.9-78.2 139.4-119.5 11-13.6 21.8-27.7 32.3-41.3 26.5-34.6 54-70.3 86-100 18.8-17.5 38.2-30.8 57.4-39.4 22.7-10.2 45.2-13.9 66.8-10.9 15.8 2.2 31.9 8.1 49.1 18.2 15.3 9 30.1 20.4 44.5 31.3 11 8.4 22.3 17.1 33.8 24.7 64.4 42.4 147 55 221 33.8l.2.6c-18.3 5.2-37.4 8.4-56.8 9.6-19.1 1.1-38.5.2-57.6-2.7-19.1-2.9-37.9-7.8-55.8-14.6-18.2-6.9-35.5-15.7-51.4-26.2-11.5-7.6-22.9-16.3-33.9-24.8-28.6-21.9-58.2-44.6-93.3-49.4-50.1-7-94.9 23.4-123.7 50.1-31.8 29.8-59.3 65.5-85.8 100-10.5 13.7-21.3 27.8-32.3 41.4-23 28.4-43.1 50-63.3 68.2-25.2 22.7-50.2 39.6-76.3 51.5-14.1 6.5-29.1 11.3-44.4 14.5-13.6 2.9-27.3 4.3-40.8 4.3z"/><linearGradient id="SVGID_6_" gradientUnits="userSpaceOnUse" x1="-45.085" y1="311.279" x2="1348.596" y2="311.279"><stop offset="0" stop-color="#016bae"/><stop offset=".497" stop-color="#fdc70c"/><stop offset="1" stop-color="#db206d"/></linearGradient><path class="st6" d="M519.6 474c-2.3 0-4.5 0-6.8-.1-32.7-1.2-62.4-11.1-85.8-28.6-14.9-11.1-28.3-25.8-41-44.9-11.3-17-21.1-35.9-30.6-54.2-13.1-25.3-26.6-51.5-44.6-73.6-38.3-46.8-98-73.7-158.1-73.7-15.7 0-31.5 1.8-46.9 5.7-74.3 18.3-134.5 80.9-150 155.8l-.6-.1c3.8-18.4 10.4-36.3 19.6-53.4 9-16.6 20.3-32.1 33.6-45.9 13.3-13.8 28.3-25.7 44.6-35.4 16.7-9.9 34.4-17.1 52.5-21.6 18.2-4.5 37.2-6.3 56.6-5.3 18.9.9 37.7 4.5 55.9 10.5 18.2 6 35.4 14.4 51.1 25 16.1 10.8 30.2 23.6 42.1 38.1 18.1 22.1 31.6 48.3 44.7 73.7 18.8 36.5 38.3 74.2 71.4 98.9 45.6 34.1 114.8 38 176.3 10.1 59-26.8 103.9-75.6 140-119.7 10.1-12.3 20-25 29.7-37.4 27.9-35.7 56.8-72.6 90.9-102.2 19.4-16.8 39.4-29.4 59.6-37.3 23.2-9.1 46.2-11.9 68.3-8.1 15.9 2.6 32 8.9 49.4 19.1 15.5 9.2 30.4 20.6 44.9 31.6 11.5 8.8 23.3 17.8 35.4 25.7 65.9 43.1 150.6 56.5 226.5 35.9l.2.6c-23.5 6.4-47.8 9.5-72.1 9.5-54.5 0-109.1-15.6-154.8-45.5-12.1-7.9-23.9-16.9-35.4-25.7-28.9-22.1-58.8-44.9-94-50.6-52.1-8.8-98 19.8-127.4 45.3-34 29.6-62.9 66.5-90.8 102.1-9.6 12.3-19.6 25.1-29.7 37.4-23.4 28.6-43.6 50.3-63.6 68.3-25.4 22.8-50.4 39.7-76.6 51.6-14.2 6.5-29.2 11.3-44.5 14.5-13.5 2.5-26.9 3.9-40 3.9z"/><linearGradient id="SVGID_7_" gradientUnits="userSpaceOnUse" x1="-46.82" y1="311.203" x2="1352.579" y2="311.203"><stop offset="0" stop-color="#016bae"/><stop offset=".497" stop-color="#fdc70c"/><stop offset="1" stop-color="#db206d"/></linearGradient><path class="st7" d="M510.2 470.9c-2.7 0-5.3-.1-7.9-.2-32.8-1.4-62.4-11.6-85.6-29.5-14.5-11.2-27.6-25.9-39.8-44.8-10.9-16.9-20.3-35.7-29.4-53.9-12.7-25.4-25.8-51.6-43.6-73.8-37.5-46.8-96.7-73.9-156.5-73.9-15 0-30 1.7-44.7 5.2C29.5 217.5-30.2 278.7-46 352.3l-.6-.1c3.9-18 10.5-35.7 19.6-52.4 9-16.3 20.2-31.4 33.4-45 13.2-13.5 28-25.1 44.1-34.5 16.5-9.6 33.9-16.6 51.9-20.9 17.9-4.3 36.7-5.9 55.7-4.8 18.6 1.1 37.1 4.7 54.9 10.8 17.9 6.1 34.7 14.5 50.1 25 15.7 10.8 29.5 23.5 41 37.9 17.8 22.2 30.9 48.5 43.6 73.9 18.1 36.2 36.8 73.7 69.1 98.5 45.3 34.9 114.6 39.3 176.5 11.3 58.5-26.5 104-75.5 140.7-119.9 9.2-11.1 18.3-22.6 27.2-33.7 29.3-36.8 59.5-74.8 95.6-104.1 19.9-16.2 40.6-28 61.8-35.1 23.7-8 47.2-9.9 69.8-5.5 15.9 3.1 32.1 9.7 49.6 20.1 15.6 9.3 30.7 20.8 45.3 31.9 12 9.1 24.3 18.4 36.9 26.6 47.3 30.7 104.1 46.9 160.6 46.9 24.1 0 48-2.9 71.3-8.9l.1.6c-19.3 5-39.3 7.9-59.7 8.7-20.1.8-40.3-.4-60.3-3.7-20-3.3-39.6-8.6-58.4-15.7-19-7.3-37.2-16.5-54-27.3-12.6-8.2-25-17.6-36.9-26.6-29.2-22.1-59.4-45-94.7-51.9-42.3-8.2-88.9 6.2-131 40.5-36 29.3-66.2 67.3-95.5 104-8.8 11.1-18 22.6-27.2 33.7-36.8 44.4-82.3 93.5-140.9 120.1-14.2 6.5-29.3 11.3-44.7 14.4-12.9 2.5-25.9 3.8-38.7 3.8z"/><linearGradient id="SVGID_8_" gradientUnits="userSpaceOnUse" x1="-48.556" y1="311.127" x2="1356.563" y2="311.127"><stop offset="0" stop-color="#016bae"/><stop offset=".497" stop-color="#fdc70c"/><stop offset="1" stop-color="#db206d"/></linearGradient><path class="st8" d="M500.8 468c-3 0-6.1-.1-9.1-.2-32.9-1.6-62.5-12.1-85.4-30.4-14.2-11.3-26.8-25.9-38.7-44.8-10.6-16.9-19.6-35.5-28.3-53.6-12.3-25.5-25-51.8-42.5-74.1C251.3 206.8 172 179 99.6 195.7 27.4 212.3-31.7 272-47.7 344.3l-.5-.1c3.9-17.7 10.5-35 19.7-51.4 8.9-16 20.1-30.8 33.2-44 13.1-13.2 27.8-24.5 43.7-33.6 16.3-9.3 33.5-16.1 51.2-20.1 17.7-4.1 36.1-5.5 54.8-4.3 18.3 1.2 36.4 4.9 54 11.1 17.5 6.1 34 14.6 49 25 15.4 10.7 28.8 23.4 40 37.6 17.5 22.4 30.3 48.7 42.6 74.2 17.4 36 35.3 73.1 66.8 98.1 45 35.7 114.3 40.6 176.6 12.5 57.8-26.2 102.1-73.2 141.4-120.1 8.4-10 16.7-20.3 24.8-30.3 30.6-37.8 62.2-76.8 100.2-105.8 20.4-15.5 41.9-26.6 64-33 24.2-7 48.1-7.9 71.2-2.8 15.9 3.5 32.2 10.4 49.7 21 15.7 9.5 30.9 21 45.7 32.1 12.5 9.4 25.4 19.2 38.6 27.6 49.1 31.7 108.2 48.4 166.9 48.4 23.8 0 47.5-2.7 70.4-8.3l.1.5c-19.8 4.8-40.3 7.6-61.1 8.3-20.5.7-41.3-.8-61.7-4.2-20.4-3.4-40.5-8.9-59.7-16.3-19.5-7.4-38.1-16.8-55.2-27.9-13.2-8.5-26.1-18.2-38.6-27.7-29.5-22.2-59.9-45.2-95.2-53-43.9-9.7-91.8 2.9-134.7 35.7-37.9 28.9-69.6 67.9-100.1 105.7-8.1 10-16.4 20.3-24.8 30.3-24.6 29.4-44.5 50.5-64.4 68.4-25.7 23-50.9 40-77.1 51.8-14.3 6.5-29.4 11.3-44.9 14.3-13 2.7-25.7 4-38.1 4z"/><linearGradient id="SVGID_9_" gradientUnits="userSpaceOnUse" x1="-50.291" y1="311.052" x2="1360.547" y2="311.052"><stop offset="0" stop-color="#016bae"/><stop offset=".497" stop-color="#fdc70c"/><stop offset="1" stop-color="#db206d"/></linearGradient><path class="st9" d="M491.3 465.1c-3.4 0-6.8-.1-10.2-.3-33.1-1.8-62.5-12.7-85.3-31.3-13.8-11.3-26.1-26-37.5-44.7-10.2-16.8-18.8-35.3-27.2-53.2-11.9-25.5-24.2-51.9-41.4-74.4-43.5-56.6-123-85.3-193.3-69.8-71.1 15.7-129.8 74-146 145l-.5-.1c4-17.4 10.6-34.4 19.7-50.4 8.9-15.6 20-30.1 33-43 13-12.9 27.5-23.9 43.2-32.7 16.1-9 33.1-15.5 50.5-19.4 17.4-3.9 35.6-5.1 54-3.7 18 1.3 35.8 5.2 53 11.3 17.2 6.2 33.3 14.6 48 25 15 10.7 28.1 23.3 38.9 37.4 17.3 22.5 29.6 48.9 41.5 74.5 16.6 35.7 33.8 72.6 64.5 97.8 44 36 115.1 41.5 176.8 13.7 57.3-25.8 102.1-73.1 142-120.2 7.5-8.9 15.1-18.1 22.5-27 15.9-19.4 32.4-39.4 49.6-57.7 19.2-20.6 37.3-36.8 55.2-49.5 20.9-14.9 43.2-25.3 66.2-30.8 24.6-5.9 49.1-5.9 72.7-.1 15.9 3.9 32.2 11.1 49.9 21.9 15.8 9.6 31.1 21.1 46 32.3 13 9.8 26.5 19.9 40.3 28.7 50.9 32.6 112.4 49.9 173.3 49.9 23.5 0 46.9-2.6 69.5-7.8l.1.5c-20.3 4.7-41.3 7.3-62.6 7.8-21 .5-42.2-1.1-63.1-4.7s-41.4-9.3-61-16.8c-19.9-7.6-38.9-17.2-56.5-28.5-13.8-8.8-27.3-19-40.3-28.8-29.7-22.3-60.4-45.3-95.7-54.1-45.6-11.3-94.7-.3-138.4 30.8-39.9 28.4-72.8 68.5-104.7 107.2-7.3 8.9-14.9 18.1-22.5 27-39.9 47.2-84.8 94.5-142.2 120.4-14.3 6.5-29.5 11.3-45.1 14.3-12.4 2.3-24.7 3.5-36.9 3.5z"/><linearGradient id="SVGID_10_" gradientUnits="userSpaceOnUse" x1="-52.027" y1="310.977" x2="1364.531" y2="310.977"><stop offset="0" stop-color="#016bae"/><stop offset=".497" stop-color="#fdc70c"/><stop offset="1" stop-color="#db206d"/></linearGradient><path class="st10" d="M481.9 462.4c-3.8 0-7.6-.1-11.3-.3-33.2-2.1-62.6-13.2-85.1-32.2-13.5-11.4-25.4-26-36.4-44.7-9.8-16.7-18.1-35.1-26-52.9-11.5-25.6-23.4-52.1-40.3-74.6-42.2-56.1-120-85.1-189.3-70.4-70.1 14.8-128.2 71.6-144.7 141.3l-.5-.1c4-17.1 10.7-33.7 19.8-49.4 8.9-15.3 19.9-29.5 32.7-42 12.8-12.6 27.2-23.2 42.7-31.8 15.9-8.7 32.6-15 49.8-18.6 17.2-3.6 35-4.7 53.1-3.2 17.7 1.5 35.1 5.4 52 11.6 16.9 6.2 32.6 14.7 46.9 25.1 14.6 10.6 27.4 23.1 37.9 37.1 17 22.6 28.8 49.1 40.3 74.7 15.9 35.5 32.4 72.2 62.3 97.4 50.4 42.6 125.2 38.1 177 14.9 59.6-26.8 104.9-76.2 142.7-120.4 6.8-7.9 13.6-16 20.1-23.9 16.6-19.8 33.7-40.3 51.6-59 20.1-20.9 39-37.2 57.7-49.7 21.5-14.4 44.5-24 68.4-28.7 25.1-4.9 50-4 74.2 2.6 15.9 4.3 32.2 11.8 50 22.7 15.8 9.7 31.3 21.3 46.3 32.5 13.6 10.2 27.7 20.7 42.1 29.9 53.3 33.9 115.7 51.7 178.3 51.7 23.4 0 46.9-2.5 69.9-7.5l.1.5c-20.8 4.6-42.3 7-64 7.4-21.5.3-43.1-1.4-64.4-5.2-21.3-3.8-42.3-9.6-62.4-17.3-20.3-7.8-39.8-17.6-57.8-29.1-14.4-9.2-28.5-19.7-42.1-29.9-29.9-22.3-60.8-45.4-96.1-55.1-47.2-12.9-97.7-3.7-142.1 26-41.8 27.9-76.1 68.9-109.2 108.6-6.6 7.9-13.4 16-20.1 23.9-18.3 21.4-40.3 46.3-65.2 68.5-26 23.2-51.4 40.3-77.7 52.1-14.4 6.5-29.6 11.2-45.3 14.2-12.1 2.1-24.1 3.3-35.9 3.3z"/><linearGradient id="SVGID_11_" gradientUnits="userSpaceOnUse" x1="-53.762" y1="310.903" x2="1368.516" y2="310.903"><stop offset="0" stop-color="#016bae"/><stop offset=".497" stop-color="#fdc70c"/><stop offset="1" stop-color="#db206d"/></linearGradient><path class="st11" d="M472.4 459.8c-4.2 0-8.3-.1-12.4-.4-33.3-2.3-62.6-13.7-84.9-33.1-13.1-11.4-24.7-26-35.2-44.7-9.4-16.6-17.3-34.9-24.9-52.6-11.1-25.7-22.5-52.2-39.1-74.8-40.9-55.6-117.1-84.8-185.4-71C21.4 197.2-36.2 252.5-53 321l-.5-.1c4.1-16.8 10.8-33 19.8-48.4 8.8-15 19.8-28.8 32.5-41s27-22.6 42.3-30.9c15.7-8.4 32.2-14.4 49.1-17.9 16.9-3.4 34.5-4.3 52.2-2.7 17.3 1.6 34.5 5.6 51 11.9 16.5 6.3 31.9 14.7 45.9 25.1 14.3 10.6 26.7 23 36.9 36.9 16.7 22.7 28.1 49.2 39.2 74.9 15.2 35.2 30.9 71.7 60.1 97.1 50 43.5 125 39.4 177.2 16.1 59-26.5 104.9-76.1 143.4-120.6 6-6.9 12-14 17.8-20.8 17.2-20.3 35-41.3 53.7-60.2 20.9-21.2 40.6-37.5 60.2-49.8 22.1-13.8 45.9-22.7 70.6-26.5 25.5-3.9 50.9-2.1 75.6 5.3 15.8 4.7 32.2 12.4 50 23.5 15.9 9.9 31.5 21.4 46.5 32.7 14.2 10.6 29 21.6 44 31.1 74.7 47.3 167.2 64.2 253.7 46.2l.1.5c-21.3 4.4-43.3 6.8-65.5 7-21.9.2-44.1-1.7-65.8-5.7-21.8-4-43.2-10-63.7-17.9-20.8-8-40.6-18-59.1-29.7-15.1-9.6-29.8-20.5-44.1-31.1-30.1-22.4-61.2-45.5-96.4-56-48.8-14.6-100.6-7.1-145.8 21.2-43.7 27.3-79.3 69.3-113.8 109.9-5.8 6.9-11.9 14-17.8 20.8-38.5 44.5-84.4 94.2-143.5 120.7-14.4 6.5-29.7 11.2-45.4 14.1-11.8 2-23.5 3.1-35 3.1z"/><linearGradient id="SVGID_12_" gradientUnits="userSpaceOnUse" x1="-55.498" y1="310.827" x2="1372.502" y2="310.827"><stop offset="0" stop-color="#016bae"/><stop offset=".497" stop-color="#fdc70c"/><stop offset="1" stop-color="#db206d"/></linearGradient><path class="st12" d="M462.7 457.3c-4.5 0-8.9-.2-13.3-.5-33.4-2.5-62.7-14.3-84.7-34-12.8-11.5-24-26.1-34.1-44.6-9.1-16.5-16.6-34.7-23.9-52.3-10.6-25.7-21.6-52.3-37.9-75.1-39.6-55.1-114.2-84.5-181.5-71.5-68 13.1-125.1 67-142 134.2l-.5-.1C-51 297-44.4 281-35.3 266c8.8-14.7 19.7-28.1 32.3-40 12.6-11.9 26.7-22 41.8-30 15.5-8.2 31.8-13.9 48.4-17.1 16.6-3.2 33.9-3.9 51.3-2.1 17 1.7 33.8 5.8 50 12.2 16.2 6.3 31.2 14.8 44.8 25.1 13.9 10.6 26 22.9 35.8 36.6 16.3 22.8 27.4 49.4 38 75.2 14.5 35 29.4 71.2 57.9 96.7 49.6 44.5 124.8 40.8 177.4 17.3 58.4-26.1 103.2-74 144-120.8 5.2-5.9 10.4-12 15.4-17.8 17.9-20.7 36.3-42.2 55.7-61.4 21.8-21.6 42.3-37.9 62.8-49.8 22.7-13.3 47.2-21.5 72.8-24.3 25.9-2.9 51.8-.2 77.1 7.9 15.8 5.1 32.1 13 50 24.2 15.9 10 31.6 21.6 46.7 32.8 14.9 11 30.3 22.5 46 32.4 57 35.9 124.2 54.8 191.4 54.8 22.7 0 45.4-2.2 67.7-6.6l.1.5c-21.8 4.3-44.3 6.5-66.9 6.5h-.6c-22.2 0-44.6-2.1-66.6-6.2-22.2-4.1-44.1-10.3-65-18.4-21.2-8.2-41.5-18.4-60.4-30.3-15.8-9.9-31.2-21.4-46.1-32.4-30.2-22.4-61.5-45.6-96.6-56.9-50.4-16.3-103.5-10.5-149.5 16.4-45.4 26.4-82.4 69.4-118.2 110.9-5.1 5.9-10.3 11.9-15.4 17.8-20 22.9-41.8 47.1-66 68.6-26.3 23.4-51.9 40.5-78.2 52.3-25.1 11.2-53 17.2-79.9 17.2z"/><linearGradient id="SVGID_13_" gradientUnits="userSpaceOnUse" x1="-57.233" y1="310.755" x2="1376.487" y2="310.755"><stop offset="0" stop-color="#016bae"/><stop offset=".497" stop-color="#fdc70c"/><stop offset="1" stop-color="#db206d"/></linearGradient><path class="st13" d="M453.1 454.9c-4.8 0-9.6-.2-14.3-.6-33.5-2.7-62.8-14.8-84.5-34.9-12.5-11.5-23.3-26.1-33-44.6-8.7-16.5-15.9-34.5-22.8-52-10.2-25.8-20.8-52.5-36.7-75.3-38.2-54.6-111.3-84.2-177.5-72.1-67 12.3-123.5 64.7-140.8 130.6l-.4-.1c4.2-16.1 10.9-31.7 19.9-46.4 8.8-14.3 19.6-27.5 32.1-39.1 12.5-11.6 26.4-21.4 41.4-29.1 15.3-7.9 31.3-13.4 47.7-16.4 16.4-3 33.3-3.5 50.4-1.6 16.7 1.9 33.2 6.1 49 12.5 15.8 6.4 30.5 14.9 43.8 25.1 13.6 10.5 25.3 22.8 34.8 36.3 16 22.9 26.6 49.6 36.8 75.4 13.8 34.8 28 70.8 55.7 96.4 49.2 45.5 124.6 42.1 177.5 18.5 57.8-25.8 103.2-73.9 144.7-120.9 4.3-4.9 8.8-10 13-14.9 37.2-42.5 75.6-86.4 123.2-112.4 23.4-12.8 48.6-20.2 75-22.2 26.3-1.9 52.7 1.6 78.5 10.6 15.7 5.5 32.1 13.6 49.9 24.9 15.9 10.1 31.6 21.7 46.8 32.9 15.6 11.5 31.7 23.4 48.2 33.8 59 36.9 128.5 56.4 198 56.4 22.3 0 44.6-2 66.5-6.1l.1.5c-22.3 4.2-45.3 6.2-68.4 6.1-22.9-.1-45.9-2.4-68.5-6.6-22.6-4.3-44.9-10.7-66.3-19-21.6-8.4-42.3-18.8-61.6-30.8-16.5-10.4-32.6-22.3-48.2-33.8-30.3-22.4-61.7-45.6-96.6-57.7-52-18.1-106.4-14-153.2 11.5-47.5 26-85.9 69.9-123.1 112.3-4.3 4.9-8.7 9.9-13 14.9-20.4 23.1-42.6 47.5-66.4 68.6-26.5 23.5-52.1 40.7-78.5 52.4-24.8 11-52.4 16.9-79.2 16.9z"/><linearGradient id="SVGID_14_" gradientUnits="userSpaceOnUse" x1="-58.969" y1="310.676" x2="1380.473" y2="310.676"><stop offset="0" stop-color="#016bae"/><stop offset=".497" stop-color="#fdc70c"/><stop offset="1" stop-color="#db206d"/></linearGradient><path class="st14" d="M443.6 452.6c-5.1 0-10.3-.2-15.3-.7-33.7-2.9-62.8-15.3-84.3-35.8-12.1-11.6-22.6-26.1-32-44.5-8.4-16.4-15.1-34.4-21.7-51.7-9.8-25.8-19.9-52.6-35.5-75.5-31.8-46.4-88.9-75-145.8-75-9.3 0-18.6.8-27.8 2.4C16.3 182.9-41 235.1-58.2 298.7l-.4-.1c4.3-15.8 11-31.1 20-45.4 8.8-14 19.5-26.8 31.9-38.1 12.4-11.3 26.1-20.7 40.9-28.2 15.1-7.6 30.9-12.8 47-15.6 16.1-2.8 32.8-3.1 49.6-1.1 16.4 2 32.5 6.3 48 12.7 15.5 6.5 29.8 14.9 42.7 25.1 13.2 10.5 24.6 22.6 33.8 36.1 15.7 23 25.8 49.7 35.6 75.6 13.1 34.6 26.6 70.4 53.5 96.1 25 23.9 61.4 36.3 100.2 36.3 25.7 0 52.4-5.4 77.5-16.6 57.2-25.4 101.4-71.8 145.4-121.1 3.5-3.9 7.1-8 10.5-11.9 38.5-43.4 78.3-88.4 127.9-113.7 47.6-24.3 103.5-26.7 157.2-6.7 34.9 13 66.3 36.1 96.7 58.5 16.3 12 33.2 24.4 50.4 35.2 79.5 49.5 177.9 68.6 270 52.4l.1.4c-21.5 3.8-43.4 5.7-65.3 5.7-71.9 0-144-20.1-205-58.1-17.3-10.8-34.2-23.2-50.5-35.2-30.4-22.4-61.8-45.5-96.6-58.4-53.6-19.9-109.4-17.5-156.9 6.7-49.5 25.3-89.3 70.1-127.8 113.6-3.5 3.9-7 7.9-10.5 11.9-44 49.3-88.2 95.8-145.5 121.2-24.7 10.9-52.1 16.6-78.6 16.6z"/><linearGradient id="SVGID_15_" gradientUnits="userSpaceOnUse" x1="-60.705" y1="310.61" x2="1384.459" y2="310.61"><stop offset="0" stop-color="#016bae"/><stop offset=".497" stop-color="#fdc70c"/><stop offset="1" stop-color="#db206d"/></linearGradient><path class="st15" d="M434 453.1c-5.5 0-10.9-.2-16.3-.7-33.8-3.1-62.9-15.9-84.1-36.8-11.8-11.6-21.9-26.2-30.9-44.5-8-16.3-14.4-34.2-20.6-51.4-9.3-25.9-18.9-52.6-34.3-75.7-35.7-53.5-105.4-83.7-169.7-73.3C14.3 181-42.5 231.7-60 294l-.4-.1c4.3-15.5 11.1-30.4 20-44.4 8.7-13.7 19.4-26.1 31.7-37.1s25.9-20.1 40.4-27.3c14.9-7.3 30.5-12.3 46.3-14.9 15.9-2.6 32.2-2.7 48.7-.5 16.1 2.2 31.9 6.5 47 13 15.1 6.5 29.1 15 41.7 25.2 12.9 10.5 23.9 22.5 32.8 35.8 15.4 23.1 25 49.8 34.3 75.7 12.4 34.4 25.2 70 51.4 95.8 24.9 24.6 61.7 37.4 100.9 37.4 25.5 0 52-5.4 77-16.5 56.6-25.1 99.6-69.8 146-121.3 2.7-3 5.3-5.9 8-8.9 39.9-44.4 81.1-90.3 132.7-114.9 48.4-23 105.6-23.7 160.9-1.9 34.7 13.7 66.1 36.8 96.5 59.1 17.1 12.5 34.7 25.5 52.8 36.7 62.9 39 137.4 59.7 211.5 59.7 21.4 0 42.8-1.7 63.9-5.2l.1.4c-23.3 3.9-47.3 5.6-71.3 5.2-23.8-.4-47.8-3-71.3-7.6s-46.7-11.4-68.9-20c-22.5-8.8-44.1-19.5-64.2-32-18.1-11.3-35.8-24.2-52.8-36.8-30.4-22.3-61.8-45.4-96.4-59.1-55.2-21.8-112.2-21.1-160.6 1.9-51.5 24.5-92.7 70.4-132.6 114.8-2.7 3-5.3 5.9-8 8.9-20.8 23.1-43.1 47.4-67.2 68.7-26.8 23.7-52.6 41-79 52.7-24.4 10.8-51.6 16.6-77.9 16.6z"/><linearGradient id="SVGID_16_" gradientUnits="userSpaceOnUse" x1="-62.441" y1="310.537" x2="1388.446" y2="310.537"><stop offset="0" stop-color="#016bae"/><stop offset=".497" stop-color="#fdc70c"/><stop offset="1" stop-color="#db206d"/></linearGradient><path class="st16" d="M424.4 453.6c-5.8 0-11.6-.3-17.3-.8-33.9-3.4-63-16.4-83.9-37.7-11.5-11.7-21.3-26.2-29.8-44.5-7.7-16.3-13.7-34-19.6-51.2-8.9-25.9-18-52.7-33-75.8-30.2-46.5-86.3-75.6-142.3-75.6-7.8 0-15.7.6-23.4 1.7C12.2 179.1-44 228.4-61.7 289.4l-.4-.1c4.4-15.2 11.2-29.8 20.1-43.4 8.7-13.3 19.3-25.5 31.4-36.1 12.2-10.6 25.6-19.5 40-26.4 14.7-7 30.1-11.8 45.6-14.1 15.6-2.4 31.7-2.4 47.8 0 15.8 2.3 31.2 6.8 46 13.3 14.8 6.6 28.4 15 40.6 25.2 12.5 10.4 23.2 22.4 31.7 35.6 15 23.1 24.2 50 33 75.9 11.7 34.2 23.8 69.6 49.3 95.5 47.6 48.2 125.7 45.2 178.1 22C562 410 609.8 357.5 648.2 315.3c1.8-2 3.6-3.9 5.3-5.9 41.3-45.4 83.9-92.3 137.6-116.1 25.3-11.2 52.8-16.5 81.8-15.6 27.4.8 55.3 7.1 82.8 18.5 34.4 14.4 65.8 37.4 96.2 59.7 17.9 13.1 36.3 26.6 55.3 38.4 64.9 40 141.9 61.3 218.4 61.3 20.9 0 41.8-1.6 62.4-4.8l.1.4c-23.8 3.7-48.3 5.4-72.8 4.8-24.3-.6-48.7-3.3-72.6-8.1-24-4.8-47.6-11.7-70.2-20.6-22.9-8.9-44.9-19.9-65.5-32.6-19-11.7-37.5-25.3-55.3-38.4-30.4-22.3-61.8-45.3-96.1-59.6-56.8-23.7-115.1-24.7-164.3-3-53.6 23.8-96.2 70.7-137.5 116-1.8 2-3.6 3.9-5.3 5.9-22.2 24.3-44 47.9-67.6 68.8-26.9 23.8-52.9 41.1-79.2 52.8-24.3 10.7-51.2 16.4-77.3 16.4z"/><linearGradient id="SVGID_17_" gradientUnits="userSpaceOnUse" x1="-64.177" y1="310.464" x2="1392.433" y2="310.464"><stop offset="0" stop-color="#016bae"/><stop offset=".497" stop-color="#fdc70c"/><stop offset="1" stop-color="#db206d"/></linearGradient><path class="st17" d="M414.8 454.1c-6.1 0-12.2-.3-18.2-.9-34.1-3.6-63-16.9-83.7-38.6-11.2-11.7-20.6-26.3-28.8-44.5-7.3-16.2-13-33.9-18.5-50.9-8.4-26-17.1-52.8-31.7-76-33.2-52.6-99.8-83.2-161.9-74.5-61.8 8.6-117.5 56.4-135.5 116.1l-.4-.1c4.5-14.8 11.2-29.1 20.1-42.4 8.7-13 19.2-24.8 31.2-35.1s25.3-18.9 39.5-25.5c14.5-6.7 29.6-11.2 45-13.4 15.3-2.1 31.1-2 46.9.5 15.5 2.4 30.6 7 45 13.6 14.4 6.6 27.7 15.1 39.6 25.2 12.2 10.4 22.5 22.2 30.7 35.3 14.6 23.2 23.3 50.1 31.7 76 11 34 22.4 69.2 47.3 95.3 47 49.3 125.4 46.6 178.3 23.3 59.7-26.4 106.3-77 147.4-121.6l2.6-2.8c42.7-46.4 86.8-94.4 142.6-117.4 26-10.7 54.2-15.2 84-13.4 27.8 1.7 56.1 8.8 84.2 21.2 34.1 15 65.4 37.9 95.7 60.1 18.7 13.7 38.1 27.8 58 40.1 66.9 41.1 146.5 63 225.4 63 20.4 0 40.8-1.5 60.9-4.5l.1.4c-24.3 3.6-49.3 5.1-74.2 4.3-24.7-.7-49.6-3.6-74-8.6s-48.5-12.1-71.5-21.1c-23.3-9.1-45.8-20.3-66.8-33.2-19.9-12.3-39.3-26.4-58-40.1-30.3-22.2-61.6-45.1-95.7-60-58.3-25.6-118-28.4-167.9-7.8-55.7 23-99.8 70.9-142.4 117.3l-2.6 2.8c-24.4 26.5-44.9 48.4-68 68.8-27.1 23.9-53.1 41.2-79.5 52.9-24.3 10.6-51 16.2-76.9 16.2z"/><linearGradient id="SVGID_18_" gradientUnits="userSpaceOnUse" x1="-65.913" y1="310.391" x2="1396.42" y2="310.391"><stop offset="0" stop-color="#016bae"/><stop offset=".497" stop-color="#fdc70c"/><stop offset="1" stop-color="#db206d"/></linearGradient><path class="st18" d="M405.1 454.6c-6.5 0-12.9-.3-19.2-1-16.4-1.8-31.8-6-45.6-12.3-14.7-6.8-27.4-15.9-37.9-27.2-10.9-11.8-20-26.3-27.8-44.4-7-16.2-12.3-33.7-17.5-50.7-7.9-26-16.1-52.8-30.4-76.1-31.8-52-96.8-82.8-157.9-75C8.2 175.5-47 221.8-65.3 280.3l-.3-.1c4.5-14.5 11.3-28.5 20.2-41.4 8.6-12.7 19.1-24.2 31-34.2 11.9-10 25.1-18.3 39-24.6 14.3-6.4 29.2-10.7 44.3-12.6 15.1-1.9 30.6-1.6 46 1.1 15.1 2.6 29.9 7.2 44 13.9 14.1 6.7 27 15.1 38.5 25.2 11.8 10.3 21.8 22.1 29.7 35 14.3 23.3 22.5 50.2 30.4 76.2 10.3 33.9 21 68.9 45.2 95 46.5 50.3 125.1 47.9 178.4 24.5 59-25.9 104.2-74.7 148-121.8 21.7-23.4 44.2-47.6 68.4-68.6 27.2-23.6 53.1-40 79-49.9 26.7-10.2 55.7-14 86.3-11.2 28.1 2.6 57 10.6 85.7 23.8 33.8 15.6 64.9 38.4 95.1 60.4 19.6 14.3 39.9 29.1 60.8 42 85.8 52.5 192.2 74.6 291.7 60.6v.4c-24.8 3.5-50.2 4.8-75.7 3.9-25.2-.9-50.5-4-75.4-9.1-24.8-5.2-49.3-12.4-72.8-21.7-23.7-9.3-46.6-20.7-68.1-33.8-20.9-12.8-41.2-27.6-60.8-42-30.1-22-61.3-44.8-95-60.4-59.8-27.6-120.8-32.1-171.6-12.6-57.9 22.1-103.3 71.1-147.3 118.4-43.8 47.2-89.1 95.9-148.1 121.9-24 10.5-50.4 16-76.2 16z"/><linearGradient id="SVGID_19_" gradientUnits="userSpaceOnUse" x1="-67.649" y1="310.319" x2="1400.407" y2="310.319"><stop offset="0" stop-color="#016bae"/><stop offset=".497" stop-color="#fdc70c"/><stop offset="1" stop-color="#db206d"/></linearGradient><path class="st19" d="M395.5 455.2c-6.8 0-13.5-.4-20.1-1.2-16.5-1.9-31.8-6.2-45.6-12.7-14.7-6.9-27.3-16.3-37.7-27.8-10.6-11.8-19.4-26.4-26.8-44.4-6.6-16.1-11.6-33.6-16.5-50.5-7.4-26-15.1-52.9-29-76.2-30.6-51.4-93.9-82.5-153.9-75.6C6.1 173.7-48.5 218.5-67 275.7l-.3-.1c4.6-14.2 11.4-27.8 20.2-40.4 8.6-12.3 19-23.5 30.8-33.2 11.8-9.7 24.8-17.6 38.6-23.7 14.1-6.2 28.8-10.2 43.6-11.9 14.8-1.7 30-1.2 45.2 1.6 14.8 2.7 29.3 7.5 43 14.2 13.7 6.7 26.3 15.2 37.5 25.2 11.4 10.3 21.1 22 28.7 34.7 13.9 23.4 21.6 50.3 29 76.3 9.7 33.7 19.6 68.5 43.2 94.8 43.9 49 123.1 50 178.6 25.7 58.2-25.5 103.2-73.5 146.7-119.8l2-2.2c23.9-25.5 45.7-48.2 69.3-68.2 27.6-23.3 53.9-39.2 80.3-48.5 27.4-9.7 57.1-12.7 88.5-9 28.5 3.4 57.8 12.3 87.1 26.4 33.3 16.1 64.3 38.7 94.3 60.6 20.6 15 41.8 30.5 63.8 43.9 71.7 43.7 154.4 66.6 237.8 66.6 19.8 0 39.6-1.3 59.3-3.9v.3c-25.3 3.3-51.2 4.5-77.1 3.5-25.7-1-51.5-4.3-76.7-9.6-25.3-5.3-50.2-12.8-74.1-22.2-24.2-9.5-47.5-21.1-69.3-34.4-22-13.4-43.3-28.9-63.8-44-30-21.9-60.9-44.5-94.2-60.5-43.4-20.9-109-40.9-175.3-17.4-60 21.3-107.6 71.9-149.5 116.6l-2 2.2c-43.5 46.4-88.5 94.3-146.8 119.9-24.1 10.5-50.4 16-75.9 16z"/><linearGradient id="SVGID_20_" gradientUnits="userSpaceOnUse" x1="-69.385" y1="310.246" x2="1404.395" y2="310.246"><stop offset="0" stop-color="#016bae"/><stop offset=".497" stop-color="#fdc70c"/><stop offset="1" stop-color="#db206d"/></linearGradient><path class="st20" d="M385.8 455.7c-7.1 0-14.1-.4-21-1.3-16.5-2-31.9-6.4-45.7-13.1-14.7-7.1-27.2-16.6-37.4-28.3-10.3-11.9-18.7-26.4-25.8-44.4-6.3-16.1-10.9-33.5-15.5-50.3-7-26-14.2-52.9-27.6-76.3-29.3-50.9-91-82.2-150-76.2C4.1 171.9-50 215.2-68.8 271.1l-.3-.1c4.7-13.9 11.5-27.1 20.3-39.4 8.6-12 18.9-22.8 30.6-32.2 11.7-9.4 24.5-17 38.1-22.8 13.9-5.9 28.3-9.6 42.9-11.1 14.5-1.5 29.4-.8 44.3 2.1 14.5 2.8 28.6 7.7 42 14.5 13.4 6.8 25.6 15.3 36.4 25.3 11.1 10.2 20.4 21.8 27.7 34.5 13.5 23.4 20.7 50.3 27.7 76.4 9 33.5 18.3 68.2 41.2 94.6 43.4 50 122.8 51.4 178.8 26.9C518.4 414.6 563 367.5 606.1 322c1.4-1.5 2.8-2.9 4.1-4.4 22.9-24.1 45.4-47.4 70.2-67.8 28-22.9 54.7-38.4 81.6-47.2 28.1-9.2 58.6-11.5 90.8-6.8 28.9 4.2 58.7 14 88.5 29 33 16.5 63.7 39 93.5 60.7 21.5 15.7 43.8 32 66.8 46 90.3 54.8 197.8 77.8 302.6 64.7v.3c-25.8 3.2-52.2 4.2-78.6 3-26.1-1.2-52.4-4.6-78.1-10.1-25.7-5.5-51.1-13.2-75.5-22.7-24.6-9.7-48.3-21.5-70.6-35-23.1-14-45.3-30.3-66.9-46-29.7-21.7-60.5-44.2-93.4-60.7-44.3-22.4-111.4-44.4-179-22.3-57.5 18.8-102.7 63.2-151.8 114.9-1.4 1.4-2.7 2.9-4.1 4.4-43.2 45.7-87.8 92.8-145.4 118-23.6 10.3-49.6 15.7-75 15.7z"/><linearGradient id="SVGID_21_" gradientUnits="userSpaceOnUse" x1="-71.121" y1="310.174" x2="1408.383" y2="310.174"><stop offset="0" stop-color="#016bae"/><stop offset=".497" stop-color="#fdc70c"/><stop offset="1" stop-color="#db206d"/></linearGradient><path class="st21" d="M376.1 456.3c-7.4 0-14.7-.5-21.9-1.4-16.6-2.1-32-6.7-45.7-13.5-14.6-7.3-27.1-17-37.2-28.9-10-11.9-18.1-26.5-24.8-44.4-6-16-10.3-33.4-14.4-50.1-6.5-26-13.2-52.9-26.2-76.3-28.1-50.4-88.1-81.9-146.1-76.8-57.7 5.2-111.2 47-130.2 101.7l-.3-.1C-66 253-59.2 240-50.4 228.1c8.6-11.7 18.8-22.2 30.4-31.2 11.6-9 24.2-16.4 37.6-21.9 13.7-5.6 27.9-9.1 42.2-10.4 14.3-1.3 28.9-.4 43.4 2.7 14.2 3 27.9 8 40.9 14.8 13 6.8 24.9 15.3 35.4 25.3 10.7 10.2 19.7 21.7 26.7 34.2 13.1 23.5 19.8 50.4 26.3 76.4 8.3 33.4 16.9 67.9 39.2 94.4 42.9 51 122.5 52.7 179 28.1 56.8-24.8 101.1-71.1 143.9-115.9 2-2.1 4.1-4.3 6.1-6.4 20.8-21.8 45.3-46.7 71.2-67.3 28.4-22.6 55.6-37.6 83-45.9 28.8-8.7 60.1-10.2 93-4.5 29.3 5.1 59.6 15.7 89.9 31.6 32.4 16.9 62.8 39.1 92.3 60.6 22.6 16.5 46 33.6 70.2 48.2 92 55.5 201.3 79.3 308 66.8v.3c-26.3 3.1-53.2 3.9-80 2.6-26.6-1.4-53.3-4.9-79.5-10.6-26.2-5.7-52-13.5-76.8-23.3-25-9.9-49.2-21.8-71.9-35.5-24.3-14.7-47.7-31.7-70.3-48.3-29.4-21.5-59.8-43.7-92.2-60.6-45.4-23.8-113.9-47.8-182.7-27.1-59.3 17.9-106.7 63.7-154 113.1-2 2.1-4.1 4.3-6.1 6.4-42.8 44.8-87.1 91.1-144 116-23.7 10.3-49.5 15.6-74.7 15.6z"/><linearGradient id="SVGID_22_" gradientUnits="userSpaceOnUse" x1="-72.857" y1="310.099" x2="1412.371" y2="310.099"><stop offset="0" stop-color="#016bae"/><stop offset=".497" stop-color="#fdc70c"/><stop offset="1" stop-color="#db206d"/></linearGradient><path class="st22" d="M366.2 456.9c-7.6 0-15.2-.5-22.6-1.5-16.7-2.2-32-6.9-45.8-13.8-14.6-7.4-27-17.3-36.9-29.5-9.7-12-17.6-26.5-23.9-44.5-5.6-16-9.6-33.3-13.4-49.9-6-26-12.2-52.9-24.8-76.4-26.8-49.9-85.3-81.7-142.1-77.3C0 168.3-53 208.6-72.3 262.1l-.3-.1c4.8-13.2 11.6-25.8 20.4-37.5 8.5-11.3 18.7-21.5 30.1-30.2 11.5-8.7 24-15.8 37.2-21 13.5-5.3 27.5-8.5 41.5-9.6 14-1.1 28.3 0 42.5 3.2 13.8 3.1 27.3 8.2 39.9 15.1 12.7 6.9 24.2 15.4 34.3 25.3 10.4 10.2 19 21.6 25.7 33.9 12.7 23.5 18.9 50.4 24.9 76.4 7.7 33.3 15.6 67.7 37.2 94.3 42.3 52 122.2 54.1 179.1 29.3 56.2-24.5 100.1-70 142.6-114.1l8.1-8.4c25.7-26.6 47.8-48.2 72.1-66.9 28.8-22.3 56.4-36.8 84.3-44.5 70.1-19.4 140.2 6.7 186.6 32 31.8 17.2 61.8 39.1 90.8 60.3 23.8 17.4 48.3 35.3 73.9 50.7 93.6 56.3 204.9 80.8 313.4 68.9v.3c-26.8 2.9-54.2 3.7-81.5 2.1-27.1-1.5-54.3-5.2-80.8-11.1-26.6-5.8-52.9-13.9-78.1-23.8-25.4-10.1-50.1-22.2-73.2-36.1-25.6-15.4-50.1-33.3-73.9-50.7-29-21.2-59-43.1-90.8-60.3-46.4-25.3-116.4-51.3-186.4-31.9-61.2 16.9-110.7 64.3-156.2 111.4l-8.1 8.4c-42.5 44.1-86.4 89.7-142.7 114.2-15 6.5-31 11.1-47.5 13.5-8.9 1-17.8 1.7-26.6 1.7z"/><linearGradient id="SVGID_23_" gradientUnits="userSpaceOnUse" x1="-74.593" y1="310.026" x2="1416.359" y2="310.026"><stop offset="0" stop-color="#016bae"/><stop offset=".497" stop-color="#fdc70c"/><stop offset="1" stop-color="#db206d"/></linearGradient><path class="st23" d="M356.4 457.5c-7.9 0-15.8-.5-23.4-1.6-16.7-2.3-32.1-7.1-45.8-14.2-14.6-7.6-26.9-17.7-36.7-30.1-9.5-12-17-26.6-22.9-44.5-5.3-16-8.9-33.2-12.4-49.8-5.5-26-11.2-52.8-23.4-76.4-25.6-49.3-82.5-81.4-138.2-77.9C-2 166.5-54.5 205.4-74 257.5l-.2-.1c4.8-12.9 11.7-25.2 20.4-36.5 8.5-11 18.6-20.9 29.9-29.3 11.4-8.4 23.7-15.2 36.7-20.1 13.3-5 27.1-8 40.8-8.9 13.8-.9 27.7.4 41.6 3.7 13.5 3.3 26.6 8.4 38.9 15.3 12.3 6.9 23.5 15.4 33.3 25.3 10 10.1 18.3 21.4 24.7 33.6 12.3 23.6 17.9 50.5 23.4 76.5 7 33.1 14.2 67.4 35.3 94.2 41.8 53 121.8 55.5 179.3 30.5 55.6-24.1 99.2-69 141.4-112.4 3.3-3.4 6.7-6.8 10-10.2 22.2-22.7 46.4-46.5 73-66.5 29.2-21.9 57.2-36 85.6-43.2 30.2-7.6 63-7.6 97.5 0 30.1 6.7 61.3 19 92.8 36.8 31.1 17.5 60.6 39 89.1 59.8 25 18.3 50.8 37.2 77.8 53.3 95.2 57.1 208.5 82.3 318.9 70.9v.3c-27.3 2.8-55.2 3.4-82.9 1.7-27.5-1.7-55.2-5.5-82.2-11.6-27-6-53.8-14.2-79.4-24.4-25.9-10.2-50.9-22.6-74.5-36.7-26.9-16.2-52.8-35.1-77.8-53.3-28.5-20.8-58-42.4-89.1-59.8-47.4-26.7-118.9-54.8-190.1-36.8-63.1 15.9-112.9 62.9-158.5 109.6-3.3 3.4-6.7 6.9-10 10.2-42.2 43.4-85.8 88.3-141.5 112.5-15 6.5-31.1 11-47.7 13.4-8.8 1.6-17.5 2.2-26.1 2.2z"/><linearGradient id="SVGID_24_" gradientUnits="userSpaceOnUse" x1="-76.33" y1="309.952" x2="1420.348" y2="309.952"><stop offset="0" stop-color="#016bae"/><stop offset=".497" stop-color="#fdc70c"/><stop offset="1" stop-color="#db206d"/></linearGradient><path class="st24" d="M346.5 458.1c-8.2 0-16.3-.6-24.2-1.7-1.9-.3-3.7-.6-5.6-.9 34.4 6.2 71.9.7 103.1-12.8 55-23.8 98.3-68.1 140.2-110.8 3.9-4 7.9-8 11.8-12 21.1-21.4 46.3-45.9 73.9-66 29.6-21.6 58-35.3 87-41.9 30.9-7.1 64.5-6.3 99.7 2.3 30.5 7.4 62.1 20.7 94.2 39.3 30.3 17.6 59.2 38.7 87.1 59.2 26.3 19.3 53.6 39.2 82 56.2 96.8 57.8 212 83.8 324.3 73v.2c-27.8 2.7-56.2 3.1-84.4 1.3-28-1.8-56.1-5.9-83.6-12.1-27.5-6.2-54.6-14.6-80.7-24.9-26.3-10.4-51.8-23-75.8-37.3-28.4-17-55.7-36.9-82-56.2-27.9-20.4-56.8-41.5-87.1-59.1-48.4-28.2-121.3-58.3-193.8-41.6-64.9 14.9-117 63.5-160.7 107.9-3.9 4-7.9 8.1-11.8 12-41.9 42.8-85.2 87-140.3 110.9-15.1 6.5-31.2 11-47.9 13.4-8.5 1-17 1.6-25.4 1.6zm-55.8-9.8c-4.9-1.9-9.7-4.1-14.2-6.5-14.6-7.8-26.8-18.1-36.3-30.7-9.3-12.1-16.5-26.7-22.1-44.6-5-16-8.3-33.1-11.5-49.7-5-25.9-10.1-52.6-21.8-76.2-24.5-48.8-79.7-81.1-134.3-78.5C-4 164.7-56 202.1-75.8 253l-.2-.1c4.9-12.6 11.8-24.5 20.5-35.5 8.5-10.7 18.5-20.2 29.7-28.3 11.2-8.1 23.4-14.5 36.2-19.2 13.1-4.7 26.6-7.5 40.1-8.1 13.5-.6 27.2.8 40.7 4.3 13.2 3.4 25.9 8.7 37.9 15.6 11.9 7 22.8 15.5 32.2 25.3 9.7 10.1 17.6 21.3 23.7 33.4 11.8 23.6 16.9 50.4 21.9 76.3 6.3 33.1 12.9 67.3 33.5 94.2 13.3 17.7 30.8 29.9 50.3 37.4z"/><linearGradient id="SVGID_25_" gradientUnits="userSpaceOnUse" x1="-78.066" y1="309.879" x2="1424.336" y2="309.879"><stop offset="0" stop-color="#016bae"/><stop offset=".497" stop-color="#fdc70c"/><stop offset="1" stop-color="#db206d"/></linearGradient><path class="st25" d="M336.8 458.8c-8.5 0-16.9-.6-25-1.8-16.8-2.5-32.3-7.6-45.9-15-14.5-7.9-26.7-18.4-36.1-31.2-9-12.1-15.8-26.7-21.1-44.6-4.7-15.9-7.6-33-10.5-49.5-4.5-25.9-9.1-52.7-20.5-76.3-23.2-48.3-76.8-80.8-130.3-79.1-53.5 1.7-104.9 37.6-125 87.3l-.2-.1c5-12.3 11.9-23.9 20.5-34.5 8.4-10.3 18.4-19.5 29.5-27.3 11.1-7.8 23.2-13.9 35.8-18.3 12.9-4.5 26.2-6.9 39.4-7.4 13.2-.4 26.6 1.2 39.8 4.8 12.9 3.5 25.3 8.9 36.9 15.9 11.6 7 22.1 15.6 31.2 25.4 9.3 10 16.9 21.2 22.7 33.1 11.4 23.7 16 50.5 20.5 76.4 5.7 32.9 11.6 67 31.5 94 40.1 54.4 122.5 57.6 179.7 32.9 54.5-23.5 97.5-67.1 139.1-109.3 4.4-4.5 9-9.2 13.6-13.7 21-21.1 46.4-45.5 74.8-65.6 30-21.2 58.9-34.5 88.3-40.6 31.6-6.6 65.9-5 102 4.6 30.8 8.2 63 22.3 95.6 41.9 29.4 17.6 57.5 38.3 84.8 58.2 27.8 20.3 56.5 41.4 86.5 59.3 84.7 50.4 183.2 77.2 281.7 77.2 16 0 32.1-.7 48-2.1v.2c-16 1.4-32 2.1-48.1 2.1-98.6 0-197.1-26.8-281.8-77.2-30.1-17.9-58.8-38.9-86.5-59.3-27.2-19.9-55.4-40.6-84.7-58.2-70.8-42.5-139.1-58.6-197.5-46.4-63.6 13.2-115.9 58.8-163 106.1-4.5 4.5-9.1 9.2-13.6 13.7-41.6 42.2-84.6 85.8-139.2 109.4-15.2 6.5-31.3 11-48.1 13.3-8.3 1.1-16.6 1.7-24.8 1.7z"/><g><linearGradient id="SVGID_26_" gradientUnits="userSpaceOnUse" x1="-75.061" y1="310.748" x2="1419.407" y2="310.748"><stop offset="0" stop-color="#016bae"/><stop offset=".497" stop-color="#fdc70c"/><stop offset="1" stop-color="#db206d"/></linearGradient><path class="st26" d="M340.1 455.7c-8.2 0-16.2-.6-24.1-1.7-16.7-2.4-32-7.2-45.5-14.3-14.5-7.6-26.7-17.7-36.2-29.9-9.2-11.7-16.4-25.9-22-43.2-5.1-15.5-8.5-32.1-11.8-48.1-5.1-24.9-10.4-50.7-22-73.6-24.1-47.5-76.1-79.2-129.2-78.9-52.2.4-103 33-123.7 79.3l-.2-.1c5.1-11.4 12-22.1 20.6-31.9 8.4-9.6 18.3-18 29.2-25.1 11-7.1 22.9-12.6 35.3-16.4 12.7-3.9 25.8-6 38.8-6.1 13-.1 26.2 1.8 39.2 5.5 12.7 3.7 24.9 9.1 36.4 16.1 11.5 7 21.9 15.4 31 25 9.3 9.8 17 20.7 22.9 32.3 11.6 22.9 16.9 48.7 22 73.6 6.6 32 13.4 65.1 33.7 91.2 41 52.7 120.8 55.5 178.5 31 31.7-13.4 62-34.2 98.2-67.2 14-12.8 27.8-26.3 41.1-39.4a803 803 0 0 1 13.2-12.9c21.1-20.6 46.5-44.4 74.6-63.9 29.8-20.8 58.5-33.9 87.6-40.1 13.1-2.8 26.9-4.3 40.9-4.3 25.3-.1 52.3 4.3 80 13.2 24.3 7.8 49.6 19.1 75 33.5 30.3 17.3 59.4 37.7 87.5 57.4 26.8 18.8 54.5 38.3 83.4 55 12.7 7.4 25.9 14.4 39.3 20.9 79.8 38.5 166.2 58.6 251.8 58.6 11.3 0 22.5-.3 33.7-1v.2c-48.1 3-97.2-.5-146-10.4-48.2-9.8-95.2-25.6-139.7-47.1-13.4-6.5-26.6-13.5-39.3-20.9-28.9-16.8-56.6-36.2-83.4-55-28.1-19.7-57.2-40.1-87.5-57.4-54.4-31-106.2-46.7-153.8-46.7h-1c-14 .1-27.7 1.5-40.8 4.3-65.7 14.1-118.1 61-162.1 104-4.4 4.3-8.9 8.7-13.2 12.9-13.3 13.1-27.1 26.7-41.1 39.4-36.2 33.1-66.5 53.8-98.3 67.3-15 6.4-31.1 10.8-47.7 13-8.5 1.3-17 1.9-25.3 1.9z"/></g><g><linearGradient id="SVGID_27_" gradientUnits="userSpaceOnUse" x1="-72.056" y1="311.616" x2="1414.477" y2="311.616"><stop offset="0" stop-color="#016bae"/><stop offset=".497" stop-color="#fdc70c"/><stop offset="1" stop-color="#db206d"/></linearGradient><path class="st27" d="M343.4 452.6c-7.9 0-15.6-.5-23.2-1.5-16.5-2.2-31.7-6.8-45.2-13.6-14.4-7.2-26.6-16.9-36.3-28.7-9.4-11.3-16.9-25-23-41.8-5.5-15-9.3-31.1-13.1-46.7-5.8-23.9-11.7-48.6-23.5-70.7-24.7-46.1-76.2-77.7-128.1-78.6-50.9-1-101.2 28.3-122.5 71.3l-.2-.1c5.2-10.5 12.2-20.4 20.8-29.3 8.4-8.8 18.2-16.4 29-22.8 10.9-6.4 22.6-11.3 34.7-14.6 12.5-3.4 25.4-5 38.1-4.8 12.8.2 25.7 2.3 38.5 6.2 12.5 3.8 24.6 9.3 35.9 16.2 11.3 7 21.7 15.3 30.8 24.7 9.3 9.6 17.1 20.3 23.1 31.6 11.8 22.1 17.8 46.9 23.6 70.8 7.8 32.5 15.2 63.2 36.1 88.4 25.3 30.7 64.6 43.6 104.4 43.6 25.3 0 50.8-5.2 72.9-14.4 31.5-13.1 61.7-33.2 97.9-65.3 14.2-12.6 28.1-25.9 41.6-38.8 4.2-4 8.5-8.1 12.8-12.2 21.2-20.1 46.7-43.3 74.5-62.3 29.7-20.3 58.1-33.3 86.8-39.6 13-2.9 26.6-4.4 40.4-4.7 25.1-.4 51.7 3.5 79.1 11.7 24.1 7.2 49.2 17.7 74.5 31.3 31.4 16.9 61.6 37.1 90.8 56.7 25.7 17.2 52.2 35.1 79.7 50.7 12.6 7.2 25.8 14 39 20.4 84.5 40.5 175 61.7 262.9 61.7 6 0 12-.1 18-.3v.3c-5.9.2-11.9.3-17.9.3-41.3 0-83.3-4.7-125.3-14-47.1-10.4-93.5-26.5-137.8-47.7-13.3-6.4-26.4-13.2-39.1-20.4-27.5-15.6-54.1-33.5-79.8-50.7-29.2-19.6-59.3-39.8-90.7-56.7-54.5-29.3-106.1-43.8-153.5-43-13.8.2-27.4 1.8-40.4 4.7-64.7 14.2-117.2 60-161.2 101.8-4.3 4-8.6 8.2-12.8 12.2-13.5 12.9-27.4 26.2-41.6 38.8-36.2 32.1-66.4 52.2-97.9 65.3-14.9 6.2-30.8 10.5-47.2 12.7-8.6 1.3-17.1 1.9-25.6 1.9z"/></g><g><linearGradient id="SVGID_28_" gradientUnits="userSpaceOnUse" x1="-69.05" y1="312.485" x2="1409.546" y2="312.485"><stop offset="0" stop-color="#016bae"/><stop offset=".497" stop-color="#fdc70c"/><stop offset="1" stop-color="#db206d"/></linearGradient><path class="st28" d="M346.8 449.6c-7.5 0-15-.5-22.3-1.4-16.3-2.1-31.4-6.4-44.9-12.9-14.3-6.9-26.6-16.1-36.5-27.4-9.6-10.9-17.5-24.2-24-40.4-5.9-14.5-10.2-30.2-14.5-45.4-6.4-22.9-13-46.6-25-67.8-25.2-44.6-76.3-76.1-127.1-78.4-50.1-2.3-98.8 23.2-121 63.4l-.2-.1c5.3-9.7 12.4-18.7 20.9-26.8 8.4-8 18.1-14.9 28.7-20.6C3 180 27.8 174.4 52.6 175.5c25 1.1 50.4 9.2 73.3 23.4 22.9 14.1 41.6 33.2 54 55.2 12.1 21.3 18.6 45 25 67.9 8.8 31.6 17.1 61.4 38.4 85.7 41.8 48 120.2 50.1 176.1 27.3 31.4-12.7 61.4-32.3 97.6-63.3 14.4-12.3 28.5-25.4 42.2-38.1 4-3.7 8.2-7.6 12.3-11.3 21.3-19.6 46.8-42.2 74.4-60.7 29.6-19.9 57.7-32.6 86.1-39.1 12.8-2.9 26.3-4.6 39.9-5 46.9-1.4 98.1 11.8 152.3 39.3 32.7 16.5 64.1 36.7 94.5 56.2 24.4 15.6 49.6 31.8 75.6 46.2 12.5 7 25.6 13.7 38.8 19.9 89.8 42.7 184.7 65.2 274.6 65.2h1.7v.3h-1.7c-89.9 0-184.8-22.6-274.7-65.3-13.2-6.3-26.2-13-38.8-19.9-26-14.4-51.2-30.6-75.6-46.2-30.4-19.5-61.8-39.6-94.5-56.1-54.1-27.5-105.3-40.7-152.1-39.3-13.6.4-27 2.1-39.9 5-63.7 14.4-116.2 59-160.4 99.7-4.1 3.8-8.2 7.6-12.3 11.3-13.7 12.7-27.8 25.8-42.2 38.1-36.1 31.1-66.3 50.6-97.6 63.4-23.1 9.4-48.3 14.3-72.8 14.3z"/></g><g><linearGradient id="SVGID_29_" gradientUnits="userSpaceOnUse" x1="-66.043" y1="313.35" x2="1404.636" y2="313.35"><stop offset="0" stop-color="#016bae"/><stop offset=".497" stop-color="#fdc70c"/><stop offset="1" stop-color="#db206d"/></linearGradient><path class="st29" d="M350.1 446.6c-7.2 0-14.3-.4-21.3-1.2-33.6-4-61.6-17.2-81.2-38.3-9.8-10.6-18-23.4-25-39.1-6.3-14.1-11.1-29.3-15.9-44-7-21.9-14.2-44.5-26.4-64.9-25.7-43.1-76.4-74.6-126-78.2-48.7-3.6-96.8 18.7-119.7 55.5l-.3-.2c5.5-8.8 12.6-16.9 21-24.2 8.4-7.2 18-13.3 28.5-18.3 21.9-10.4 46.3-14.9 70.5-13.1 24.6 1.8 49.6 10.2 72.2 24.2s41.3 32.8 54 54.1c12.2 20.5 19.5 43.1 26.5 65 9.8 30.6 19 59.5 40.8 83 44.3 47.7 121.7 46.7 174.9 25.5 31.2-12.4 61.2-31.3 97.2-61.4 14.6-12.1 28.9-25 42.8-37.5 3.8-3.5 7.8-7 11.7-10.5 21.4-19.1 47-41.1 74.2-59.1 29.4-19.4 57.3-32 85.4-38.5 12.7-2.9 26-4.7 39.5-5.3 46.3-2 97.1 10 150.9 35.6 34.1 16.2 67 36.3 98.8 55.7 22.9 14 46.6 28.5 70.9 41.6 12.5 6.7 25.4 13.3 38.5 19.5 90.7 42.7 184.6 66.6 271.6 69.1v.3c-44.5-1.3-90.8-8-137.6-20.2-44.8-11.6-89.9-28.1-134.2-48.9-13.1-6.2-26.1-12.7-38.5-19.5-24.3-13.1-48-27.6-70.9-41.6-31.8-19.4-64.7-39.5-98.8-55.7-53.8-25.6-104.5-37.5-150.8-35.6-13.5.6-26.7 2.4-39.4 5.3-62.6 14.5-115.2 58-159.5 97.5-3.9 3.5-7.9 7.1-11.7 10.5-13.9 12.5-28.2 25.3-42.8 37.5-36.1 30.1-66.1 49-97.3 61.5-22.9 9.1-48.1 13.9-72.6 13.9z"/></g><g><linearGradient id="SVGID_30_" gradientUnits="userSpaceOnUse" x1="-63.033" y1="314.217" x2="1399.729" y2="314.217"><stop offset="0" stop-color="#016bae"/><stop offset=".497" stop-color="#fdc70c"/><stop offset="1" stop-color="#db206d"/></linearGradient><path class="st30" d="M353.2 443.7c-6.8 0-13.6-.4-20.2-1.1-33.1-3.7-61.1-16.2-81-36.3-10.1-10.2-18.6-22.6-26.1-37.8-6.7-13.6-12.1-28.4-17.3-42.7-7.6-20.8-15.4-42.3-27.7-61.9-26.7-42.4-75.7-73-124.9-78-47.2-4.9-94.8 14.2-118.4 47.5l-.3-.2c5.6-7.9 12.7-15.2 21.2-21.6 8.4-6.4 17.9-11.8 28.2-16.1 21.7-9 45.6-12.4 69.3-10 24.1 2.5 48.7 11.1 71.1 25.1 22.3 13.9 41 32.3 54.1 53 12.4 19.7 20.2 41.2 27.8 62 10.8 29.7 21 57.8 43.3 80.4 44.7 45.3 121.4 44 173.8 23.6 31-12.1 60.9-30.4 96.9-59.5 14.8-11.9 29.4-24.6 43.5-36.8 3.6-3.2 7.4-6.4 11.1-9.6 22.6-19.6 47.3-40.1 74.1-57.5 29.3-19 57-31.4 84.7-38 12.5-3 25.7-4.9 39-5.6 45.8-2.6 96.2 8.2 149.6 31.9 35.9 15.9 70.5 36 104 55.5 21.2 12.3 43 25.1 65.4 36.8 12.4 6.5 25.2 12.9 38.3 19 92.6 43.3 182.4 67.8 267 73v.3c-43.2-2.6-88.5-10.5-134.8-23.4-43.5-12.2-88-28.8-132.3-49.5-13-6.1-25.9-12.5-38.3-19-22.3-11.8-44.2-24.5-65.4-36.8-33.5-19.5-68.1-39.6-103.9-55.5-53.4-23.7-103.7-34.4-149.5-31.9-13.3.7-26.4 2.6-38.9 5.6C675 243.3 622.4 285.5 578 324c-3.7 3.2-7.5 6.5-11.1 9.6-14.1 12.3-28.7 24.9-43.5 36.9-16.7 13.4-31.8 24.4-46.2 33.5-17.3 10.9-33.9 19.4-50.8 26-23.4 9-48.7 13.7-73.2 13.7z"/></g><g><linearGradient id="SVGID_31_" gradientUnits="userSpaceOnUse" x1="-60.021" y1="315.085" x2="1394.822" y2="315.085"><stop offset="0" stop-color="#016bae"/><stop offset=".497" stop-color="#fdc70c"/><stop offset="1" stop-color="#db206d"/></linearGradient><path class="st31" d="M356.3 440.9c-6.4 0-12.8-.3-19.1-1-32.7-3.4-60.6-15.2-80.8-34.3-10.5-10-19.1-21.6-27.3-36.6-7.2-13.2-13.1-27.6-18.8-41.5-8.1-19.7-16.4-40.1-28.9-58.8-27.2-40.9-75.8-71.4-123.8-77.8-45.8-6-92.8 9.9-117.1 39.6l-.3-.2c5.8-7 12.9-13.4 21.3-19s17.8-10.2 28-13.8c21.4-7.5 45-9.9 68.1-6.9 23.7 3.1 47.9 12.1 69.9 26 22 13.8 40.7 31.8 54.1 51.9 12.5 18.8 20.9 39.2 29 58.9 11.8 28.9 23 56.1 46 78 45.4 43.1 119.4 42 172.6 21.8 30.8-11.7 60.6-29.5 96.6-57.5 15.1-11.7 29.9-24.2 44.3-36.3 3.4-2.9 7-5.8 10.4-8.8 22.8-19.1 47.5-39 74-55.8 29.1-18.5 56.6-30.8 83.9-37.5 12.4-3 25.4-5 38.5-6 45.3-3.1 95.2 6.3 148.3 28.2 37.9 15.6 73 35 110.1 55.5 19.1 10.6 38.8 21.5 58.9 31.8 12.2 6.3 25 12.5 38 18.5 93.5 43.3 181.8 69.1 262.3 76.8v.3c-80.6-7.7-168.9-33.5-262.5-76.8-13-6-25.7-12.2-38-18.5-20-10.3-39.8-21.2-58.9-31.8-37.1-20.5-72.1-39.9-110-55.5-53-21.8-102.9-31.3-148.1-28.1-13.1.9-26.1 2.9-38.4 5.9-60.5 14.8-111.1 54.2-157.7 93.3-3.5 2.9-7 5.9-10.4 8.8-14.4 12.1-29.2 24.6-44.3 36.3-16.6 13-31.7 23.6-46.2 32.4-17.2 10.6-33.8 18.8-50.5 25.2-23.3 8.7-48.7 13.3-73.2 13.3z"/></g><g><linearGradient id="SVGID_32_" gradientUnits="userSpaceOnUse" x1="-57.004" y1="315.954" x2="1389.917" y2="315.954"><stop offset="0" stop-color="#016bae"/><stop offset=".497" stop-color="#fdc70c"/><stop offset="1" stop-color="#db206d"/></linearGradient><path class="st32" d="M359.3 438.2c-6 0-12-.3-17.9-.8-32.3-3-60.2-14.2-80.5-32.4-23.7-21-35.9-47.6-48.8-75.7-8.6-18.6-17.4-37.8-30-55.6-27.7-39.5-75.9-69.9-122.7-77.5-44.2-7.2-90.8 5.5-115.8 31.7l-.3-.2c5.9-6.2 13.1-11.7 21.4-16.5 8.4-4.8 17.7-8.7 27.7-11.6 21.2-6.1 44.4-7.4 67-3.8 23.2 3.8 47 13.1 68.8 26.8 21.7 13.7 40.5 31.3 54.2 50.8 12.6 17.8 21.4 37.1 30 55.7 12.9 28.1 25.1 54.6 48.8 75.6 45.8 40.7 119.1 39.4 171.4 19.9 30.7-11.4 60.4-28.5 96.3-55.6 15.3-11.5 30.5-23.8 45.2-35.7 3.2-2.6 6.4-5.2 9.7-7.8 46.9-37.9 97.6-76.2 157-91.2 12.3-3.1 25-5.2 38-6.3 44.9-3.7 94.3 4.5 147 24.5 40.4 15.3 77.8 35 117.4 55.8 16.6 8.8 33.8 17.8 51.1 26.4 12.1 6 24.8 12.1 37.7 18 96.3 44.2 180.6 70.6 257.7 80.7v.4c-40.4-5.3-83.9-15.4-129.2-30-40.3-13-83.6-30.1-128.6-50.7-12.9-5.9-25.6-12-37.7-18-17.3-8.6-34.5-17.7-51.2-26.5-39.6-20.8-77-40.5-117.3-55.8-52.6-20-102-28.2-146.8-24.4-13 1.1-25.7 3.2-38 6.3-59.4 15-110 53.2-156.9 91.1-3.2 2.6-6.4 5.2-9.7 7.8-14.7 11.9-29.8 24.2-45.2 35.7-16.6 12.5-31.7 22.8-46.1 31.3-17.2 10.2-33.6 18.2-50.3 24.3-23.3 8.7-48.8 13.3-73.4 13.3z"/></g><g><linearGradient id="SVGID_33_" gradientUnits="userSpaceOnUse" x1="-53.982" y1="316.83" x2="1385.013" y2="316.83"><stop offset="0" stop-color="#016bae"/><stop offset=".497" stop-color="#fdc70c"/><stop offset="1" stop-color="#db206d"/></linearGradient><path class="st33" d="M362.5 435.6c-5.7 0-11.3-.2-16.8-.7-31.9-2.7-59.7-13.2-80.3-30.4-24.4-20.3-37.7-46.1-51.8-73.4-9-17.4-18.3-35.5-30.8-52.3-28.7-38.7-75.3-68.3-121.6-77.3-43.4-8.4-88.3.9-114.5 23.7l-.2-.3c6-5.3 13.3-9.9 21.6-13.9 8.4-4 17.6-7.1 27.4-9.3 21-4.7 43.7-4.9 65.8-.6 22.8 4.4 46.2 14 67.7 27.7 21.4 13.6 40.2 30.8 54.2 49.8 12.6 16.9 21.9 34.9 30.9 52.4 14.1 27.3 27.4 53.1 51.7 73.3C312 442.6 384.6 441 436 422.4c30.5-11 60.1-27.6 96-53.6 15.7-11.3 31.1-23.5 46.1-35.2 2.9-2.3 5.9-4.6 8.8-6.9 21.5-16.8 46.7-36.1 73.7-52.6 28.9-17.6 55.8-29.5 82.5-36.4 12.1-3.1 24.7-5.4 37.5-6.6 44.4-4.3 93.4 2.6 145.6 20.7 43.4 15 83.7 35.1 126.3 56.5 13.6 6.8 27.7 13.9 41.8 20.7 11.9 5.8 24.5 11.7 37.5 17.6 99.9 45.4 180.3 72.3 253.1 84.5l-.1.4c-72.8-12.3-153.3-39.1-253.2-84.6-12.9-5.9-25.5-11.8-37.5-17.6-14.1-6.8-28.2-13.9-41.8-20.7-42.6-21.4-82.9-41.5-126.3-56.5-52.2-18.1-101.1-25.1-145.5-20.7-12.8 1.3-25.4 3.5-37.5 6.6-58.2 15.1-109 52.2-156 89-2.9 2.3-5.9 4.6-8.8 6.9-15 11.7-30.5 23.9-46.1 35.2-16.6 12.1-31.6 21.9-46 30.2-17.1 9.8-33.5 17.5-50 23.5-14.3 5.2-29.3 8.9-44.5 11-9.9 1.2-19.6 1.8-29.1 1.8z"/></g><g><linearGradient id="SVGID_34_" gradientUnits="userSpaceOnUse" x1="-50.951" y1="317.7" x2="1380.109" y2="317.7"><stop offset="0" stop-color="#016bae"/><stop offset=".497" stop-color="#fdc70c"/><stop offset="1" stop-color="#db206d"/></linearGradient><path class="st34" d="M365.5 433.2c-5.2 0-10.4-.2-15.5-.6-31.5-2.4-59.2-12.3-80.1-28.4-25.2-19.5-39.7-44.6-55-71.2-9.3-16.2-19-33-31.5-48.9-29.3-37.3-75.5-66.8-120.6-77.1-41.8-9.5-86.2-3.3-113.2 15.8l-.2-.3c12.7-9 29.6-15.3 48.9-18.4 20.8-3.3 43.1-2.4 64.6 2.5 22.3 5.1 45.3 15 66.5 28.6 21.1 13.5 39.9 30.4 54.2 48.7 12.5 15.9 22.2 32.7 31.5 48.9 15.3 26.6 29.7 51.7 54.9 71.1 40.9 31.6 107.3 38 169 16.2 30-10.6 60.4-27 95.6-51.7 16-11.2 31.9-23.2 47.2-34.7 2.6-2 5.2-3.9 7.8-5.9 21.7-16.4 47-35.1 73.6-51 28.7-17.2 55.5-28.9 81.7-35.9 12-3.2 24.4-5.5 37.1-6.9 44-4.9 92.5.8 144.3 17 47.1 14.7 91 35.6 137.3 57.8 9.9 4.7 20.2 9.6 30.4 14.4 11.8 5.5 23.9 11.1 37.2 17.1 75 33.8 163.1 70.7 248.5 88.4l-.1.4c-37.8-7.9-78.3-19.8-123.6-36.5-36.1-13.3-75.8-29.8-125-51.9-13.3-6-25.4-11.6-37.2-17.1-10.2-4.8-20.5-9.7-30.4-14.4-46.4-22.1-90.2-43-137.3-57.7-51.7-16.2-100.2-22-144.1-17-12.6 1.4-25.1 3.8-37 6.9-57.1 15.2-106 49.7-155.1 86.8-2.6 2-5.2 3.9-7.8 5.9-15.3 11.6-31.2 23.6-47.2 34.7-16.6 11.6-31.6 21.1-46 29.1-17.1 9.5-33.3 16.9-49.7 22.7-14.2 5-29 8.6-44.1 10.7-9.9 1.3-19.9 1.9-29.6 1.9z"/></g><g><linearGradient id="SVGID_35_" gradientUnits="userSpaceOnUse" x1="-47.911" y1="318.568" x2="1375.207" y2="318.568"><stop offset="0" stop-color="#016bae"/><stop offset=".497" stop-color="#fdc70c"/><stop offset="1" stop-color="#db206d"/></linearGradient><path class="st35" d="M368.3 431.1c-4.7 0-9.4-.2-14.1-.5-31-2.1-58.7-11.3-79.9-26.5-26.2-18.7-41.9-43.3-58.5-69.3-9.6-15-19.5-30.5-31.8-45.3-29.8-35.9-75.6-65.3-119.5-76.9-40.1-10.5-84-7.5-111.9 7.9l-.2-.4c13-7.2 29.9-11.9 48.8-13.5 20.5-1.8 42.5.1 63.4 5.6 21.8 5.7 44.4 15.9 65.4 29.4 20.8 13.4 39.6 29.9 54.3 47.6 12.3 14.8 22.2 30.3 31.9 45.3 16.6 25.9 32.3 50.4 58.4 69.1 41.3 29.6 107.1 35.2 167.8 14.4 29.8-10.2 60.1-26 95.3-49.8 16.4-11 32.7-22.9 48.4-34.3 2.2-1.6 4.4-3.2 6.7-4.8 22.9-16.6 47.4-34.1 73.4-49.4 28.6-16.7 55.1-28.3 81-35.4 11.8-3.2 24.1-5.7 36.6-7.3 43.6-5.6 91.7-1.1 143 13.3 51.8 14.4 100.1 36.5 151.3 59.8 5.3 2.4 10.7 4.9 16.1 7.3 10.9 5 22.6 10.2 36.9 16.6 87.6 39.1 166.5 73 243.8 92.2l-.1.4c-77.4-19.3-156.2-53.2-243.9-92.3-14.3-6.4-26-11.7-36.9-16.6-5.4-2.4-10.8-4.9-16.1-7.3-51.1-23.3-99.4-45.4-151.2-59.8-51.2-14.4-99.3-18.8-142.8-13.3-12.4 1.6-24.7 4-36.5 7.2-55.9 15.3-104.9 48.8-154.3 84.7-2.2 1.6-4.4 3.2-6.7 4.8-15.7 11.4-32 23.3-48.5 34.3-35.2 23.7-65.6 39.6-95.4 49.8-14.1 4.8-28.8 8.3-43.6 10.4-10.3 1.9-20.5 2.6-30.6 2.6z"/></g><g><linearGradient id="SVGID_36_" gradientUnits="userSpaceOnUse" x1="-44.86" y1="319.437" x2="1370.304" y2="319.437"><stop offset="0" stop-color="#016bae"/><stop offset=".497" stop-color="#fdc70c"/><stop offset="1" stop-color="#db206d"/></linearGradient><path class="st36" d="M371.1 429.3c-4.2 0-8.5-.1-12.7-.4-30.6-1.8-58.2-10.3-79.7-24.5-27.3-18-44.3-42-62.3-67.5-9.7-13.7-19.8-27.9-31.8-41.5-30.8-35-75.1-63.7-118.4-76.7-46.6-13.9-87.7-9.2-110.6 0l-.2-.4c13.4-5.4 30.3-8.4 48.6-8.7 20.3-.4 41.9 2.6 62.2 8.7 43.4 13 87.7 41.7 118.6 76.8 12 13.6 22.1 27.8 31.8 41.5 18 25.4 35 49.4 62.2 67.4 42.2 27.9 106.1 32.7 166.7 12.5 29.7-9.9 59.9-25.1 95-47.8 16.9-10.9 33.7-22.6 49.9-33.9 1.8-1.2 3.6-2.5 5.3-3.7 23.1-16.2 47.8-33.2 73.3-47.7 28.5-16.3 54.7-27.7 80.3-34.9 11.7-3.3 23.8-5.8 36.1-7.6 43.2-6.2 90.9-3 141.6 9.6 57.9 14.2 113.3 38.6 167 62.1l1.9.8c11.4 5 23.1 10.2 34.8 15.3 10.9 4.8 21.9 9.7 32.5 14.4 71.7 31.9 139.5 62.1 206.7 81.7l-.1.4c-67.3-19.6-135-49.8-206.8-81.7-10.6-4.7-21.6-9.6-32.5-14.4-11.7-5.1-23.4-10.3-34.8-15.3l-1.9-.8c-53.6-23.6-109-47.9-166.9-62.1-50.7-12.5-98.3-15.8-141.5-9.6-12.3 1.8-24.4 4.3-36.1 7.6-54.7 15.4-101.8 46.5-153.4 82.6-1.8 1.2-3.6 2.5-5.3 3.7-16.2 11.3-33 23-49.9 33.9-35.2 22.7-65.4 38-95.1 47.9-24.1 8.1-49.7 12.3-74.5 12.3z"/></g><g><linearGradient id="SVGID_37_" gradientUnits="userSpaceOnUse" x1="-41.797" y1="320.303" x2="1365.403" y2="320.303"><stop offset="0" stop-color="#016bae"/><stop offset=".497" stop-color="#fdc70c"/><stop offset="1" stop-color="#db206d"/></linearGradient><path class="st37" d="M373.6 427.9c-3.7 0-7.3-.1-11-.3-14.7-.7-28.8-2.9-41.9-6.6-13.7-3.8-26.4-9.2-37.5-16-28.5-17.4-47.1-40.9-66.7-65.9-9.7-12.3-19.7-25.1-31.3-37.5-31.4-33.7-75.3-62.3-117.3-76.5-37.8-12.7-78.6-15.7-109.3-8l-.1-.4c13.9-3.5 30.6-4.8 48.5-3.9 20.4 1.1 41 5.1 61.1 11.9 20.9 7 42.7 17.8 63.1 31.2 20.2 13.2 39 28.9 54.4 45.4 11.6 12.4 21.6 25.2 31.3 37.5 19.6 24.9 38.1 48.5 66.6 65.8 42.5 25.9 105.9 30 165.5 10.7 29.6-9.6 59.7-24.1 94.7-45.9 17.4-10.8 34.7-22.4 51.5-33.6l3.8-2.6c24.4-16.4 48.3-32.2 73.2-46.1 28.4-15.9 54.4-27.1 79.5-34.4 11.5-3.3 23.5-6 35.6-7.9 42.9-6.8 90.1-4.8 140.3 5.9 58.9 12.5 114.6 35 166.6 57.1 13.2 5.6 25.1 10.7 36.4 15.6 23.4 10.2 46.8 20.9 69.4 31.1 57.3 26.1 111.4 50.7 165.2 68.8l-.1.4c-53.8-18.2-107.9-42.8-165.2-68.8-22.6-10.3-46-20.9-69.4-31.1-11.3-4.9-23.2-10-36.4-15.6-52-22.1-107.6-44.6-166.5-57.1-50.1-10.7-97.3-12.7-140.1-5.9-12.1 1.9-24.1 4.6-35.6 7.9-57.7 16.6-110.3 52-152.5 80.4l-3.8 2.6c-16.7 11.2-34 22.9-51.5 33.6-35.1 21.8-65.2 36.3-94.8 45.9-24.8 8.2-50.7 12.3-75.7 12.3z"/></g><g><linearGradient id="SVGID_38_" gradientUnits="userSpaceOnUse" x1="-38.723" y1="321.172" x2="1360.502" y2="321.172"><stop offset="0" stop-color="#016bae"/><stop offset=".497" stop-color="#fdc70c"/><stop offset="1" stop-color="#db206d"/></linearGradient><path class="st38" d="M376 427.3c-3.1 0-6.1-.1-9.1-.2-14.6-.6-28.6-2.5-41.6-5.9-13.7-3.5-26.3-8.4-37.6-14.7-30-16.7-50.3-40-71.7-64.6-9.5-10.9-19.2-22.1-30.1-33.1-32.5-32.9-74.9-60.7-116.2-76.2-36-13.6-76.3-19.6-108.1-16l-.1-.5c14.4-1.6 31.1-1.3 48.4 1 20.2 2.6 40.4 7.7 59.9 15 20.4 7.7 41.8 18.8 62 32 19.9 13.1 38.7 28.4 54.4 44.3 10.9 11 20.7 22.3 30.2 33.2 21.4 24.6 41.6 47.9 71.5 64.5 43.4 24.2 104.8 27.5 164.3 8.8 29.4-9.2 59.4-23.2 94.4-43.9 18.1-10.7 36-22.2 53.3-33.4l2-1.3c44.8-28.9 95.6-61.7 151.8-78.3 11.4-3.4 23.2-6.1 35.2-8.2 42.6-7.5 89.4-6.7 139 2.2 60.5 10.8 118 32.4 166.2 52.1 12.5 5.1 24.7 10.2 36.1 15.2 33.7 14.6 66.8 30.3 98.8 45.4 45.4 21.5 88.4 41.9 131.1 58.4l-.2.4c-42.8-16.5-85.7-36.9-131.2-58.4-32-15.2-65.1-30.9-98.8-45.4-11.4-4.9-23.6-10-36.1-15.2-48.2-19.7-105.6-41.3-166.1-52-49.5-8.9-96.2-9.6-138.8-2.2-11.9 2.1-23.7 4.9-35.1 8.2-56 16.5-106.8 49.3-151.6 78.2l-2 1.3c-17.3 11.2-35.3 22.7-53.4 33.4-35 20.8-65 34.7-94.5 44-24.9 7.8-51.1 11.9-76.3 11.9z"/></g><g><linearGradient id="SVGID_39_" gradientUnits="userSpaceOnUse" x1="-35.666" y1="322.038" x2="1355.601" y2="322.038"><stop offset="0" stop-color="#016bae"/><stop offset=".497" stop-color="#fdc70c"/><stop offset="1" stop-color="#db206d"/></linearGradient><path class="st39" d="M378.3 427.7c-2.4 0-4.7 0-7.1-.1-14.4-.4-28.3-2.2-41.3-5.2-13.6-3.1-26.3-7.7-37.7-13.5-31.9-16.1-54-39.3-77.5-63.8-8.9-9.3-18.1-18.9-28.1-28.4-33.2-31.6-75.2-59.3-115.2-76-48.8-20.4-90.9-23.5-106.7-23.9v-.5c14.9.4 31.6 2.4 48.2 5.8 20 4.1 39.8 10.2 58.7 18.1 40 16.7 82 44.5 115.3 76.1 10 9.5 19.2 19.1 28.2 28.4 23.4 24.5 45.6 47.6 77.4 63.7 43.7 22.1 104.7 24.7 163.1 7 29.3-8.9 59.2-22.3 94.1-42 18.8-10.6 37.5-22.1 55.5-33.3 47.4-29.3 96.4-59.6 150.9-76.2 11.3-3.4 22.9-6.3 34.7-8.6 42.4-8.1 88.7-8.7 137.6-1.6 26.9 3.9 54.2 9.9 83.5 18.4 25.3 7.4 52.2 16.7 82.3 28.6 12.3 4.8 24.4 9.8 35.9 14.7 42.3 18.1 83 38.5 122.3 58.2 35.6 17.9 69.3 34.8 103 49.5l-.2.5c-33.7-14.7-67.4-31.6-103-49.5-39.4-19.7-80-40.1-122.3-58.2-11.5-4.9-23.5-9.9-35.9-14.7-63.4-25-116.1-39.9-165.7-47-48.9-7.1-95.1-6.6-137.5 1.5-11.7 2.3-23.4 5.1-34.6 8.5-54.5 16.6-103.4 46.9-150.8 76.1-18 11.1-36.7 22.6-55.5 33.3-34.9 19.8-64.8 33.1-94.2 42-25.4 8.1-52 12.1-77.4 12.1z"/></g><g><linearGradient id="SVGID_40_" gradientUnits="userSpaceOnUse" x1="-32.712" y1="322.894" x2="1350.7" y2="322.894"><stop offset="0" stop-color="#016bae"/><stop offset=".497" stop-color="#fdc70c"/><stop offset="1" stop-color="#db206d"/></linearGradient><path class="st40" d="M380.3 428.6h-4.9c-14.2-.3-28-1.8-40.9-4.5-13.5-2.8-26.3-6.9-37.8-12.2-34.1-15.6-58.6-38.8-84.5-63.4-8-7.6-16.2-15.4-25-23.2-34-30.4-75.6-58.1-114.1-75.8-41.7-19.2-80.4-27.9-105.4-31.8l.1-.5c25.1 3.9 63.8 12.6 105.6 31.8 19.6 9 39.7 20.4 59.7 33.8 19.4 13 37.7 27.1 54.5 42.1 8.7 7.8 17 15.6 25 23.2 25.9 24.6 50.3 47.8 84.4 63.3 44.6 20.4 103.6 22.2 162 5.1 29.3-8.6 59-21.3 93.7-40.1 18.1-9.8 35.9-20.2 55.6-31.8l2.5-1.5c46.6-27.6 94.8-56.1 147.5-72.6 11.1-3.5 22.6-6.5 34.2-8.9 42.2-8.8 88.1-10.6 136.3-5.3 27.2 3 54.5 8.1 83.3 15.6 26.2 6.8 53 15.5 82.1 26.4 12.2 4.6 24.1 9.4 35.6 14.2 49.5 20.9 96.1 45.9 141.1 70.1 27.5 14.7 53.5 28.7 79.6 41.5l-.2.5c-26.1-12.8-52.1-26.7-79.6-41.5-45-24.2-91.6-49.1-141.1-70.1-11.5-4.8-23.4-9.6-35.6-14.2-60-22.7-114-36.4-165.3-42-48.1-5.3-93.9-3.6-136.1 5.3-11.6 2.4-23 5.4-34.2 8.9-52.6 16.5-100.8 45-147.4 72.5l-2.5 1.5c-19.7 11.6-37.4 22-55.6 31.8-34.7 18.8-64.5 31.5-93.8 40.1-26 7.8-53.1 11.7-78.8 11.7z"/></g><g><linearGradient id="SVGID_41_" gradientUnits="userSpaceOnUse" x1="-29.752" y1="323.756" x2="1345.8" y2="323.756"><stop offset="0" stop-color="#016bae"/><stop offset=".497" stop-color="#fdc70c"/><stop offset="1" stop-color="#db206d"/></linearGradient><path class="st41" d="M382 429.6h-2.4c-29-.3-55.4-5.2-78.6-14.7-37-15.1-64.3-38.8-93.2-63.8-6.5-5.6-13.2-11.4-20.1-17.2-35.5-29.8-75.7-56.7-113-75.6-31.2-15.8-65.3-28.8-104.1-39.7l.1-.5c38.9 11 73 24 104.2 39.8 37.4 18.9 77.6 45.8 113.1 75.7 6.9 5.8 13.6 11.6 20.1 17.2 28.9 25 56.2 48.6 93.1 63.7C346 432.8 404.6 434 462 417.8c29.2-8.2 58.9-20.4 93.4-38.1 18.9-9.7 37.1-19.8 55.7-30.3 2-1.1 4-2.2 6-3.4 45.5-25.7 92.5-52.3 143.2-68.5 11-3.5 22.3-6.6 33.7-9.2 42.2-9.6 87.6-12.6 135-9 53.2 4 107.2 16 165 37 12.1 4.4 23.9 9 35.3 13.7 55.6 23.2 106.6 52.7 156 81.3 20.7 12 40.3 23.3 60.1 34.1l-.3.5c-19.8-10.8-39.4-22.1-60.1-34.1-49.4-28.5-100.4-58.1-155.9-81.3-11.4-4.8-23.3-9.4-35.3-13.7-57.8-20.9-111.7-33-164.9-36.9-47.3-3.6-92.7-.6-134.8 9-11.4 2.6-22.7 5.7-33.7 9.2-50.7 16.3-97.7 42.8-143.1 68.5-2 1.1-4 2.2-6 3.4-18.6 10.5-36.8 20.7-55.7 30.3-34.6 17.8-64.3 29.9-93.5 38.2-26.3 7.2-54 11.1-80.1 11.1z"/></g><g><linearGradient id="SVGID_42_" gradientUnits="userSpaceOnUse" x1="-26.783" y1="324.622" x2="1340.9" y2="324.622"><stop offset="0" stop-color="#016bae"/><stop offset=".497" stop-color="#fdc70c"/><stop offset="1" stop-color="#db206d"/></linearGradient><path class="st42" d="M383.5 430.5c-28.4 0-54.6-4.3-78-12.7-40.7-14.7-71.6-39.3-104.3-65.2-4.2-3.3-8.5-6.8-12.9-10.2-26.2-20.6-66.9-50.4-112-75.4-36.1-20-70.8-34.7-102.9-47.7l.2-.5c32.1 13 66.8 27.7 102.9 47.7 45.1 25 85.8 54.8 112 75.4 4.4 3.4 8.7 6.9 12.9 10.2 32.7 25.9 63.5 50.4 104.1 65.2 45.6 16.5 102.3 17 159.6 1.4 29.1-7.9 58.7-19.4 93.1-36.2 19.6-9.5 39.1-19.9 55.8-28.8 3.3-1.8 6.7-3.6 10-5.4 44.1-23.8 89.8-48.4 138.3-64.4 10.9-3.6 22.1-6.8 33.2-9.5 42.1-10.3 87.1-14.6 133.6-12.7 27.5 1.1 55.4 4.4 83 9.8 26.9 5.3 54.4 12.7 81.6 22.1 11.9 4.1 23.7 8.6 35.1 13.3 60.7 25 115 59.1 167.6 92.1 15.1 9.5 29.4 18.4 43.9 27.2l-.3.5c-14.5-8.8-28.8-17.7-43.9-27.2-52.5-32.9-106.9-67-167.5-92-11.3-4.7-23.1-9.1-35-13.3-55.1-19-110.4-29.8-164.5-31.9-46.5-1.9-91.4 2.4-133.5 12.7-11.2 2.7-22.3 5.9-33.2 9.5-48.5 16-94.1 40.6-138.2 64.4-3.3 1.8-6.7 3.6-10 5.4-16.7 9-36.2 19.3-55.8 28.9-34.4 16.8-64 28.3-93.2 36.2-27.4 7.4-54.8 11.2-81.6 11.3.1-.2 0-.2-.1-.2z"/></g><g><linearGradient id="SVGID_43_" gradientUnits="userSpaceOnUse" x1="-23.807" y1="325.491" x2="1335.999" y2="325.491"><stop offset="0" stop-color="#016bae"/><stop offset=".497" stop-color="#fdc70c"/><stop offset="1" stop-color="#db206d"/></linearGradient><path class="st43" d="M384.4 431.5c-26.8 0-51.8-3.6-74.4-10.8-20.9-6.6-40.7-15.8-62.3-29-19.2-11.8-37.5-25.2-56.8-39.4l-2-1.5c-41.3-30.4-78.6-55.7-110.9-75.2-33.5-20.2-65-36.6-92.7-51-3-1.6-6-3.1-8.9-4.6l.3-.5c2.9 1.5 5.8 3 8.9 4.6 27.7 14.4 59.2 30.8 92.7 51 32.3 19.5 69.7 44.8 110.9 75.2l2 1.5c37.7 27.7 73.2 53.8 118.9 68.3s102 14.3 158.4-.4c28.7-7.5 59.1-18.7 92.8-34.2 19.4-8.9 38.3-18.4 55.8-27.4l14.9-7.6c42.5-21.8 86.4-44.4 132.6-60 10.8-3.7 21.8-7 32.8-9.9 42.2-11.1 86.8-16.7 132.3-16.4 27.7.1 55.6 2.4 82.9 6.9 27.3 4.5 54.7 11.2 81.4 20 11.9 3.9 23.6 8.2 34.8 12.8 64.9 26.5 121.6 65.1 176.4 102.5 10 6.8 20.4 13.9 30.5 20.7l-.3.5c-10.1-6.8-20.5-13.8-30.5-20.7-54.8-37.3-111.4-76-176.3-102.4-11.2-4.6-22.9-8.9-34.8-12.8-53.4-17.6-108.6-26.6-164.1-26.9-45.5-.2-90 5.3-132.2 16.4-11 2.9-22 6.2-32.7 9.9-46.1 15.6-90 38.2-132.5 60-4.9 2.5-9.9 5.1-14.9 7.6-17.6 9-36.5 18.5-55.9 27.4-33.8 15.6-64.1 26.8-92.9 34.3-27.2 7.1-54.3 10.9-80.7 11.2-1-.1-2.3-.1-3.5-.1z"/></g><g><linearGradient id="SVGID_44_" gradientUnits="userSpaceOnUse" x1="-20.825" y1="326.363" x2="1331.098" y2="326.363"><stop offset="0" stop-color="#016bae"/><stop offset=".497" stop-color="#fdc70c"/><stop offset="1" stop-color="#db206d"/></linearGradient><path class="st44" d="M384.9 432.5c-25 0-48.7-3-70.4-8.9-47.9-13-86.4-37.8-124.8-64.3-9.1-6.3-18.6-12.8-27.8-19.2-27-18.7-55-38.1-82.1-55.8-24-15.7-46.7-29.9-68.6-43.7-11.1-7-21.6-13.6-31.7-19.9l.3-.5c10 6.4 20.5 12.9 31.6 19.9 22 13.7 44.7 28 68.6 43.7 27.1 17.7 55 37.1 82.1 55.8 9.2 6.3 18.6 12.9 27.7 19.2 38.4 26.4 76.9 51.2 124.7 64.2 46.4 12.6 100.8 11.9 157.3-2.3 28.7-7.2 58.9-17.7 92.5-32.3 20.1-8.7 39.6-18 55.9-25.9 7-3.4 14.1-6.8 20.9-10.2 40.5-19.8 82.3-40.2 125.6-55.3 10.7-3.7 21.5-7.1 32.3-10.2 42.4-12 86.5-18.8 131-20.1 56.7-1.8 111.8 5.6 163.8 21.9 11.8 3.7 23.4 7.8 34.6 12.3 68.5 27.6 126.6 70.8 182.8 112.6 6.4 4.7 13 9.6 19.4 14.4l-.4.5c-6.4-4.8-13-9.7-19.4-14.4-56.2-41.8-114.3-85-182.7-112.5-11.1-4.5-22.8-8.6-34.5-12.3-52-16.3-107-23.6-163.7-21.8-44.4 1.3-88.4 8.1-130.8 20.1-10.7 3-21.6 6.5-32.3 10.2-43.3 15.1-85.1 35.5-125.6 55.3-6.9 3.3-13.9 6.8-20.9 10.2-16.4 7.9-35.8 17.2-56 25.9-33.6 14.6-63.8 25.1-92.6 32.3-27 6.7-53.8 10.5-79.7 11.1h-7.1z"/></g><g><linearGradient id="SVGID_45_" gradientUnits="userSpaceOnUse" x1="-17.837" y1="327.236" x2="1326.197" y2="327.236"><stop offset="0" stop-color="#016bae"/><stop offset=".497" stop-color="#fdc70c"/><stop offset="1" stop-color="#db206d"/></linearGradient><path class="st45" d="M384.5 433.6c-23.1 0-45.1-2.4-65.6-7.1-22.3-5.1-44.3-12.8-67-23.6-18.5-8.8-38.1-20-61.7-35-35.8-22.9-72.1-48.7-107.2-73.6l-1.6-1.1c-38.9-27.6-70.6-50.3-99-71.5l.4-.5c28.4 21.2 60.1 43.9 99 71.5l1.6 1.1c35.1 24.9 71.4 50.7 107.1 73.6 37 23.7 78.2 47.2 128.5 58.6 46.2 10.7 100.2 9.2 156.1-4.1 28.7-6.9 58.9-16.8 92.2-30.4 16.3-6.7 33.6-14.2 56-24.4 9.6-4.4 19.3-8.9 28.7-13.3 37.8-17.6 76.9-35.7 116.9-50.1 10.6-3.8 21.3-7.3 31.8-10.5 42.8-12.9 86.4-21 129.6-23.8 57.7-3.9 112.7 1.8 163.5 16.8 11.7 3.5 23.2 7.4 34.3 11.8 71.4 28.4 130.3 76.2 187.3 122.5 3.5 2.8 6.9 5.6 10.4 8.4l-.4.5c-3.4-2.8-6.9-5.6-10.4-8.4-56.9-46.2-115.8-94-187.1-122.4-11-4.4-22.6-8.4-34.2-11.8-50.7-15-105.6-20.7-163.2-16.8-43.2 2.9-86.8 10.9-129.5 23.8-10.5 3.2-21.2 6.7-31.8 10.5-40 14.3-79.1 32.5-116.9 50-9.4 4.4-19.2 8.9-28.7 13.3-22.4 10.2-39.7 17.8-56.1 24.4-33.3 13.6-63.5 23.5-92.2 30.4-26.9 6.4-53.4 10.1-78.7 11-4.1.1-8.1.2-12.1.2z"/></g><g><linearGradient id="SVGID_46_" gradientUnits="userSpaceOnUse" x1="-14.845" y1="328.116" x2="1321.295" y2="328.116"><stop offset="0" stop-color="#016bae"/><stop offset=".497" stop-color="#fdc70c"/><stop offset="1" stop-color="#db206d"/></linearGradient><path class="st46" d="M383.3 434.7c-20.8 0-40.8-1.8-59.9-5.4-23.1-4.3-45.6-11-68.9-20.7-20.3-8.4-41.1-19-63.6-32.4-32.2-19.2-66.5-42.9-107.7-74.6-30.4-23.4-62.4-49.4-97.7-79.5l.4-.5c35.3 30.1 67.3 56.1 97.6 79.5 41.2 31.7 75.4 55.4 107.6 74.5 47.4 28.2 89.4 45 132.3 53 46.8 8.8 99 6.8 154.9-6 28.8-6.6 58.9-15.8 91.8-28.4 16.7-6.3 34.5-13.6 56.1-23 13.1-5.7 26.5-11.6 39.4-17.3 34.2-15.1 69.6-30.8 105.4-43.9 10.6-3.9 21.1-7.5 31.3-10.8 43.3-14 86.4-23.3 128.3-27.6 58.6-6 113.5-2.1 163.1 11.8 11.6 3.2 23.1 7.1 34 11.4 73.8 28.9 132.9 81.4 190 132.1l3 2.7-.4.5-3-2.7c-57.1-50.7-116.1-103.1-189.8-132-11-4.3-22.4-8.1-34-11.4-49.5-13.8-104.3-17.8-162.8-11.8-41.8 4.3-84.9 13.6-128.2 27.5-10.2 3.3-20.7 6.9-31.3 10.8-35.8 13.2-71.2 28.8-105.4 43.9-12.9 5.7-26.2 11.6-39.4 17.3-21.6 9.3-39.5 16.6-56.2 23-33 12.6-63.1 21.9-91.9 28.4-32.9 7.8-64.8 11.6-95 11.6z"/></g><g><linearGradient id="SVGID_47_" gradientUnits="userSpaceOnUse" x1="-11.85" y1="328.988" x2="1316.393" y2="328.988"><stop offset="0" stop-color="#016bae"/><stop offset=".497" stop-color="#fdc70c"/><stop offset="1" stop-color="#db206d"/></linearGradient><path class="st47" d="M380.8 435.8c-18.1 0-35.9-1.2-52.9-3.7-16.6-2.4-33.3-6.1-49.8-10.9-15.7-4.6-31.6-10.4-47.2-17.2-29-12.6-57.6-28.8-87.6-49.4-25.3-17.4-51.5-38-80.1-63-26.8-23.4-52.5-47.8-74.5-68.8l.5-.5C97.1 325.4 197 412.4 328.2 431.4c71 10.3 151.2-.9 245.3-34.3 37.7-13.4 75-29.1 111.1-44.3 38.9-16.4 79.1-33.4 119.9-47.4 57.1-19.7 111.7-31.4 162.3-35 28.6-2 56.2-1.4 82.1 1.8 27.9 3.5 54.5 10 79.1 19.5 33.4 12.9 66.5 32.5 101.2 59.8 31.8 25.1 61.2 53.6 87.2 78.8l-.5.5c-52.8-51.2-112.6-109.3-188.2-138.5-39.1-15.1-82.1-22.7-128.7-22.7-59.1 0-124 12.1-194.2 36.3-40.7 14-80.9 31-119.8 47.4-36.1 15.2-73.5 31-111.2 44.3-43.8 15.5-83.5 26-121.1 32.1-21.3 3.4-42.3 5.4-62.2 5.9-3.5.1-6.6.2-9.7.2z"/></g></g></g></svg>