<svg id="Layer_1" xmlns="http://www.w3.org/2000/svg" viewBox="0 0 1336.7 426.4"><style>.st0{fill:url(#SVGID_1_)}.st1{fill:url(#SVGID_2_)}.st2{fill:url(#SVGID_3_)}.st3{fill:url(#SVGID_4_)}.st4{fill:url(#SVGID_5_)}.st5{fill:url(#SVGID_6_)}.st6{fill:url(#SVGID_7_)}.st7{fill:url(#SVGID_8_)}.st8{fill:url(#SVGID_9_)}.st9{fill:url(#SVGID_10_)}.st10{fill:url(#SVGID_11_)}.st11{fill:url(#SVGID_12_)}.st12{fill:url(#SVGID_13_)}.st13{fill:url(#SVGID_14_)}.st14{fill:url(#SVGID_15_)}.st15{fill:url(#SVGID_16_)}.st16{fill:url(#SVGID_17_)}.st17{fill:url(#SVGID_18_)}.st18{fill:url(#SVGID_19_)}.st19{fill:url(#SVGID_20_)}.st20{fill:url(#SVGID_21_)}.st21{fill:url(#SVGID_22_)}.st22{fill:url(#SVGID_23_)}.st23{fill:url(#SVGID_24_)}.st24{fill:url(#SVGID_25_)}.st25{fill:url(#SVGID_26_)}.st26{fill:url(#SVGID_27_)}.st27{fill:url(#SVGID_28_)}.st28{fill:url(#SVGID_29_)}.st29{fill:url(#SVGID_30_)}.st30{fill:url(#SVGID_31_)}.st31{fill:url(#SVGID_32_)}.st32{fill:url(#SVGID_33_)}.st33{fill:url(#SVGID_34_)}.st34{fill:url(#SVGID_35_)}.st35{fill:url(#SVGID_36_)}.st36{fill:url(#SVGID_37_)}.st37{fill:url(#SVGID_38_)}.st38{fill:url(#SVGID_39_)}.st39{fill:url(#SVGID_40_)}.st40{fill:url(#SVGID_41_)}.st41{fill:url(#SVGID_42_)}.st42{fill:url(#SVGID_43_)}.st43{fill:url(#SVGID_44_)}.st44{fill:url(#SVGID_45_)}.st45{fill:url(#SVGID_46_)}</style><linearGradient id="SVGID_1_" gradientUnits="userSpaceOnUse" x1="365.832" y1="586.948" x2="-50.959" y2="-683.134"><stop offset="0" stop-color="#ff772a"/><stop offset="1" stop-color="#FFF"/></linearGradient><path class="st0" d="M260.8 425.6H365c-22.7 0-43.5-7.9-59.8-21.2-10.5 12.9-26.5 21.2-44.4 21.2z"/><radialGradient id="SVGID_2_" cx="1098.258" cy="91.912" r="72.648" gradientTransform="matrix(-.386 -.9225 2.821 -1.1804 1262.878 1213.55)" gradientUnits="userSpaceOnUse"><stop offset="0" stop-color="#ff772a"/><stop offset="1" stop-color="#FFF"/></radialGradient><circle class="st1" cx="1071.5" cy="43.5" r="31.8"/><radialGradient id="SVGID_3_" cx="1055.532" cy="156.501" r="76.212" gradientTransform="matrix(-.386 -.9225 2.821 -1.1804 1021.447 1314.965)" gradientUnits="userSpaceOnUse"><stop offset="0" stop-color="#ff772a"/><stop offset="1" stop-color="#FFF"/></radialGradient><path class="st2" d="M1039.7 103.1s5.7-21 13.8-33.4l5.1 2.9s-2.5 19.1-13.2 34.1c0 0-7.4 21.7-20.7 31.8l-5.1-3.5c.1 0 9-21.9 20.1-31.9z"/><radialGradient id="SVGID_4_" cx="1524.638" cy="-557.477" r="72.648" gradientTransform="matrix(.1158 -.9933 3.0375 .354 2657.61 1873.773)" gradientUnits="userSpaceOnUse"><stop offset="0" stop-color="#ff772a"/><stop offset="1" stop-color="#FFF"/></radialGradient><circle class="st3" cx="1141.3" cy="106.7" r="31.8"/><radialGradient id="SVGID_5_" cx="1423.428" cy="-300.946" r="76.212" gradientTransform="matrix(-.01097 -.9999 3.0579 -.03355 2020.77 1619.865)" gradientUnits="userSpaceOnUse"><stop offset="0" stop-color="#ff772a"/><stop offset="1" stop-color="#FFF"/></radialGradient><path class="st4" d="M1090.3 151.2s13.2-17.3 25.4-25.8l3.7 4.6s-9.5 16.8-25.1 26.7c0 0-15 17.3-31.1 21.7l-3.4-5.2s16.5-17 30.5-22z"/><linearGradient id="SVGID_6_" gradientUnits="userSpaceOnUse" x1="1117.165" y1="340.39" x2="700.375" y2="-929.692"><stop offset="0" stop-color="#ff772a"/><stop offset="1" stop-color="#FFF"/></linearGradient><path class="st5" d="M953.5 425.6h383.2s-171.8-27.1-245.9-157.9c0 80.6-59.7 147.1-137.3 157.9z"/><linearGradient id="SVGID_7_" gradientUnits="userSpaceOnUse" x1="201.103" y1="641.005" x2="-215.687" y2="-629.077"><stop offset="0" stop-color="#ff772a"/><stop offset="1" stop-color="#FFF"/></linearGradient><path class="st6" d="M203.7 368.5c0-7.7 1.5-15.1 4.3-21.8 0 0-81.1 51.9-208 78.9h260.8c-31.5 0-57.1-25.6-57.1-57.1z"/><linearGradient id="SVGID_8_" gradientUnits="userSpaceOnUse" x1="492.587" y1="545.352" x2="75.796" y2="-724.73"><stop offset="0" stop-color="#ff772a"/><stop offset="1" stop-color="#FFF"/></linearGradient><path class="st7" d="M365 425.6h176.6c-38.6 0-73.8-14.4-100.6-38.1-17.3 23.1-44.9 38.1-76 38.1z"/><linearGradient id="SVGID_9_" gradientUnits="userSpaceOnUse" x1="831.019" y1="434.292" x2="414.228" y2="-835.79"><stop offset="0" stop-color="#ff772a"/><stop offset="1" stop-color="#FFF"/></linearGradient><path class="st8" d="M747 425.6h162.4c-23.5-3.3-45.3-11.6-64.4-23.9a212.49 212.49 0 0 1-98 23.9z"/><linearGradient id="SVGID_10_" gradientUnits="userSpaceOnUse" x1="665.018" y1="488.767" x2="248.227" y2="-781.315"><stop offset="0" stop-color="#ff772a"/><stop offset="1" stop-color="#FFF"/></linearGradient><path class="st9" d="M541.6 425.6H747c-41.2 0-79.6-11.7-112.1-32-25.8 20-58.2 32-93.3 32z"/><radialGradient id="SVGID_11_" cx="974.173" cy="364.184" r="256.162" gradientTransform="matrix(-.3343 -.9425 3.6444 -1.2927 -27.4 1753.106)" gradientUnits="userSpaceOnUse"><stop offset="0" stop-color="#ff772a"/><stop offset="1" stop-color="#FFF"/></radialGradient><path class="st10" d="M948.5 280.4l142.3-12.7c0-87.9-71.2-159.2-159.1-159.4 17.6 30.9 27.6 66.7 27.6 104.8.1 23.6-3.8 46.2-10.8 67.3z"/><radialGradient id="SVGID_12_" cx="974.173" cy="364.184" r="256.162" gradientTransform="matrix(-.3343 -.9425 3.6444 -1.2927 -27.4 1753.106)" gradientUnits="userSpaceOnUse"><stop offset="0" stop-color="#ff772a"/><stop offset="1" stop-color="#FFF"/></radialGradient><path class="st11" d="M953.5 425.6h-44.1c7.2 1 14.6 1.5 22.1 1.5s14.8-.5 22-1.5z"/><linearGradient id="SVGID_13_" gradientUnits="userSpaceOnUse" x1="984.098" y1="384.058" x2="567.308" y2="-886.025"><stop offset="0" stop-color="#ff772a"/><stop offset="1" stop-color="#FFF"/></linearGradient><path class="st12" d="M1090.8 267.7l-142.3 12.7C931 333 893.4 376.4 845 401.6c19 12.3 40.9 20.7 64.4 23.9h44.1c77.6-10.7 137.3-77.2 137.3-157.8z"/><radialGradient id="SVGID_14_" cx="974.173" cy="364.184" r="256.162" gradientTransform="matrix(-.3343 -.9425 3.6444 -1.2927 -27.4 1753.106)" gradientUnits="userSpaceOnUse"><stop offset="0" stop-color="#ff772a"/><stop offset="1" stop-color="#FFF"/></radialGradient><path class="st13" d="M1090.8 267.7l-142.3 12.7C931 333 893.4 376.4 845 401.6c19 12.3 40.9 20.7 64.4 23.9h44.1c77.6-10.7 137.3-77.2 137.3-157.8z"/><radialGradient id="SVGID_15_" cx="823.944" cy="392.819" r="294.877" gradientTransform="matrix(-.3783 -.9257 2.964 -1.2113 -28.61 1631.34)" gradientUnits="userSpaceOnUse"><stop offset="0" stop-color="#ff772a"/><stop offset="1" stop-color="#FFF"/></radialGradient><path class="st14" d="M693.4 273.8c0 10.2-1 20.1-2.9 29.7l84.1-7.5c-1.6-9.2-2.5-18.6-2.5-28.3 0-88 71.4-159.4 159.4-159.4h.3C895.2 44.1 826.2.7 747 .7c-84.9 0-158.2 49.9-192.2 121.9 77.6 6.7 138.6 71.8 138.6 151.2z"/><linearGradient id="SVGID_16_" gradientUnits="userSpaceOnUse" x1="759.626" y1="457.721" x2="342.835" y2="-812.362"><stop offset="0" stop-color="#ff772a"/><stop offset="1" stop-color="#FFF"/></linearGradient><path class="st15" d="M774.5 296l-84.1 7.5c-7.2 36.4-27.4 68.1-55.6 90.1 32.5 20.3 71 32 112.1 32 35.4 0 68.7-8.7 98-23.9-36.3-23.6-62.4-61.5-70.4-105.7z"/><radialGradient id="SVGID_17_" cx="823.944" cy="392.819" r="294.877" gradientTransform="matrix(-.3783 -.9257 2.964 -1.2113 -28.61 1631.34)" gradientUnits="userSpaceOnUse"><stop offset="0" stop-color="#ff772a"/><stop offset="1" stop-color="#FFF"/></radialGradient><path class="st16" d="M774.5 296l-84.1 7.5c-7.2 36.4-27.4 68.1-55.6 90.1 32.5 20.3 71 32 112.1 32 35.4 0 68.7-8.7 98-23.9-36.3-23.6-62.4-61.5-70.4-105.7z"/><radialGradient id="SVGID_18_" cx="974.173" cy="364.184" r="256.162" gradientTransform="matrix(-.3343 -.9425 3.6444 -1.2927 -27.4 1753.106)" gradientUnits="userSpaceOnUse"><stop offset="0" stop-color="#ff772a"/><stop offset="1" stop-color="#FFF"/></radialGradient><path class="st17" d="M772 267.7c0 9.6.9 19.1 2.5 28.3l173.9-15.6c7.1-21.1 10.9-43.8 10.9-67.3 0-38.1-10-73.9-27.6-104.8h-.3c-88 0-159.4 71.4-159.4 159.4z"/><radialGradient id="SVGID_19_" cx="823.944" cy="392.819" r="294.877" gradientTransform="matrix(-.3783 -.9257 2.964 -1.2113 -28.61 1631.34)" gradientUnits="userSpaceOnUse"><stop offset="0" stop-color="#ff772a"/><stop offset="1" stop-color="#FFF"/></radialGradient><path class="st18" d="M772 267.7c0 9.6.9 19.1 2.5 28.3l173.9-15.6c7.1-21.1 10.9-43.8 10.9-67.3 0-38.1-10-73.9-27.6-104.8h-.3c-88 0-159.4 71.4-159.4 159.4z"/><linearGradient id="SVGID_20_" gradientUnits="userSpaceOnUse" x1="901.091" y1="411.297" x2="484.301" y2="-858.785"><stop offset="0" stop-color="#ff772a"/><stop offset="1" stop-color="#FFF"/></linearGradient><path class="st19" d="M845 401.6c48.5-25.3 86-68.7 103.5-121.2l-174 15.6c8 44.2 34.1 82.1 70.5 105.6z"/><radialGradient id="SVGID_21_" cx="974.173" cy="364.184" r="256.162" gradientTransform="matrix(-.3343 -.9425 3.6444 -1.2927 -27.4 1753.106)" gradientUnits="userSpaceOnUse"><stop offset="0" stop-color="#ff772a"/><stop offset="1" stop-color="#FFF"/></radialGradient><path class="st20" d="M845 401.6c48.5-25.3 86-68.7 103.5-121.2l-174 15.6c8 44.2 34.1 82.1 70.5 105.6z"/><radialGradient id="SVGID_22_" cx="823.944" cy="392.819" r="294.877" gradientTransform="matrix(-.3783 -.9257 2.964 -1.2113 -28.61 1631.34)" gradientUnits="userSpaceOnUse"><stop offset="0" stop-color="#ff772a"/><stop offset="1" stop-color="#FFF"/></radialGradient><path class="st21" d="M845 401.6c48.5-25.3 86-68.7 103.5-121.2l-174 15.6c8 44.2 34.1 82.1 70.5 105.6z"/><radialGradient id="SVGID_23_" cx="589.846" cy="400.748" r="209.809" gradientTransform="matrix(-.4144 -.91 2.0446 -.931 14.933 1310.667)" gradientUnits="userSpaceOnUse"><stop offset="0" stop-color="#ff772a"/><stop offset="1" stop-color="#FFF"/></radialGradient><path class="st22" d="M459.7 324.1l100.8-9c-16.6-30.3-26-65-26-102 0-32.4 7.3-63.1 20.2-90.5-4.3-.4-8.7-.6-13.1-.6-72.2 0-132.6 50.4-148 117.9 36.5 11.6 63.5 44.6 66.1 84.2z"/><linearGradient id="SVGID_24_" gradientUnits="userSpaceOnUse" x1="579.392" y1="516.866" x2="162.602" y2="-753.216"><stop offset="0" stop-color="#ff772a"/><stop offset="1" stop-color="#FFF"/></linearGradient><path class="st23" d="M560.6 315.1l-100.8 9c.1 2.1.2 4.3.2 6.4 0 21.3-7 41-18.9 56.9 26.8 23.7 62 38.1 100.6 38.1 35.1 0 67.5-11.9 93.2-32-31.1-19.2-56.7-46.3-74.3-78.4z"/><radialGradient id="SVGID_25_" cx="589.846" cy="400.748" r="209.809" gradientTransform="matrix(-.4144 -.91 2.0446 -.931 14.933 1310.667)" gradientUnits="userSpaceOnUse"><stop offset="0" stop-color="#ff772a"/><stop offset="1" stop-color="#FFF"/></radialGradient><path class="st24" d="M560.6 315.1l-100.8 9c.1 2.1.2 4.3.2 6.4 0 21.3-7 41-18.9 56.9 26.8 23.7 62 38.1 100.6 38.1 35.1 0 67.5-11.9 93.2-32-31.1-19.2-56.7-46.3-74.3-78.4z"/><radialGradient id="SVGID_26_" cx="823.944" cy="392.819" r="294.877" gradientTransform="matrix(-.3783 -.9257 2.964 -1.2113 -28.61 1631.34)" gradientUnits="userSpaceOnUse"><stop offset="0" stop-color="#ff772a"/><stop offset="1" stop-color="#FFF"/></radialGradient><path class="st25" d="M560.6 315.1l129.9-11.6c1.9-9.6 2.9-19.5 2.9-29.7 0-79.4-61-144.5-138.6-151.2-13 27.5-20.2 58.1-20.2 90.5-.1 37 9.4 71.8 26 102z"/><radialGradient id="SVGID_27_" cx="589.846" cy="400.748" r="209.809" gradientTransform="matrix(-.4144 -.91 2.0446 -.931 14.933 1310.667)" gradientUnits="userSpaceOnUse"><stop offset="0" stop-color="#ff772a"/><stop offset="1" stop-color="#FFF"/></radialGradient><path class="st26" d="M560.6 315.1l129.9-11.6c1.9-9.6 2.9-19.5 2.9-29.7 0-79.4-61-144.5-138.6-151.2-13 27.5-20.2 58.1-20.2 90.5-.1 37 9.4 71.8 26 102z"/><linearGradient id="SVGID_28_" gradientUnits="userSpaceOnUse" x1="682.514" y1="483.026" x2="265.724" y2="-787.057"><stop offset="0" stop-color="#ff772a"/><stop offset="1" stop-color="#FFF"/></linearGradient><path class="st27" d="M634.8 393.6c28.2-22 48.4-53.7 55.6-90.1l-129.9 11.6c17.7 32.1 43.3 59.2 74.3 78.5z"/><radialGradient id="SVGID_29_" cx="823.944" cy="392.819" r="294.877" gradientTransform="matrix(-.3783 -.9257 2.964 -1.2113 -28.61 1631.34)" gradientUnits="userSpaceOnUse"><stop offset="0" stop-color="#ff772a"/><stop offset="1" stop-color="#FFF"/></radialGradient><path class="st28" d="M634.8 393.6c28.2-22 48.4-53.7 55.6-90.1l-129.9 11.6c17.7 32.1 43.3 59.2 74.3 78.5z"/><radialGradient id="SVGID_30_" cx="589.846" cy="400.748" r="209.809" gradientTransform="matrix(-.4144 -.91 2.0446 -.931 14.933 1310.667)" gradientUnits="userSpaceOnUse"><stop offset="0" stop-color="#ff772a"/><stop offset="1" stop-color="#FFF"/></radialGradient><path class="st29" d="M634.8 393.6c28.2-22 48.4-53.7 55.6-90.1l-129.9 11.6c17.7 32.1 43.3 59.2 74.3 78.5z"/><radialGradient id="SVGID_31_" cx="388.732" cy="414.232" r="137.52" gradientTransform="matrix(-.371 -.9286 6.021 -2.4058 -1961.176 1771.788)" gradientUnits="userSpaceOnUse"><stop offset="0" stop-color="#ff772a"/><stop offset="1" stop-color="#FFF"/></radialGradient><path class="st30" d="M308.8 337.6l91.6-8.2c-6.8-17.2-10.5-36-10.5-55.6 0-11.6 1.3-23 3.8-33.8-9.1-2.9-18.7-4.4-28.7-4.4-46.3 0-84.8 33.1-93.3 76.9 15.5 3 28.8 12.3 37.1 25.1z"/><linearGradient id="SVGID_32_" gradientUnits="userSpaceOnUse" x1="428.989" y1="566.222" x2="12.199" y2="-703.86"><stop offset="0" stop-color="#ff772a"/><stop offset="1" stop-color="#FFF"/></linearGradient><path class="st31" d="M441 387.5c-17.8-15.7-31.8-35.6-40.7-58l-91.6 8.2c5.7 8.9 9.1 19.5 9.1 30.8 0 13.6-4.8 26.1-12.7 35.9 16.3 13.2 37.1 21.2 59.8 21.2 31.2 0 58.8-15 76.1-38.1z"/><radialGradient id="SVGID_33_" cx="388.732" cy="414.232" r="137.52" gradientTransform="matrix(-.371 -.9286 6.021 -2.4058 -1961.176 1771.788)" gradientUnits="userSpaceOnUse"><stop offset="0" stop-color="#ff772a"/><stop offset="1" stop-color="#FFF"/></radialGradient><path class="st32" d="M441 387.5c-17.8-15.7-31.8-35.6-40.7-58l-91.6 8.2c5.7 8.9 9.1 19.5 9.1 30.8 0 13.6-4.8 26.1-12.7 35.9 16.3 13.2 37.1 21.2 59.8 21.2 31.2 0 58.8-15 76.1-38.1z"/><radialGradient id="SVGID_34_" cx="589.846" cy="400.748" r="209.82" gradientTransform="matrix(-.4144 -.91 2.0446 -.931 14.933 1310.667)" gradientUnits="userSpaceOnUse"><stop offset="0" stop-color="#ff772a"/><stop offset="1" stop-color="#FFF"/></radialGradient><path class="st33" d="M400.4 329.5l59.4-5.3c-2.7-39.6-29.6-72.6-66.1-84.2-2.5 10.9-3.8 22.2-3.8 33.8-.1 19.7 3.7 38.4 10.5 55.7z"/><radialGradient id="SVGID_35_" cx="388.732" cy="414.232" r="137.52" gradientTransform="matrix(-.371 -.9286 6.021 -2.4058 -1961.176 1771.788)" gradientUnits="userSpaceOnUse"><stop offset="0" stop-color="#ff772a"/><stop offset="1" stop-color="#FFF"/></radialGradient><path class="st34" d="M400.4 329.5l59.4-5.3c-2.7-39.6-29.6-72.6-66.1-84.2-2.5 10.9-3.8 22.2-3.8 33.8-.1 19.7 3.7 38.4 10.5 55.7z"/><linearGradient id="SVGID_36_" gradientUnits="userSpaceOnUse" x1="500.88" y1="542.631" x2="84.09" y2="-727.452"><stop offset="0" stop-color="#ff772a"/><stop offset="1" stop-color="#FFF"/></linearGradient><path class="st35" d="M441 387.5c11.9-15.9 18.9-35.6 18.9-56.9 0-2.2-.1-4.3-.2-6.4l-59.4 5.3c8.9 22.4 23 42.2 40.7 58z"/><radialGradient id="SVGID_37_" cx="589.846" cy="400.748" r="209.809" gradientTransform="matrix(-.4144 -.91 2.0446 -.931 14.933 1310.667)" gradientUnits="userSpaceOnUse"><stop offset="0" stop-color="#ff772a"/><stop offset="1" stop-color="#FFF"/></radialGradient><path class="st36" d="M441 387.5c11.9-15.9 18.9-35.6 18.9-56.9 0-2.2-.1-4.3-.2-6.4l-59.4 5.3c8.9 22.4 23 42.2 40.7 58z"/><radialGradient id="SVGID_38_" cx="388.732" cy="414.232" r="137.52" gradientTransform="matrix(-.371 -.9286 6.021 -2.4058 -1961.176 1771.788)" gradientUnits="userSpaceOnUse"><stop offset="0" stop-color="#ff772a"/><stop offset="1" stop-color="#FFF"/></radialGradient><path class="st37" d="M441 387.5c11.9-15.9 18.9-35.6 18.9-56.9 0-2.2-.1-4.3-.2-6.4l-59.4 5.3c8.9 22.4 23 42.2 40.7 58z"/><radialGradient id="SVGID_39_" cx="285.353" cy="427.394" r="96.813" gradientTransform="matrix(-.386 -.9225 2.821 -1.1804 -810.22 1195.117)" gradientUnits="userSpaceOnUse"><stop offset="0" stop-color="#ff772a"/><stop offset="1" stop-color="#FFF"/></radialGradient><path class="st38" d="M270 330.6c0-6.2.6-12.3 1.7-18.1-3.5-.7-7.2-1.1-10.9-1.1-23.8 0-44.2 14.6-52.8 35.3l62.5-5.6c-.3-3.5-.5-7-.5-10.5z"/><linearGradient id="SVGID_40_" gradientUnits="userSpaceOnUse" x1="323.307" y1="600.903" x2="-93.483" y2="-669.18"><stop offset="0" stop-color="#ff772a"/><stop offset="1" stop-color="#FFF"/></linearGradient><path class="st39" d="M305.2 404.4c-18.9-15.3-31.8-37.8-34.6-63.3l-62.5 5.6c-2.8 6.7-4.3 14.1-4.3 21.8 0 31.5 25.6 57.1 57.1 57.1 17.8 0 33.8-8.3 44.3-21.2z"/><radialGradient id="SVGID_41_" cx="285.353" cy="427.394" r="96.813" gradientTransform="matrix(-.386 -.9225 2.821 -1.1804 -810.22 1195.117)" gradientUnits="userSpaceOnUse"><stop offset="0" stop-color="#ff772a"/><stop offset="1" stop-color="#FFF"/></radialGradient><path class="st40" d="M305.2 404.4c-18.9-15.3-31.8-37.8-34.6-63.3l-62.5 5.6c-2.8 6.7-4.3 14.1-4.3 21.8 0 31.5 25.6 57.1 57.1 57.1 17.8 0 33.8-8.3 44.3-21.2z"/><radialGradient id="SVGID_42_" cx="388.732" cy="414.232" r="137.52" gradientTransform="matrix(-.371 -.9286 6.021 -2.4058 -1961.176 1771.788)" gradientUnits="userSpaceOnUse"><stop offset="0" stop-color="#ff772a"/><stop offset="1" stop-color="#FFF"/></radialGradient><path class="st41" d="M270.5 341.1l38.3-3.4c-8.3-12.9-21.6-22.2-37.1-25.2-1.1 5.9-1.7 11.9-1.7 18.1 0 3.5.2 7 .5 10.5z"/><radialGradient id="SVGID_43_" cx="285.353" cy="427.394" r="96.813" gradientTransform="matrix(-.386 -.9225 2.821 -1.1804 -810.22 1195.117)" gradientUnits="userSpaceOnUse"><stop offset="0" stop-color="#ff772a"/><stop offset="1" stop-color="#FFF"/></radialGradient><path class="st42" d="M270.5 341.1l38.3-3.4c-8.3-12.9-21.6-22.2-37.1-25.2-1.1 5.9-1.7 11.9-1.7 18.1 0 3.5.2 7 .5 10.5z"/><linearGradient id="SVGID_44_" gradientUnits="userSpaceOnUse" x1="370.344" y1="585.467" x2="-46.446" y2="-684.615"><stop offset="0" stop-color="#ff772a"/><stop offset="1" stop-color="#FFF"/></linearGradient><path class="st43" d="M305.2 404.4c7.9-9.8 12.7-22.3 12.7-35.9 0-11.4-3.3-21.9-9.1-30.8l-38.3 3.4c2.8 25.5 15.7 47.9 34.7 63.3z"/><radialGradient id="SVGID_45_" cx="388.732" cy="414.232" r="137.52" gradientTransform="matrix(-.371 -.9286 6.021 -2.4058 -1961.176 1771.788)" gradientUnits="userSpaceOnUse"><stop offset="0" stop-color="#ff772a"/><stop offset="1" stop-color="#FFF"/></radialGradient><path class="st44" d="M305.2 404.4c7.9-9.8 12.7-22.3 12.7-35.9 0-11.4-3.3-21.9-9.1-30.8l-38.3 3.4c2.8 25.5 15.7 47.9 34.7 63.3z"/><radialGradient id="SVGID_46_" cx="285.353" cy="427.394" r="96.813" gradientTransform="matrix(-.386 -.9225 2.821 -1.1804 -810.22 1195.117)" gradientUnits="userSpaceOnUse"><stop offset="0" stop-color="#ff772a"/><stop offset="1" stop-color="#FFF"/></radialGradient><path class="st45" d="M305.2 404.4c7.9-9.8 12.7-22.3 12.7-35.9 0-11.4-3.3-21.9-9.1-30.8l-38.3 3.4c2.8 25.5 15.7 47.9 34.7 63.3z"/></svg>