<svg id="Layer_1" xmlns="http://www.w3.org/2000/svg" viewBox="0 0 362 115.5"><style>.st0{fill:url(#SVGID_1_)}.st1{fill:url(#SVGID_2_)}.st2{fill:url(#SVGID_3_)}.st3{fill:url(#SVGID_4_)}.st4{fill:url(#SVGID_5_)}.st5{fill:url(#SVGID_6_)}.st6{fill:url(#SVGID_7_)}.st7{fill:url(#SVGID_8_)}.st8{fill:url(#SVGID_9_)}.st9{fill:url(#SVGID_10_)}.st10{fill:url(#SVGID_11_)}.st11{fill:url(#SVGID_12_)}.st12{fill:url(#SVGID_13_)}.st13{fill:url(#SVGID_14_)}.st14{fill:url(#SVGID_15_)}.st15{fill:url(#SVGID_16_)}.st16{fill:url(#SVGID_17_)}.st17{fill:url(#SVGID_18_)}.st18{fill:url(#SVGID_19_)}.st19{fill:url(#SVGID_20_)}.st20{fill:url(#SVGID_21_)}.st21{fill:url(#SVGID_22_)}.st22{fill:url(#SVGID_23_)}.st23{fill:url(#SVGID_24_)}.st24{fill:url(#SVGID_25_)}.st25{fill:url(#SVGID_26_)}.st26{fill:url(#SVGID_27_)}.st27{fill:url(#SVGID_28_)}.st28{fill:url(#SVGID_29_)}.st29{fill:url(#SVGID_30_)}.st30{fill:url(#SVGID_31_)}.st31{fill:url(#SVGID_32_)}.st32{fill:url(#SVGID_33_)}.st33{fill:url(#SVGID_34_)}.st34{fill:url(#SVGID_35_)}.st35{fill:url(#SVGID_36_)}.st36{fill:url(#SVGID_37_)}.st37{fill:url(#SVGID_38_)}.st38{fill:url(#SVGID_39_)}.st39{fill:url(#SVGID_40_)}.st40{fill:url(#SVGID_41_)}.st41{fill:url(#SVGID_42_)}</style><linearGradient id="SVGID_1_" gradientUnits="userSpaceOnUse" x1="-1099.638" y1="158.752" x2="-1212.509" y2="-185.201" gradientTransform="translate(1198.703)"><stop offset="0" stop-color="#ff772a"/><stop offset="1" stop-color="#FFF"/></linearGradient><path class="st0" d="M70.6 115.1h28.2c-6.1 0-11.8-2.2-16.2-5.7-2.8 3.4-7.1 5.7-12 5.7z"/><linearGradient id="SVGID_2_" gradientUnits="userSpaceOnUse" x1="-896.168" y1="91.982" x2="-1009.039" y2="-251.972" gradientTransform="translate(1198.703)"><stop offset="0" stop-color="#ff772a"/><stop offset="1" stop-color="#FFF"/></linearGradient><path class="st1" d="M258.2 115.1H362s-46.5-7.3-66.6-42.7c0 21.7-16.2 39.7-37.2 42.7z"/><linearGradient id="SVGID_3_" gradientUnits="userSpaceOnUse" x1="-1144.248" y1="173.392" x2="-1257.12" y2="-170.562" gradientTransform="translate(1198.703)"><stop offset="0" stop-color="#ff772a"/><stop offset="1" stop-color="#FFF"/></linearGradient><path class="st2" d="M55.2 99.6c0-2.1.4-4.1 1.2-5.9 0 0-22 14-56.3 21.4h70.6c-8.6 0-15.5-7-15.5-15.5z"/><linearGradient id="SVGID_4_" gradientUnits="userSpaceOnUse" x1="-1065.311" y1="147.488" x2="-1178.183" y2="-196.466" gradientTransform="translate(1198.703)"><stop offset="0" stop-color="#ff772a"/><stop offset="1" stop-color="#FFF"/></linearGradient><path class="st3" d="M98.8 115.1h47.8c-10.4 0-20-3.9-27.2-10.3-4.7 6.2-12.1 10.3-20.6 10.3z"/><linearGradient id="SVGID_5_" gradientUnits="userSpaceOnUse" x1="-973.659" y1="117.411" x2="-1086.531" y2="-226.542" gradientTransform="translate(1198.703)"><stop offset="0" stop-color="#ff772a"/><stop offset="1" stop-color="#FFF"/></linearGradient><path class="st4" d="M202.3 115.1h44c-6.4-.9-12.3-3.1-17.4-6.5-8 4.1-17 6.5-26.6 6.5z"/><linearGradient id="SVGID_6_" gradientUnits="userSpaceOnUse" x1="-1018.614" y1="132.164" x2="-1131.486" y2="-211.79" gradientTransform="translate(1198.703)"><stop offset="0" stop-color="#ff772a"/><stop offset="1" stop-color="#FFF"/></linearGradient><path class="st5" d="M146.7 115.1h55.6c-11.1 0-21.6-3.2-30.4-8.7-7 5.4-15.7 8.7-25.2 8.7z"/><radialGradient id="SVGID_7_" cx="-934.891" cy="98.425" r="69.372" gradientTransform="matrix(-.3343 -.9425 3.6444 -1.2927 -407.436 -655.437)" gradientUnits="userSpaceOnUse"><stop offset="0" stop-color="#ff772a"/><stop offset="1" stop-color="#FFF"/></radialGradient><path class="st6" d="M256.9 75.7l38.5-3.4c0-23.8-19.3-43.1-43.1-43.2 4.8 8.4 7.5 18.1 7.5 28.4 0 6.4-1 12.5-2.9 18.2z"/><radialGradient id="SVGID_8_" cx="-934.891" cy="98.425" r="69.372" gradientTransform="matrix(-.3343 -.9425 3.6444 -1.2927 -407.436 -655.437)" gradientUnits="userSpaceOnUse"><stop offset="0" stop-color="#ff772a"/><stop offset="1" stop-color="#FFF"/></radialGradient><path class="st7" d="M258.2 115.1h-12c2 .3 3.9.4 6 .4s4.1-.2 6-.4z"/><linearGradient id="SVGID_9_" gradientUnits="userSpaceOnUse" x1="-932.204" y1="103.807" x2="-1045.075" y2="-240.146" gradientTransform="translate(1198.703)"><stop offset="0" stop-color="#ff772a"/><stop offset="1" stop-color="#FFF"/></linearGradient><path class="st8" d="M295.4 72.3l-38.5 3.4c-4.7 14.2-14.9 26-28 32.8 5.2 3.3 11.1 5.6 17.4 6.5h12c20.9-2.9 37.1-20.9 37.1-42.7z"/><radialGradient id="SVGID_10_" cx="-934.891" cy="98.425" r="69.372" gradientTransform="matrix(-.3343 -.9425 3.6444 -1.2927 -407.436 -655.437)" gradientUnits="userSpaceOnUse"><stop offset="0" stop-color="#ff772a"/><stop offset="1" stop-color="#FFF"/></radialGradient><path class="st9" d="M295.4 72.3l-38.5 3.4c-4.7 14.2-14.9 26-28 32.8 5.2 3.3 11.1 5.6 17.4 6.5h12c20.9-2.9 37.1-20.9 37.1-42.7z"/><radialGradient id="SVGID_11_" cx="-975.575" cy="106.18" r="79.856" gradientTransform="matrix(-.3783 -.9257 2.964 -1.2113 -460.643 -668.277)" gradientUnits="userSpaceOnUse"><stop offset="0" stop-color="#ff772a"/><stop offset="1" stop-color="#FFF"/></radialGradient><path class="st10" d="M187.8 74c0 2.8-.3 5.4-.8 8l22.8-2c-.4-2.5-.7-5-.7-7.7 0-23.8 19.3-43.2 43.2-43.2h.1C242.4 11.7 223.7 0 202.3 0c-23 0-42.8 13.5-52.1 33 21.1 1.8 37.6 19.5 37.6 41z"/><linearGradient id="SVGID_12_" gradientUnits="userSpaceOnUse" x1="-992.994" y1="123.756" x2="-1105.865" y2="-220.197" gradientTransform="translate(1198.703)"><stop offset="0" stop-color="#ff772a"/><stop offset="1" stop-color="#FFF"/></linearGradient><path class="st11" d="M209.8 80L187 82c-2 9.9-7.4 18.4-15.1 24.4 8.8 5.5 19.2 8.7 30.4 8.7 9.6 0 18.6-2.3 26.5-6.5-9.8-6.4-16.9-16.7-19-28.6z"/><radialGradient id="SVGID_13_" cx="-975.575" cy="106.18" r="79.856" gradientTransform="matrix(-.3783 -.9257 2.964 -1.2113 -460.643 -668.277)" gradientUnits="userSpaceOnUse"><stop offset="0" stop-color="#ff772a"/><stop offset="1" stop-color="#FFF"/></radialGradient><path class="st12" d="M209.8 80L187 82c-2 9.9-7.4 18.4-15.1 24.4 8.8 5.5 19.2 8.7 30.4 8.7 9.6 0 18.6-2.3 26.5-6.5-9.8-6.4-16.9-16.7-19-28.6z"/><radialGradient id="SVGID_14_" cx="-934.891" cy="98.425" r="69.372" gradientTransform="matrix(-.3343 -.9425 3.6444 -1.2927 -407.436 -655.437)" gradientUnits="userSpaceOnUse"><stop offset="0" stop-color="#ff772a"/><stop offset="1" stop-color="#FFF"/></radialGradient><path class="st13" d="M209.1 72.3c0 2.6.2 5.2.7 7.7l47.1-4.2c1.9-5.7 2.9-11.9 2.9-18.2 0-10.3-2.7-20-7.5-28.4h-.1c-23.8-.1-43.1 19.3-43.1 43.1z"/><radialGradient id="SVGID_15_" cx="-975.575" cy="106.18" r="79.856" gradientTransform="matrix(-.3783 -.9257 2.964 -1.2113 -460.643 -668.277)" gradientUnits="userSpaceOnUse"><stop offset="0" stop-color="#ff772a"/><stop offset="1" stop-color="#FFF"/></radialGradient><path class="st14" d="M209.1 72.3c0 2.6.2 5.2.7 7.7l47.1-4.2c1.9-5.7 2.9-11.9 2.9-18.2 0-10.3-2.7-20-7.5-28.4h-.1c-23.8-.1-43.1 19.3-43.1 43.1z"/><linearGradient id="SVGID_16_" gradientUnits="userSpaceOnUse" x1="-954.683" y1="111.184" x2="-1067.555" y2="-232.769" gradientTransform="translate(1198.703)"><stop offset="0" stop-color="#ff772a"/><stop offset="1" stop-color="#FFF"/></linearGradient><path class="st15" d="M228.8 108.6c13.1-6.8 23.3-18.6 28-32.8l-47 4.2c2.1 11.9 9.2 22.2 19 28.6z"/><radialGradient id="SVGID_17_" cx="-934.891" cy="98.425" r="69.372" gradientTransform="matrix(-.3343 -.9425 3.6444 -1.2927 -407.436 -655.437)" gradientUnits="userSpaceOnUse"><stop offset="0" stop-color="#ff772a"/><stop offset="1" stop-color="#FFF"/></radialGradient><path class="st16" d="M228.8 108.6c13.1-6.8 23.3-18.6 28-32.8l-47 4.2c2.1 11.9 9.2 22.2 19 28.6z"/><radialGradient id="SVGID_18_" cx="-975.575" cy="106.18" r="79.856" gradientTransform="matrix(-.3783 -.9257 2.964 -1.2113 -460.643 -668.277)" gradientUnits="userSpaceOnUse"><stop offset="0" stop-color="#ff772a"/><stop offset="1" stop-color="#FFF"/></radialGradient><path class="st17" d="M228.8 108.6c13.1-6.8 23.3-18.6 28-32.8l-47 4.2c2.1 11.9 9.2 22.2 19 28.6z"/><radialGradient id="SVGID_19_" cx="-1038.972" cy="108.327" r="56.819" gradientTransform="matrix(-.4144 -.91 2.0446 -.931 -492.325 -736.37)" gradientUnits="userSpaceOnUse"><stop offset="0" stop-color="#ff772a"/><stop offset="1" stop-color="#FFF"/></radialGradient><path class="st18" d="M124.5 87.6l27.3-2.4c-4.5-8.2-7.1-17.6-7.1-27.6 0-8.8 2-17.1 5.5-24.5-1.2-.1-2.4-.2-3.6-.2-19.5 0-35.9 13.6-40.1 31.9 10 3.1 17.3 12 18 22.8z"/><linearGradient id="SVGID_20_" gradientUnits="userSpaceOnUse" x1="-1041.803" y1="139.773" x2="-1154.675" y2="-204.18" gradientTransform="translate(1198.703)"><stop offset="0" stop-color="#ff772a"/><stop offset="1" stop-color="#FFF"/></linearGradient><path class="st19" d="M151.8 85.1l-27.3 2.4c0 .6.1 1.2.1 1.7 0 5.8-1.9 11.1-5.1 15.4 7.3 6.4 16.8 10.3 27.2 10.3 9.5 0 18.3-3.2 25.2-8.7-8.4-5-15.3-12.4-20.1-21.1z"/><radialGradient id="SVGID_21_" cx="-1038.972" cy="108.327" r="56.819" gradientTransform="matrix(-.4144 -.91 2.0446 -.931 -492.325 -736.37)" gradientUnits="userSpaceOnUse"><stop offset="0" stop-color="#ff772a"/><stop offset="1" stop-color="#FFF"/></radialGradient><path class="st20" d="M151.8 85.1l-27.3 2.4c0 .6.1 1.2.1 1.7 0 5.8-1.9 11.1-5.1 15.4 7.3 6.4 16.8 10.3 27.2 10.3 9.5 0 18.3-3.2 25.2-8.7-8.4-5-15.3-12.4-20.1-21.1z"/><radialGradient id="SVGID_22_" cx="-975.575" cy="106.18" r="79.856" gradientTransform="matrix(-.3783 -.9257 2.964 -1.2113 -460.643 -668.277)" gradientUnits="userSpaceOnUse"><stop offset="0" stop-color="#ff772a"/><stop offset="1" stop-color="#FFF"/></radialGradient><path class="st21" d="M151.8 85.1L187 82c.5-2.6.8-5.3.8-8 0-21.5-16.5-39.1-37.5-40.9-3.5 7.4-5.5 15.7-5.5 24.5 0 9.9 2.5 19.3 7 27.5z"/><radialGradient id="SVGID_23_" cx="-1038.972" cy="108.327" r="56.819" gradientTransform="matrix(-.4144 -.91 2.0446 -.931 -492.325 -736.37)" gradientUnits="userSpaceOnUse"><stop offset="0" stop-color="#ff772a"/><stop offset="1" stop-color="#FFF"/></radialGradient><path class="st22" d="M151.8 85.1L187 82c.5-2.6.8-5.3.8-8 0-21.5-16.5-39.1-37.5-40.9-3.5 7.4-5.5 15.7-5.5 24.5 0 9.9 2.5 19.3 7 27.5z"/><linearGradient id="SVGID_24_" gradientUnits="userSpaceOnUse" x1="-1013.876" y1="130.609" x2="-1126.748" y2="-213.345" gradientTransform="translate(1198.703)"><stop offset="0" stop-color="#ff772a"/><stop offset="1" stop-color="#FFF"/></linearGradient><path class="st23" d="M171.9 106.4c7.6-5.9 13.1-14.5 15.1-24.4l-35.2 3.1c4.8 8.7 11.7 16.1 20.1 21.3z"/><radialGradient id="SVGID_25_" cx="-975.575" cy="106.18" r="79.856" gradientTransform="matrix(-.3783 -.9257 2.964 -1.2113 -460.643 -668.277)" gradientUnits="userSpaceOnUse"><stop offset="0" stop-color="#ff772a"/><stop offset="1" stop-color="#FFF"/></radialGradient><path class="st24" d="M171.9 106.4c7.6-5.9 13.1-14.5 15.1-24.4l-35.2 3.1c4.8 8.7 11.7 16.1 20.1 21.3z"/><radialGradient id="SVGID_26_" cx="-1038.972" cy="108.327" r="56.819" gradientTransform="matrix(-.4144 -.91 2.0446 -.931 -492.325 -736.37)" gradientUnits="userSpaceOnUse"><stop offset="0" stop-color="#ff772a"/><stop offset="1" stop-color="#FFF"/></radialGradient><path class="st25" d="M171.9 106.4c7.6-5.9 13.1-14.5 15.1-24.4l-35.2 3.1c4.8 8.7 11.7 16.1 20.1 21.3z"/><radialGradient id="SVGID_27_" cx="-1093.436" cy="111.979" r="37.242" gradientTransform="matrix(-.371 -.9286 6.021 -2.4058 -974.683 -634)" gradientUnits="userSpaceOnUse"><stop offset="0" stop-color="#ff772a"/><stop offset="1" stop-color="#FFF"/></radialGradient><path class="st26" d="M83.6 91.2l24.8-2.2c-1.8-4.7-2.8-9.7-2.8-15.1 0-3.1.4-6.2 1-9.2-2.5-.8-5.1-1.2-7.8-1.2-12.5 0-23 9-25.3 20.8 4.3.9 7.9 3.5 10.1 6.9z"/><linearGradient id="SVGID_28_" gradientUnits="userSpaceOnUse" x1="-1082.534" y1="153.14" x2="-1195.406" y2="-190.814" gradientTransform="translate(1198.703)"><stop offset="0" stop-color="#ff772a"/><stop offset="1" stop-color="#FFF"/></linearGradient><path class="st27" d="M119.4 104.7c-4.8-4.3-8.6-9.6-11-15.7l-24.8 2.2c1.6 2.4 2.5 5.3 2.5 8.4 0 3.7-1.3 7.1-3.4 9.7 4.4 3.6 10.1 5.7 16.2 5.7 8.4.1 15.8-4 20.5-10.3z"/><radialGradient id="SVGID_29_" cx="-1093.436" cy="111.979" r="37.242" gradientTransform="matrix(-.371 -.9286 6.021 -2.4058 -974.683 -634)" gradientUnits="userSpaceOnUse"><stop offset="0" stop-color="#ff772a"/><stop offset="1" stop-color="#FFF"/></radialGradient><path class="st28" d="M119.4 104.7c-4.8-4.3-8.6-9.6-11-15.7l-24.8 2.2c1.6 2.4 2.5 5.3 2.5 8.4 0 3.7-1.3 7.1-3.4 9.7 4.4 3.6 10.1 5.7 16.2 5.7 8.4.1 15.8-4 20.5-10.3z"/><radialGradient id="SVGID_30_" cx="-1038.972" cy="108.327" r="56.822" gradientTransform="matrix(-.4144 -.91 2.0446 -.931 -492.325 -736.37)" gradientUnits="userSpaceOnUse"><stop offset="0" stop-color="#ff772a"/><stop offset="1" stop-color="#FFF"/></radialGradient><path class="st29" d="M108.4 89l16.1-1.4c-.7-10.7-8-19.7-17.9-22.8-.7 2.9-1 6-1 9.2 0 5.3 1 10.4 2.8 15z"/><radialGradient id="SVGID_31_" cx="-1093.436" cy="111.979" r="37.242" gradientTransform="matrix(-.371 -.9286 6.021 -2.4058 -974.683 -634)" gradientUnits="userSpaceOnUse"><stop offset="0" stop-color="#ff772a"/><stop offset="1" stop-color="#FFF"/></radialGradient><path class="st30" d="M108.4 89l16.1-1.4c-.7-10.7-8-19.7-17.9-22.8-.7 2.9-1 6-1 9.2 0 5.3 1 10.4 2.8 15z"/><linearGradient id="SVGID_32_" gradientUnits="userSpaceOnUse" x1="-1063.065" y1="146.751" x2="-1175.937" y2="-197.203" gradientTransform="translate(1198.703)"><stop offset="0" stop-color="#ff772a"/><stop offset="1" stop-color="#FFF"/></linearGradient><path class="st31" d="M119.4 104.7c3.2-4.3 5.1-9.6 5.1-15.4 0-.6 0-1.2-.1-1.7l-16 1.4c2.4 6.1 6.2 11.5 11 15.7z"/><radialGradient id="SVGID_33_" cx="-1038.972" cy="108.327" r="56.819" gradientTransform="matrix(-.4144 -.91 2.0446 -.931 -492.325 -736.37)" gradientUnits="userSpaceOnUse"><stop offset="0" stop-color="#ff772a"/><stop offset="1" stop-color="#FFF"/></radialGradient><path class="st32" d="M119.4 104.7c3.2-4.3 5.1-9.6 5.1-15.4 0-.6 0-1.2-.1-1.7l-16 1.4c2.4 6.1 6.2 11.5 11 15.7z"/><radialGradient id="SVGID_34_" cx="-1093.436" cy="111.979" r="37.242" gradientTransform="matrix(-.371 -.9286 6.021 -2.4058 -974.683 -634)" gradientUnits="userSpaceOnUse"><stop offset="0" stop-color="#ff772a"/><stop offset="1" stop-color="#FFF"/></radialGradient><path class="st33" d="M119.4 104.7c3.2-4.3 5.1-9.6 5.1-15.4 0-.6 0-1.2-.1-1.7l-16 1.4c2.4 6.1 6.2 11.5 11 15.7z"/><radialGradient id="SVGID_35_" cx="-1121.432" cy="115.543" r="26.218" gradientTransform="matrix(-.386 -.9225 2.821 -1.1804 -681.542 -782.6)" gradientUnits="userSpaceOnUse"><stop offset="0" stop-color="#ff772a"/><stop offset="1" stop-color="#FFF"/></radialGradient><path class="st34" d="M73.1 89.3c0-1.7.2-3.3.5-4.9-1-.2-1.9-.3-3-.3-6.4 0-12 3.9-14.3 9.5l16.9-1.5c0-.9-.1-1.8-.1-2.8z"/><linearGradient id="SVGID_36_" gradientUnits="userSpaceOnUse" x1="-1111.154" y1="162.532" x2="-1224.025" y2="-181.422" gradientTransform="translate(1198.703)"><stop offset="0" stop-color="#ff772a"/><stop offset="1" stop-color="#FFF"/></linearGradient><path class="st35" d="M82.6 109.3c-5.1-4.2-8.6-10.2-9.4-17.2l-16.9 1.5c-.8 1.8-1.2 3.8-1.2 5.9 0 8.5 6.9 15.5 15.5 15.5 4.9.1 9.2-2.2 12-5.7z"/><radialGradient id="SVGID_37_" cx="-1121.432" cy="115.543" r="26.218" gradientTransform="matrix(-.386 -.9225 2.821 -1.1804 -681.542 -782.6)" gradientUnits="userSpaceOnUse"><stop offset="0" stop-color="#ff772a"/><stop offset="1" stop-color="#FFF"/></radialGradient><path class="st36" d="M82.6 109.3c-5.1-4.2-8.6-10.2-9.4-17.2l-16.9 1.5c-.8 1.8-1.2 3.8-1.2 5.9 0 8.5 6.9 15.5 15.5 15.5 4.9.1 9.2-2.2 12-5.7z"/><radialGradient id="SVGID_38_" cx="-1093.436" cy="111.979" r="37.242" gradientTransform="matrix(-.371 -.9286 6.021 -2.4058 -974.683 -634)" gradientUnits="userSpaceOnUse"><stop offset="0" stop-color="#ff772a"/><stop offset="1" stop-color="#FFF"/></radialGradient><path class="st37" d="M73.3 92.2l10.4-.9c-2.2-3.5-5.8-6-10.1-6.8-.3 1.6-.5 3.2-.5 4.9 0 .9.1 1.8.2 2.8z"/><radialGradient id="SVGID_39_" cx="-1121.432" cy="115.543" r="26.218" gradientTransform="matrix(-.386 -.9225 2.821 -1.1804 -681.542 -782.6)" gradientUnits="userSpaceOnUse"><stop offset="0" stop-color="#ff772a"/><stop offset="1" stop-color="#FFF"/></radialGradient><path class="st38" d="M73.3 92.2l10.4-.9c-2.2-3.5-5.8-6-10.1-6.8-.3 1.6-.5 3.2-.5 4.9 0 .9.1 1.8.2 2.8z"/><linearGradient id="SVGID_40_" gradientUnits="userSpaceOnUse" x1="-1098.416" y1="158.351" x2="-1211.287" y2="-185.602" gradientTransform="translate(1198.703)"><stop offset="0" stop-color="#ff772a"/><stop offset="1" stop-color="#FFF"/></linearGradient><path class="st39" d="M82.6 109.3c2.2-2.7 3.4-6 3.4-9.7 0-3.1-.9-5.9-2.5-8.4l-10.4.9c.9 7 4.4 13.1 9.5 17.2z"/><radialGradient id="SVGID_41_" cx="-1093.436" cy="111.979" r="37.242" gradientTransform="matrix(-.371 -.9286 6.021 -2.4058 -974.683 -634)" gradientUnits="userSpaceOnUse"><stop offset="0" stop-color="#ff772a"/><stop offset="1" stop-color="#FFF"/></radialGradient><path class="st40" d="M82.6 109.3c2.2-2.7 3.4-6 3.4-9.7 0-3.1-.9-5.9-2.5-8.4l-10.4.9c.9 7 4.4 13.1 9.5 17.2z"/><radialGradient id="SVGID_42_" cx="-1121.432" cy="115.543" r="26.218" gradientTransform="matrix(-.386 -.9225 2.821 -1.1804 -681.542 -782.6)" gradientUnits="userSpaceOnUse"><stop offset="0" stop-color="#ff772a"/><stop offset="1" stop-color="#FFF"/></radialGradient><path class="st41" d="M82.6 109.3c2.2-2.7 3.4-6 3.4-9.7 0-3.1-.9-5.9-2.5-8.4l-10.4.9c.9 7 4.4 13.1 9.5 17.2z"/></svg>