<svg id="Layer_1" xmlns="http://www.w3.org/2000/svg" xmlns:xlink="http://www.w3.org/1999/xlink" viewBox="0 0 5010.6 1250"><style>.st0{fill:#004834}.st1{clip-path:url(#SVGID_2_);fill:url(#SVGID_3_)}.st2{fill:#d3cc9c}.st3{fill:url(#SVGID_4_)}.st4{fill:url(#SVGID_5_)}.st5{fill:#ccc6c0}.st6{opacity:.4}.st7{stroke:#262626}.st7,.st8{fill:none;stroke-miterlimit:10}.st8{stroke:#232323;stroke-width:2}.st9{stroke:#494948;stroke-width:.75}.st9,.st10{fill:none;stroke-miterlimit:10}.st10{stroke:#484949}</style><path class="st0" d="M1720 78.6c-15.9 0-30.5 5.1-41.7 13.4-7.2-9.4-19.5-15.6-33.5-15.6-8.7 0-16.7 2.4-23.3 6.4-9.4-16.7-29.1-28.2-51.9-28.2-31.9 0-57.7 22.4-57.7 50.1 0 .9 0 1.9.1 2.8-4.5-1.8-9.6-2.8-15-2.8-1.7 0-3.3.1-4.9.3 1-2.8 1.6-5.7 1.6-8.7 0-16.2-15.8-29.3-35.2-29.3-14.8 0-27.4 7.6-32.6 18.3-6.8-.8-13.9-1.2-21.2-1.2-20.4 0-39.3 3.3-54.8 9-10.2-10.1-24.9-16.5-41.2-16.5-10.7 0-20.8 2.8-29.3 7.5-4.4-1-8.9-1.5-13.6-1.5-17.2 0-32.6 7.1-42.8 18.1-11.4-14-29.8-23.1-50.5-23.1-26.6 0-49.2 14.9-58.3 35.9-9.8-8.6-23.2-14-38-14-14.7 0-28 5.2-37.8 13.8-8.8-5.6-19.6-8.8-31.1-8.8-10.1 0-19.5 2.5-27.7 6.8-14.9-19.3-39.7-32-67.8-32-31.1 0-58.2 15.6-72.3 38.5-10.3-5.9-22.5-9.3-35.6-9.3-23.3 0-43.8 10.9-55.6 27.3-9.6-4.9-20.6-7.6-32.4-7.6-5.1 0-10 .5-14.7 1.5-12.2-12.9-30.3-21.2-50.6-21.2-30.2 0-55.6 18.2-63.6 43-6.3-1.8-13.1-2.8-20.1-2.8-16.2 0-31.1 5.3-42.6 14-8.8-11.4-23.5-18.8-40.1-18.8-10.5 0-20.2 3-28.1 8.1-13.9-21.9-40-36.7-70-36.7-34.1 0-63.2 19-75 46-7.3-3.6-15.7-5.7-24.6-5.7-9 0-17.5 2.1-24.9 5.8-11.6-8.5-26.4-13.6-42.5-13.6-12.5 0-24.2 3.1-34.2 8.4-12.5-13.7-30.2-22.2-49.9-22.2-25.3 0-47.4 13.9-58.9 34.6-2.8-.4-5.7-.6-8.6-.6C30.2 168 0 198.2 0 235.5S30.2 303 67.5 303c25.3 0 47.4-13.9 58.9-34.6 2.8.4 5.7.6 8.6.6 15.4 0 29.7-5.2 41-13.9 11.7 8.7 26.6 13.9 42.9 13.9 21.5 0 40.6-9.1 52.9-23.2 4.6 1.2 9.4 1.9 14.5 1.9 14.5 0 27.7-5.5 37-14.2 14.8 16.4 37.3 26.9 62.6 26.9 30 0 56.1-14.8 70-36.7 8 5.1 17.7 8.1 28.1 8.1 7.1 0 13.9-1.4 20-3.9 9 23.4 33.6 40.2 62.6 40.2 30.2 0 55.6-18.2 63.6-43 6.3 1.8 13.1 2.8 20.1 2.8 5.1 0 10-.5 14.7-1.5 12.2 12.9 30.3 21.2 50.6 21.2 23.3 0 43.8-10.9 55.6-27.3 9.6 4.9 20.6 7.6 32.4 7.6 20.2 0 38.3-8.2 50.4-21 14.8 13 35.1 21 57.4 21 28.1 0 52.9-12.7 67.8-32 8.1 4.3 17.6 6.8 27.7 6.8 14.7 0 28-5.2 37.8-13.8 8.8 5.6 19.6 8.8 31.1 8.8 21.3 0 39.8-11.1 48.7-27.2 11.5 12.1 28.6 19.8 47.6 19.8 21.5 0 40.5-9.8 51.7-24.7 10.2 10.4 25 16.9 41.6 16.9 10.7 0 20.8-2.8 29.3-7.5 4.4 1 8.9 1.5 13.6 1.5 10.3 0 20-2.6 28.3-7 17.4 9 41.3 14.6 67.7 14.6 33.5 0 63-9 80.2-22.5 3.8 1.2 7.9 1.8 12.2 1.8 16.2 0 29.8-9.1 33.9-21.5 10.2 8 23.8 12.9 38.6 12.9 18.6 0 35.2-7.7 45.7-19.6 7.4 6.8 17.8 11.1 29.5 11.1 4.3 0 8.5-.6 12.4-1.7 5.7 25.6 31.6 44.9 62.8 44.9 35.3 0 63.9-24.8 63.9-55.5.4-30.6-28.2-55.4-63.5-55.4z"/><defs><path id="SVGID_1_" d="M10.6 0h5000v1250H10.6z"/></defs><clipPath id="SVGID_2_"><use xlink:href="#SVGID_1_" overflow="visible"/></clipPath><linearGradient id="SVGID_3_" gradientUnits="userSpaceOnUse" x1="2708.797" y1="631.138" x2="2708.797" y2="-251.468"><stop offset="0" stop-color="#a7b287"/><stop offset="1" stop-color="#707541"/></linearGradient><ellipse class="st1" cx="2708.8" cy="1060" rx="5442" ry="946.1"/><path id="volley_ball" class="st2" d="M2454 570.7s663.3-89.3 899.2-89c0 0 536.1-54.9 1034.9 113.5l-351.7 151.2L2422.9 636l31.1-65.3z"/><linearGradient id="SVGID_4_" gradientUnits="userSpaceOnUse" x1="4303.777" y1="1825.853" x2="3926.99" y2="718.347"><stop offset="0" stop-color="#929766"/><stop offset="1" stop-color="#7a894c"/></linearGradient><path class="st3" d="M4108.5 640.2s538.5-114 902.1-84v693.6h-1832l-263.9-159.7 419.9-257.9 773.9-192z"/><linearGradient id="SVGID_5_" gradientUnits="userSpaceOnUse" x1="1921.885" y1="1864.656" x2="2084.684" y2="363.851"><stop offset="0" stop-color="#929766"/><stop offset="1" stop-color="#7a894c"/></linearGradient><path class="st4" d="M10.6 551.2s1746.3-49 4097.9 89l-1085.8 228-731.9 381.7H10.6V551.2z"/><path class="st5" d="M4108.5 640.2S2302.9 785.7 1841 1249.9h1337.7c-.1 0 107.9-399.7 929.8-609.7z"/><g class="st6"><path class="st7" d="M3321.1 537.9l-170.8-2.2v-19.1l170.8-1.6z"/><path class="st8" d="M3324.8 514.6v57.3M3147.2 516.2v54"/></g><g class="st6"><path class="st7" d="M3536 538.5l-179.4-2.3v-20.1l179.4-1.7z"/><path class="st8" d="M3539.8 514v60.2M3353.3 515.7v56.8"/></g><path class="st9" d="M3254.7 206.4v-52.1h-166.1v52.1M3273.4 206.4s-7.7-45.4-11.6-48.6l-7-3.5"/><path class="st9" d="M3088.6 154.3s6.3 3.5 7.7 4.7c0 0 10.9 38.9 11.6 44.4"/><path class="st10" d="M2056.1 351.5v-54.1h-168.6v54.1"/><path class="st10" d="M1868.4 356.9l8.3-51.2s5-6.3 13.3-8.2M2036.9 356.9l7.8-50.3s3.6-7.7 11.4-9.1"/></svg>